  0
SECTION
  2
HEADER
  9
$ACADVER
  1
AC1027
  9
$ACADMAINTVER
 70
   125
  9
$DWGCODEPAGE
  3
ANSI_1252
  9
$REQUIREDVERSIONS
160
                 0
  9
$INSBASE
 10
0.0
 20
0.0
 30
0.0
  9
$EXTMIN
 10
1.000000000000000E+20
 20
1.000000000000000E+20
 30
1.000000000000000E+20
  9
$EXTMAX
 10
-1.000000000000000E+20
 20
-1.000000000000000E+20
 30
-1.000000000000000E+20
  9
$LIMMIN
 10
0.0
 20
0.0
  9
$LIMMAX
 10
12.0
 20
9.0
  9
$ORTHOMODE
 70
     0
  9
$REGENMODE
 70
     1
  9
$FILLMODE
 70
     1
  9
$QTEXTMODE
 70
     0
  9
$MIRRTEXT
 70
     0
  9
$LTSCALE
 40
1.0
  9
$ATTMODE
 70
     1
  9
$TEXTSIZE
 40
0.2
  9
$TRACEWID
 40
0.05
  9
$TEXTSTYLE
  7
Standard
  9
$CLAYER
  8
0
  9
$CELTYPE
  6
ByLayer
  9
$CECOLOR
 62
   256
  9
$CELTSCALE
 40
1.0
  9
$DISPSILH
 70
     0
  9
$DIMSCALE
 40
1.0
  9
$DIMASZ
 40
0.18
  9
$DIMEXO
 40
0.0625
  9
$DIMDLI
 40
0.38
  9
$DIMRND
 40
0.0
  9
$DIMDLE
 40
0.0
  9
$DIMEXE
 40
0.18
  9
$DIMTP
 40
0.0
  9
$DIMTM
 40
0.0
  9
$DIMTXT
 40
0.18
  9
$DIMCEN
 40
0.09
  9
$DIMTSZ
 40
0.0
  9
$DIMTOL
 70
     0
  9
$DIMLIM
 70
     0
  9
$DIMTIH
 70
     1
  9
$DIMTOH
 70
     1
  9
$DIMSE1
 70
     0
  9
$DIMSE2
 70
     0
  9
$DIMTAD
 70
     0
  9
$DIMZIN
 70
     0
  9
$DIMBLK
  1

  9
$DIMASO
 70
     1
  9
$DIMSHO
 70
     1
  9
$DIMPOST
  1

  9
$DIMAPOST
  1

  9
$DIMALT
 70
     0
  9
$DIMALTD
 70
     2
  9
$DIMALTF
 40
25.4
  9
$DIMLFAC
 40
1.0
  9
$DIMTOFL
 70
     0
  9
$DIMTVP
 40
0.0
  9
$DIMTIX
 70
     0
  9
$DIMSOXD
 70
     0
  9
$DIMSAH
 70
     0
  9
$DIMBLK1
  1

  9
$DIMBLK2
  1

  9
$DIMSTYLE
  2
Standard
  9
$DIMCLRD
 70
     0
  9
$DIMCLRE
 70
     0
  9
$DIMCLRT
 70
     0
  9
$DIMTFAC
 40
1.0
  9
$DIMGAP
 40
0.09
  9
$DIMJUST
 70
     0
  9
$DIMSD1
 70
     0
  9
$DIMSD2
 70
     0
  9
$DIMTOLJ
 70
     1
  9
$DIMTZIN
 70
     0
  9
$DIMALTZ
 70
     0
  9
$DIMALTTZ
 70
     0
  9
$DIMUPT
 70
     0
  9
$DIMDEC
 70
     4
  9
$DIMTDEC
 70
     4
  9
$DIMALTU
 70
     2
  9
$DIMALTTD
 70
     2
  9
$DIMTXSTY
  7
Standard
  9
$DIMAUNIT
 70
     0
  9
$DIMADEC
 70
     0
  9
$DIMALTRND
 40
0.0
  9
$DIMAZIN
 70
     0
  9
$DIMDSEP
 70
    46
  9
$DIMATFIT
 70
     3
  9
$DIMFRAC
 70
     0
  9
$DIMLDRBLK
  1

  9
$DIMLUNIT
 70
     2
  9
$DIMLWD
 70
    -2
  9
$DIMLWE
 70
    -2
  9
$DIMTMOVE
 70
     0
  9
$DIMFXL
 40
1.0
  9
$DIMFXLON
 70
     0
  9
$DIMJOGANG
 40
0.7853981633974483
  9
$DIMTFILL
 70
     0
  9
$DIMTFILLCLR
 70
     0
  9
$DIMARCSYM
 70
     0
  9
$DIMLTYPE
  6

  9
$DIMLTEX1
  6

  9
$DIMLTEX2
  6

  9
$DIMTXTDIRECTION
 70
     0
  9
$LUNITS
 70
     2
  9
$LUPREC
 70
     4
  9
$SKETCHINC
 40
0.1
  9
$FILLETRAD
 40
0.0
  9
$AUNITS
 70
     0
  9
$AUPREC
 70
     0
  9
$MENU
  1
.
  9
$ELEVATION
 40
0.0
  9
$PELEVATION
 40
0.0
  9
$THICKNESS
 40
0.0
  9
$LIMCHECK
 70
     0
  9
$CHAMFERA
 40
0.0
  9
$CHAMFERB
 40
0.0
  9
$CHAMFERC
 40
0.0
  9
$CHAMFERD
 40
0.0
  9
$SKPOLY
 70
     0
  9
$TDCREATE
 40
2460252.155983797
  9
$TDUCREATE
 40
2460252.155983797
  9
$TDUPDATE
 40
2460252.155983797
  9
$TDUUPDATE
 40
2460252.155983797
  9
$TDINDWG
 40
0.0000000000
  9
$TDUSRTIMER
 40
0.0000000000
  9
$USRTIMER
 70
     1
  9
$ANGBASE
 50
0.0
  9
$ANGDIR
 70
     0
  9
$PDMODE
 70
     0
  9
$PDSIZE
 40
0.0
  9
$PLINEWID
 40
0.0
  9
$SPLFRAME
 70
     0
  9
$SPLINETYPE
 70
     6
  9
$SPLINESEGS
 70
     8
  9
$HANDSEED
  5
A0
  9
$SURFTAB1
 70
     6
  9
$SURFTAB2
 70
     6
  9
$SURFTYPE
 70
     6
  9
$SURFU
 70
     6
  9
$SURFV
 70
     6
  9
$UCSBASE
  2

  9
$UCSNAME
  2

  9
$UCSORG
 10
0.0
 20
0.0
 30
0.0
  9
$UCSXDIR
 10
1.0
 20
0.0
 30
0.0
  9
$UCSYDIR
 10
0.0
 20
1.0
 30
0.0
  9
$UCSORTHOREF
  2

  9
$UCSORTHOVIEW
 70
     0
  9
$UCSORGTOP
 10
0.0
 20
0.0
 30
0.0
  9
$UCSORGBOTTOM
 10
0.0
 20
0.0
 30
0.0
  9
$UCSORGLEFT
 10
0.0
 20
0.0
 30
0.0
  9
$UCSORGRIGHT
 10
0.0
 20
0.0
 30
0.0
  9
$UCSORGFRONT
 10
0.0
 20
0.0
 30
0.0
  9
$UCSORGBACK
 10
0.0
 20
0.0
 30
0.0
  9
$PUCSBASE
  2

  9
$PUCSNAME
  2

  9
$PUCSORG
 10
0.0
 20
0.0
 30
0.0
  9
$PUCSXDIR
 10
1.0
 20
0.0
 30
0.0
  9
$PUCSYDIR
 10
0.0
 20
1.0
 30
0.0
  9
$PUCSORTHOREF
  2

  9
$PUCSORTHOVIEW
 70
     0
  9
$PUCSORGTOP
 10
0.0
 20
0.0
 30
0.0
  9
$PUCSORGBOTTOM
 10
0.0
 20
0.0
 30
0.0
  9
$PUCSORGLEFT
 10
0.0
 20
0.0
 30
0.0
  9
$PUCSORGRIGHT
 10
0.0
 20
0.0
 30
0.0
  9
$PUCSORGFRONT
 10
0.0
 20
0.0
 30
0.0
  9
$PUCSORGBACK
 10
0.0
 20
0.0
 30
0.0
  9
$USERI1
 70
     0
  9
$USERI2
 70
     0
  9
$USERI3
 70
     0
  9
$USERI4
 70
     0
  9
$USERI5
 70
     0
  9
$USERR1
 40
0.0
  9
$USERR2
 40
0.0
  9
$USERR3
 40
0.0
  9
$USERR4
 40
0.0
  9
$USERR5
 40
0.0
  9
$WORLDVIEW
 70
     1
  9
$SHADEDGE
 70
     3
  9
$SHADEDIF
 70
    70
  9
$TILEMODE
 70
     1
  9
$MAXACTVP
 70
    64
  9
$PINSBASE
 10
0.0
 20
0.0
 30
0.0
  9
$PLIMCHECK
 70
     0
  9
$PEXTMIN
 10
1.000000000000000E+20
 20
1.000000000000000E+20
 30
1.000000000000000E+20
  9
$PEXTMAX
 10
-1.000000000000000E+20
 20
-1.000000000000000E+20
 30
-1.000000000000000E+20
  9
$PLIMMIN
 10
0.0
 20
0.0
  9
$PLIMMAX
 10
12.0
 20
9.0
  9
$UNITMODE
 70
     0
  9
$VISRETAIN
 70
     1
  9
$PLINEGEN
 70
     0
  9
$PSLTSCALE
 70
     1
  9
$TREEDEPTH
 70
  3020
  9
$CMLSTYLE
  2
Standard
  9
$CMLJUST
 70
     0
  9
$CMLSCALE
 40
1.0
  9
$PROXYGRAPHICS
 70
     1
  9
$MEASUREMENT
 70
     0
  9
$CELWEIGHT
370
    -1
  9
$ENDCAPS
280
     0
  9
$JOINSTYLE
280
     0
  9
$LWDISPLAY
290
     0
  9
$INSUNITS
 70
     5
  9
$HYPERLINKBASE
  1

  9
$STYLESHEET
  1

  9
$XEDIT
290
     1
  9
$CEPSNTYPE
380
     0
  9
$PSTYLEMODE
290
     1
  9
$FINGERPRINTGUID
  2
{57526D7E-A9B1-474C-8D1A-F14996D46749}
  9
$VERSIONGUID
  2
{516F8B2F-68A9-9346-A976-5444625D8F88}
  9
$EXTNAMES
290
     1
  9
$PSVPSCALE
 40
0.0
  9
$OLESTARTUP
290
     0
  9
$SORTENTS
280
   127
  9
$INDEXCTL
280
     0
  9
$HIDETEXT
280
     1
  9
$XCLIPFRAME
280
     2
  9
$HALOGAP
280
     0
  9
$OBSCOLOR
 70
   257
  9
$OBSLTYPE
280
     0
  9
$INTERSECTIONDISPLAY
280
     0
  9
$INTERSECTIONCOLOR
 70
   257
  9
$DIMASSOC
280
     2
  9
$PROJECTNAME
  1

  9
$CAMERADISPLAY
290
     0
  9
$LENSLENGTH
 40
50.0
  9
$CAMERAHEIGHT
 40
0.0
  9
$STEPSPERSEC
 40
2.0
  9
$STEPSIZE
 40
6.0
  9
$3DDWFPREC
 40
2.0
  9
$PSOLWIDTH
 40
0.25
  9
$PSOLHEIGHT
 40
4.0
  9
$LOFTANG1
 40
1.570796326794896
  9
$LOFTANG2
 40
1.570796326794896
  9
$LOFTMAG1
 40
0.0
  9
$LOFTMAG2
 40
0.0
  9
$LOFTPARAM
 70
     7
  9
$LOFTNORMALS
280
     1
  9
$LATITUDE
 40
37.795
  9
$LONGITUDE
 40
-122.394
  9
$NORTHDIRECTION
 40
0.0
  9
$TIMEZONE
 70
 -8000
  9
$LIGHTGLYPHDISPLAY
280
     1
  9
$TILEMODELIGHTSYNCH
280
     1
  9
$CMATERIAL
347
11
  9
$SOLIDHIST
280
     0
  9
$SHOWHIST
280
     1
  9
$DWFFRAME
280
     2
  9
$DGNFRAME
280
     0
  9
$REALWORLDSCALE
290
     1
  9
$INTERFERECOLOR
 62
     1
  9
$INTERFEREOBJVS
345
33
  9
$INTERFEREVPVS
346
30
  9
$CSHADOW
280
     0
  9
$SHADOWPLANELOCATION
 40
0.0
  0
ENDSEC
  0
SECTION
  2
CLASSES
  0
CLASS
  1
ACDBDICTIONARYWDFLT
  2
AcDbDictionaryWithDefault
  3
ObjectDBX Classes
 90
        0
 91
        1
280
     0
281
     0
  0
CLASS
  1
MATERIAL
  2
AcDbMaterial
  3
ObjectDBX Classes
 90
     1153
 91
        3
280
     0
281
     0
  0
CLASS
  1
VISUALSTYLE
  2
AcDbVisualStyle
  3
ObjectDBX Classes
 90
     4095
 91
       24
280
     0
281
     0
  0
CLASS
  1
SCALE
  2
AcDbScale
  3
ObjectDBX Classes
 90
     1153
 91
       17
280
     0
281
     0
  0
CLASS
  1
TABLESTYLE
  2
AcDbTableStyle
  3
ObjectDBX Classes
 90
     4095
 91
        1
280
     0
281
     0
  0
CLASS
  1
MLEADERSTYLE
  2
AcDbMLeaderStyle
  3
ACDB_MLEADERSTYLE_CLASS
 90
     4095
 91
        1
280
     0
281
     0
  0
CLASS
  1
ACDBSECTIONVIEWSTYLE
  2
AcDbSectionViewStyle
  3
ObjectDBX Classes
 90
     1025
 91
        1
280
     0
281
     0
  0
CLASS
  1
ACDBDETAILVIEWSTYLE
  2
AcDbDetailViewStyle
  3
ObjectDBX Classes
 90
     1025
 91
        1
280
     0
281
     0
  0
CLASS
  1
DICTIONARYVAR
  2
AcDbDictionaryVar
  3
ObjectDBX Classes
 90
        0
 91
        5
280
     0
281
     0
  0
CLASS
  1
CELLSTYLEMAP
  2
AcDbCellStyleMap
  3
ObjectDBX Classes
 90
     1152
 91
        1
280
     0
281
     0
  0
ENDSEC
  0
SECTION
  2
TABLES
  0
TABLE
  2
VPORT
  5
8
330
0
100
AcDbSymbolTable
 70
     1
1001
ACAD
1000
DbSaveVer
1071
      291
  0
VPORT
  5
57
330
8
100
AcDbSymbolTableRecord
100
AcDbViewportTableRecord
  2
*Active
 70
     0
 10
0.0
 20
0.0
 11
1.0
 21
1.0
 12
500.0
 22
500.0
 13
0.0
 23
0.0
 14
1.0
 24
1.0
 15
0.0
 25
0.0
 16
0.0
 26
0.0
 36
1.0
 17
0.0
 27
0.0
 37
0.0
 40
12.0
 41
1.0
 42
50.0
 43
0.0
 44
0.0
 50
0.0
 51
0.0
 71
     0
 72
   100
 73
     1
 74
     1
 75
     0
 76
     0
 77
     0
 78
     0
281
     0
 65
     1
110
0.0
120
0.0
130
0.0
111
1.0
121
0.0
131
0.0
112
0.0
122
1.0
132
0.0
 79
     0
146
0.0
 60
     3
 61
     5
292
     1
282
     1
141
0.0
142
0.0
 63
   250
421
  3355443
  0
ENDTAB
  0
TABLE
  2
LTYPE
  5
5
330
0
100
AcDbSymbolTable
 70
     1
  0
LTYPE
  5
5B
330
5
100
AcDbSymbolTableRecord
100
AcDbLinetypeTableRecord
  2
ByBlock
 70
     0
  3

 72
    65
 73
     0
 40
0.0
  0
LTYPE
  5
5C
330
5
100
AcDbSymbolTableRecord
100
AcDbLinetypeTableRecord
  2
ByLayer
 70
     0
  3

 72
    65
 73
     0
 40
0.0
  0
LTYPE
  5
5D
330
5
100
AcDbSymbolTableRecord
100
AcDbLinetypeTableRecord
  2
Continuous
 70
     0
  3
Solid line
 72
    65
 73
     0
 40
0.0
  0
ENDTAB
  0
TABLE
  2
LAYER
  5
2
330
0
100
AcDbSymbolTable
 70
     6
  0
LAYER
  5
54
330
2
100
AcDbSymbolTableRecord
100
AcDbLayerTableRecord
  2
0
 70
     0
 62
     7
  6
Continuous
370
    -3
390
F
347
21
348
0
  0
LAYER
  5
7A
330
2
100
AcDbSymbolTableRecord
100
AcDbLayerTableRecord
  2
jennie v3_Sketch1
 70
     0
 62
     7
  6
Continuous
370
    -3
390
F
347
21
348
0
1001
NFusion_SketchTransform
1000
1.000000;0.000000;0.000000;0.000000;0.000000;1.000000;0.000000;0.000000;0.000000;0.000000;1.000000;0.000000;0.000000;0.000000;0.000000;1.000000
  0
LAYER
  5
7C
330
2
100
AcDbSymbolTableRecord
100
AcDbLayerTableRecord
  2
jennie v3_Sketch2
 70
     0
 62
     7
  6
Continuous
370
    -3
390
F
347
21
348
0
1001
NFusion_SketchTransform
1000
1.000000;0.000000;0.000000;0.000000;0.000000;1.000000;0.000000;0.000000;0.000000;0.000000;1.000000;0.000000;0.000000;0.000000;0.000000;1.000000
  0
LAYER
  5
80
330
2
100
AcDbSymbolTableRecord
100
AcDbLayerTableRecord
  2
jennie v3_Sketch3
 70
     0
 62
     7
  6
Continuous
370
    -3
390
F
347
21
348
0
1001
NFusion_SketchTransform
1000
1.000000;0.000000;0.000000;0.000000;0.000000;1.000000;0.000000;0.000000;0.000000;0.000000;1.000000;0.000000;0.000000;0.000000;0.000000;1.000000
  0
LAYER
  5
8C
330
2
100
AcDbSymbolTableRecord
100
AcDbLayerTableRecord
  2
jennie v3_Sketch4
 70
     0
 62
     7
  6
Continuous
370
    -3
390
F
347
21
348
0
1001
NFusion_SketchTransform
1000
1.000000;0.000000;0.000000;0.000000;0.000000;1.000000;0.000000;0.000000;0.000000;0.000000;1.000000;0.000000;0.000000;0.000000;0.000000;1.000000
  0
LAYER
  5
91
330
2
100
AcDbSymbolTableRecord
100
AcDbLayerTableRecord
  2
jennie v3_Sketch5
 70
     0
 62
     7
  6
Continuous
370
    -3
390
F
347
21
348
0
1001
NFusion_SketchTransform
1000
1.000000;0.000000;0.000000;0.000000;0.000000;1.000000;0.000000;0.000000;0.000000;0.000000;1.000000;0.000000;0.000000;0.000000;0.000000;1.000000
  0
ENDTAB
  0
TABLE
  2
STYLE
  5
3
330
0
100
AcDbSymbolTable
 70
     2
  0
STYLE
  5
55
330
3
100
AcDbSymbolTableRecord
100
AcDbTextStyleTableRecord
  2
Standard
 70
     0
 40
0.0
 41
1.0
 50
0.0
 71
     0
 42
0.2
  3
txt
  4

  0
STYLE
  5
5A
330
3
100
AcDbSymbolTableRecord
100
AcDbTextStyleTableRecord
  2
Annotative
 70
     0
 40
0.0
 41
1.0
 50
0.0
 71
     0
 42
0.2
  3
txt
  4

1001
AcadAnnotative
1000
AnnotativeData
1002
{
1070
     1
1070
     1
1002
}
  0
ENDTAB
  0
TABLE
  2
VIEW
  5
6
330
0
100
AcDbSymbolTable
 70
     0
  0
ENDTAB
  0
TABLE
  2
UCS
  5
7
330
0
100
AcDbSymbolTable
 70
     0
  0
ENDTAB
  0
TABLE
  2
APPID
  5
9
330
0
100
AcDbSymbolTable
 70
     4
  0
APPID
  5
56
330
9
100
AcDbSymbolTableRecord
100
AcDbRegAppTableRecord
  2
ACAD
 70
     0
  0
APPID
  5
5E
330
9
100
AcDbSymbolTableRecord
100
AcDbRegAppTableRecord
  2
AcadAnnotative
 70
     0
  0
APPID
  5
78
330
9
100
AcDbSymbolTableRecord
100
AcDbRegAppTableRecord
  2
EDIT_IN_FUSION_ACAD_ADDIN
 70
     0
  0
APPID
  5
79
330
9
100
AcDbSymbolTableRecord
100
AcDbRegAppTableRecord
  2
NFusion_SketchTransform
 70
     0
  0
ENDTAB
  0
TABLE
  2
DIMSTYLE
  5
A
330
0
100
AcDbSymbolTable
 70
     2
100
AcDbDimStyleTable
 71
     0
  0
DIMSTYLE
105
58
330
A
100
AcDbSymbolTableRecord
100
AcDbDimStyleTableRecord
  2
Standard
 70
     0
340
55
  0
DIMSTYLE
105
59
330
A
100
AcDbSymbolTableRecord
100
AcDbDimStyleTableRecord
  2
Annotative
 70
     0
340
55
1001
AcadAnnotative
1000
AnnotativeData
1002
{
1070
     1
1070
     1
1002
}
  0
ENDTAB
  0
TABLE
  2
BLOCK_RECORD
  5
1
330
0
100
AcDbSymbolTable
 70
     1
  0
BLOCK_RECORD
  5
70
330
1
100
AcDbSymbolTableRecord
100
AcDbBlockTableRecord
  2
*Model_Space
340
73
 70
     0
280
     1
281
     0
  0
BLOCK_RECORD
  5
6C
330
1
100
AcDbSymbolTableRecord
100
AcDbBlockTableRecord
  2
*Paper_Space
340
6F
 70
     0
280
     1
281
     0
  0
BLOCK_RECORD
  5
74
330
1
100
AcDbSymbolTableRecord
100
AcDbBlockTableRecord
  2
*Paper_Space0
340
77
 70
     0
280
     1
281
     0
  0
ENDTAB
  0
ENDSEC
  0
SECTION
  2
BLOCKS
  0
BLOCK
  5
71
330
70
100
AcDbEntity
  8
0
100
AcDbBlockBegin
  2
*Model_Space
 70
     0
 10
0.0
 20
0.0
 30
0.0
  3
*Model_Space
  1

  0
ENDBLK
  5
72
330
70
100
AcDbEntity
  8
0
100
AcDbBlockEnd
  0
BLOCK
  5
6D
330
6C
100
AcDbEntity
 67
     1
  8
0
100
AcDbBlockBegin
  2
*Paper_Space
 70
     0
 10
0.0
 20
0.0
 30
0.0
  3
*Paper_Space
  1

  0
ENDBLK
  5
6E
330
6C
100
AcDbEntity
 67
     1
  8
0
100
AcDbBlockEnd
  0
BLOCK
  5
75
330
74
100
AcDbEntity
 67
     1
  8
0
100
AcDbBlockBegin
  2
*Paper_Space0
 70
     0
 10
0.0
 20
0.0
 30
0.0
  3
*Paper_Space0
  1

  0
ENDBLK
  5
76
330
74
100
AcDbEntity
 67
     1
  8
0
100
AcDbBlockEnd
  0
ENDSEC
  0
SECTION
  2
ENTITIES
  0
POINT
  5
7B
330
70
100
AcDbEntity
  8
jennie v3_Sketch1
100
AcDbPoint
 10
0.0
 20
0.0
 30
0.0
  0
POINT
  5
7D
330
70
100
AcDbEntity
  8
jennie v3_Sketch2
100
AcDbPoint
 10
0.0
 20
0.0
 30
0.0
  0
SPLINE
  5
7E
330
70
100
AcDbEntity
  8
jennie v3_Sketch2
100
AcDbSpline
210
0.0
220
0.0
230
1.0
 70
    12
 71
     5
 72
    36
 73
    30
 74
     0
 42
0.000000001
 43
0.0000000001
 40
0.0
 40
0.0
 40
0.0
 40
0.0
 40
0.0
 40
0.0
 40
0.04
 40
0.08
 40
0.12
 40
0.16
 40
0.2
 40
0.24
 40
0.28
 40
0.32
 40
0.36
 40
0.4
 40
0.44
 40
0.4799999999999999
 40
0.52
 40
0.56
 40
0.6
 40
0.6400000000000001
 40
0.6800000000000001
 40
0.7200000000000001
 40
0.7600000000000002
 40
0.8000000000000001
 40
0.8400000000000002
 40
0.8800000000000002
 40
0.9200000000000002
 40
0.9600000000000003
 40
1.0
 40
1.0
 40
1.0
 40
1.0
 40
1.0
 40
1.0
 10
-4.494540015015055
 20
3.413324382181781
 30
0.0
 41
1.0
 10
-4.412866385667885
 20
3.511575864419579
 30
0.0
 41
1.0
 10
-4.249436197325139
 20
3.697063193517256
 30
0.0
 41
1.0
 10
-4.004042050757562
 20
3.942247220302991
 30
0.0
 41
1.0
 10
-3.676351464571567
 20
4.202893411099818
 30
0.0
 41
1.0
 10
-3.266507056358348
 20
4.417899295310671
 30
0.0
 41
1.0
 10
-2.858260007737606
 20
4.522802774864116
 30
0.0
 41
1.0
 10
-2.455270335829101
 20
4.520352201354444
 30
0.0
 41
1.0
 10
-2.063724968047872
 20
4.416478227914307
 30
0.0
 41
1.0
 10
-1.692832630928934
 20
4.221232333113732
 30
0.0
 41
1.0
 10
-1.353417877244891
 20
3.947479218132842
 30
0.0
 41
1.0
 10
-1.05664116888046
 20
3.609821369704207
 30
0.0
 41
1.0
 10
-0.8127492567161391
 20
3.223519373049336
 30
0.0
 41
1.0
 10
-0.6295783790024201
 20
2.803390075546352
 30
0.0
 41
1.0
 10
-0.5124222720187576
 20
2.363142817173945
 30
0.0
 41
1.0
 10
-0.4643509691577657
 20
1.914868691741965
 30
0.0
 41
1.0
 10
-0.4863342110979262
 20
1.468485477479653
 30
0.0
 41
1.0
 10
-0.5773806237994663
 20
1.031156814621923
 30
0.0
 41
1.0
 10
-0.7346479371772739
 20
0.6067715675624675
 30
0.0
 41
1.0
 10
-0.9540867207462378
 20
0.1967773098337468
 30
0.0
 41
1.0
 10
-1.23102559607291
 20
-0.1990767585163051
 30
0.0
 41
1.0
 10
-1.560726003579425
 20
-0.5820100268275361
 30
0.0
 41
1.0
 10
-1.938959190645431
 20
-0.9534457402007733
 30
0.0
 41
1.0
 10
-2.362434343616991
 20
-1.314421654675929
 30
0.0
 41
1.0
 10
-2.828661081075961
 20
-1.665706952106568
 30
0.0
 41
1.0
 10
-3.335887047888441
 20
-2.007814625584754
 30
0.0
 41
1.0
 10
-3.773573311067498
 20
-2.274408075830313
 30
0.0
 41
1.0
 10
-4.119524059816336
 20
-2.470430587736914
 30
0.0
 41
1.0
 10
-4.357997842698362
 20
-2.599373486658254
 30
0.0
 41
1.0
 10
-4.479194725567698
 20
-2.663410238973735
 30
0.0
 41
1.0
  0
SPLINE
  5
7F
330
70
100
AcDbEntity
  8
jennie v3_Sketch2
100
AcDbSpline
210
0.0
220
0.0
230
1.0
 70
    12
 71
     5
 72
    36
 73
    30
 74
     0
 42
0.000000001
 43
0.0000000001
 40
0.0
 40
0.0
 40
0.0
 40
0.0
 40
0.0
 40
0.0
 40
0.04
 40
0.08
 40
0.12
 40
0.16
 40
0.2
 40
0.24
 40
0.28
 40
0.32
 40
0.36
 40
0.4
 40
0.44
 40
0.4799999999999999
 40
0.52
 40
0.56
 40
0.6
 40
0.6400000000000001
 40
0.6800000000000001
 40
0.7200000000000001
 40
0.7600000000000002
 40
0.8000000000000001
 40
0.8400000000000002
 40
0.8800000000000002
 40
0.9200000000000002
 40
0.9600000000000003
 40
1.0
 40
1.0
 40
1.0
 40
1.0
 40
1.0
 40
1.0
 10
-4.479194725567698
 20
-2.663410238973735
 30
0.0
 41
1.0
 10
-4.602183439598804
 20
-2.599826404754661
 30
0.0
 41
1.0
 10
-4.844133782799876
 20
-2.471752557147353
 30
0.0
 41
1.0
 10
-5.194978066136016
 20
-2.276923268479384
 30
0.0
 41
1.0
 10
-5.638544752685436
 20
-2.011699491423285
 30
0.0
 41
1.0
 10
-6.152044236982082
 20
-1.670933982273345
 30
0.0
 41
1.0
 10
-6.623475044609636
 20
-1.320623347920113
 30
0.0
 41
1.0
 10
-7.051113278394599
 20
-0.9602642682014145
 30
0.0
 41
1.0
 10
-7.432528681429372
 20
-0.5891075239187839
 30
0.0
 41
1.0
 10
-7.764533252777129
 20
-0.2061507909130558
 30
0.0
 41
1.0
 10
-8.04305655622821
 20
0.1899774118992673
 30
0.0
 41
1.0
 10
-8.263544599832201
 20
0.6004441612554926
 30
0.0
 41
1.0
 10
-8.421512446782619
 20
1.025447822565364
 30
0.0
 41
1.0
 10
-8.513074032990246
 20
1.463491577701482
 30
0.0
 41
1.0
 10
-8.535502041066608
 20
1.910646224857008
 30
0.0
 41
1.0
 10
-8.487847684472681
 20
2.359711863863855
 30
0.0
 41
1.0
 10
-8.371071109824772
 20
2.800730180764054
 30
0.0
 41
1.0
 10
-8.188196940063761
 20
3.22157366910745
 30
0.0
 41
1.0
 10
-7.944455117651207
 20
3.608502668809521
 30
0.0
 41
1.0
 10
-7.647616063198818
 20
3.946682115045522
 30
0.0
 41
1.0
 10
-7.307877853607259
 20
4.220845476381517
 30
0.0
 41
1.0
 10
-6.93636503964619
 20
4.416393063330001
 30
0.0
 41
1.0
 10
-6.543876779558546
 20
4.520469041745668
 30
0.0
 41
1.0
 10
-6.139603011054093
 20
4.523035405879767
 30
0.0
 41
1.0
 10
-5.729718408989175
 20
4.418174035473546
 30
0.0
 41
1.0
 10
-5.317878837497298
 20
4.203143575194393
 30
0.0
 41
1.0
 10
-4.988305919549597
 20
3.942427737612279
 30
0.0
 41
1.0
 10
-4.74133991134622
 20
3.697164074547991
 30
0.0
 41
1.0
 10
-4.576790833927348
 20
3.511611514970783
 30
0.0
 41
1.0
 10
-4.494540015015055
 20
3.413324382181781
 30
0.0
 41
1.0
  0
POINT
  5
81
330
70
100
AcDbEntity
  8
jennie v3_Sketch3
100
AcDbPoint
 10
-6.692955965962375
 20
3.266227438020308
 30
0.0
  0
POINT
  5
82
330
70
100
AcDbEntity
  8
jennie v3_Sketch3
100
AcDbPoint
 10
0.0
 20
0.0
 30
0.0
  0
POINT
  5
83
330
70
100
AcDbEntity
  8
jennie v3_Sketch3
100
AcDbPoint
 10
-5.66021957945728
 20
3.382936736834623
 30
0.0
  0
POINT
  5
84
330
70
100
AcDbEntity
  8
jennie v3_Sketch3
100
AcDbPoint
 10
-6.652175836896521
 20
2.905372531337307
 30
0.0
  0
POINT
  5
85
330
70
100
AcDbEntity
  8
jennie v3_Sketch3
100
AcDbPoint
 10
-6.733736095028228
 20
3.62708234470331
 30
0.0
  0
LINE
  5
86
330
70
100
AcDbEntity
  8
jennie v3_Sketch3
100
AcDbLine
 10
-5.700999708523133
 20
3.743791643517625
 30
0.0
 11
-7.766472481533322
 21
3.510373045888995
 31
0.0
  0
SPLINE
  5
87
330
70
100
AcDbEntity
  8
jennie v3_Sketch3
100
AcDbSpline
210
0.0
220
0.0
230
1.0
 70
    12
 71
     5
 72
   371
 73
   365
 74
     0
 42
0.000000001
 43
0.0000000001
 40
0.0
 40
0.0
 40
0.0
 40
0.0
 40
0.0
 40
0.0
 40
0.0027777777777778
 40
0.0055555555555556
 40
0.0083333333333333
 40
0.0111111111111111
 40
0.0138888888888889
 40
0.0166666666666667
 40
0.0194444444444445
 40
0.0222222222222222
 40
0.025
 40
0.0277777777777778
 40
0.0305555555555556
 40
0.0333333333333333
 40
0.0361111111111111
 40
0.0388888888888889
 40
0.0416666666666667
 40
0.0444444444444444
 40
0.0472222222222222
 40
0.05
 40
0.0527777777777778
 40
0.0555555555555555
 40
0.0583333333333333
 40
0.0611111111111111
 40
0.0638888888888889
 40
0.0666666666666667
 40
0.0694444444444444
 40
0.0722222222222222
 40
0.075
 40
0.0777777777777778
 40
0.0805555555555556
 40
0.0833333333333333
 40
0.0861111111111111
 40
0.0888888888888889
 40
0.0916666666666667
 40
0.0944444444444445
 40
0.0972222222222223
 40
0.1
 40
0.1027777777777778
 40
0.1055555555555556
 40
0.1083333333333334
 40
0.1111111111111111
 40
0.1138888888888889
 40
0.1166666666666667
 40
0.1194444444444445
 40
0.1222222222222223
 40
0.125
 40
0.1277777777777778
 40
0.1305555555555556
 40
0.1333333333333333
 40
0.1361111111111111
 40
0.1388888888888889
 40
0.1416666666666666
 40
0.1444444444444444
 40
0.1472222222222222
 40
0.15
 40
0.1527777777777777
 40
0.1555555555555555
 40
0.1583333333333333
 40
0.161111111111111
 40
0.1638888888888888
 40
0.1666666666666666
 40
0.1694444444444443
 40
0.1722222222222221
 40
0.1749999999999999
 40
0.1777777777777776
 40
0.1805555555555554
 40
0.1833333333333332
 40
0.1861111111111109
 40
0.1888888888888887
 40
0.1916666666666665
 40
0.1944444444444442
 40
0.197222222222222
 40
0.1999999999999998
 40
0.2027777777777775
 40
0.2055555555555553
 40
0.2083333333333331
 40
0.2111111111111108
 40
0.2138888888888886
 40
0.2166666666666664
 40
0.2194444444444441
 40
0.2222222222222219
 40
0.2249999999999997
 40
0.2277777777777775
 40
0.2305555555555552
 40
0.233333333333333
 40
0.2361111111111108
 40
0.2388888888888885
 40
0.2416666666666663
 40
0.2444444444444441
 40
0.2472222222222218
 40
0.2499999999999996
 40
0.2527777777777774
 40
0.2555555555555551
 40
0.2583333333333329
 40
0.2611111111111107
 40
0.2638888888888884
 40
0.2666666666666662
 40
0.269444444444444
 40
0.2722222222222217
 40
0.2749999999999995
 40
0.2777777777777773
 40
0.280555555555555
 40
0.2833333333333328
 40
0.2861111111111106
 40
0.2888888888888883
 40
0.2916666666666661
 40
0.2944444444444439
 40
0.2972222222222216
 40
0.2999999999999994
 40
0.3027777777777772
 40
0.305555555555555
 40
0.3083333333333327
 40
0.3111111111111105
 40
0.3138888888888883
 40
0.316666666666666
 40
0.3194444444444438
 40
0.3222222222222216
 40
0.3249999999999993
 40
0.3277777777777771
 40
0.3305555555555549
 40
0.3333333333333326
 40
0.3361111111111104
 40
0.3388888888888882
 40
0.3416666666666659
 40
0.3444444444444437
 40
0.3472222222222215
 40
0.3499999999999992
 40
0.352777777777777
 40
0.3555555555555548
 40
0.3583333333333325
 40
0.3611111111111103
 40
0.3638888888888881
 40
0.3666666666666658
 40
0.3694444444444436
 40
0.3722222222222214
 40
0.3749999999999992
 40
0.3777777777777769
 40
0.3805555555555547
 40
0.3833333333333325
 40
0.3861111111111102
 40
0.388888888888888
 40
0.3916666666666658
 40
0.3944444444444435
 40
0.3972222222222213
 40
0.3999999999999991
 40
0.4027777777777769
 40
0.4055555555555547
 40
0.4083333333333325
 40
0.4111111111111102
 40
0.413888888888888
 40
0.4166666666666658
 40
0.4194444444444435
 40
0.4222222222222213
 40
0.4249999999999991
 40
0.4277777777777768
 40
0.4305555555555546
 40
0.4333333333333324
 40
0.4361111111111101
 40
0.4388888888888879
 40
0.4416666666666657
 40
0.4444444444444434
 40
0.4472222222222212
 40
0.449999999999999
 40
0.4527777777777767
 40
0.4555555555555545
 40
0.4583333333333323
 40
0.46111111111111
 40
0.4638888888888878
 40
0.4666666666666656
 40
0.4694444444444433
 40
0.4722222222222211
 40
0.4749999999999989
 40
0.4777777777777767
 40
0.4805555555555544
 40
0.4833333333333322
 40
0.48611111111111
 40
0.4888888888888877
 40
0.4916666666666655
 40
0.4944444444444433
 40
0.497222222222221
 40
0.4999999999999988
 40
0.5027777777777766
 40
0.5055555555555543
 40
0.5083333333333321
 40
0.5111111111111099
 40
0.5138888888888876
 40
0.5166666666666654
 40
0.5194444444444432
 40
0.5222222222222209
 40
0.5249999999999987
 40
0.5277777777777765
 40
0.5305555555555542
 40
0.533333333333332
 40
0.5361111111111098
 40
0.5388888888888875
 40
0.5416666666666653
 40
0.5444444444444431
 40
0.5472222222222208
 40
0.5499999999999986
 40
0.5527777777777764
 40
0.5555555555555542
 40
0.5583333333333319
 40
0.5611111111111097
 40
0.5638888888888875
 40
0.5666666666666652
 40
0.569444444444443
 40
0.5722222222222208
 40
0.5749999999999985
 40
0.5777777777777763
 40
0.5805555555555541
 40
0.5833333333333318
 40
0.5861111111111096
 40
0.5888888888888874
 40
0.5916666666666651
 40
0.5944444444444429
 40
0.5972222222222207
 40
0.5999999999999984
 40
0.6027777777777762
 40
0.605555555555554
 40
0.6083333333333317
 40
0.6111111111111095
 40
0.6138888888888873
 40
0.616666666666665
 40
0.6194444444444428
 40
0.6222222222222206
 40
0.6249999999999984
 40
0.6277777777777761
 40
0.6305555555555539
 40
0.6333333333333317
 40
0.6361111111111094
 40
0.6388888888888872
 40
0.641666666666665
 40
0.6444444444444427
 40
0.6472222222222205
 40
0.6499999999999983
 40
0.652777777777776
 40
0.6555555555555538
 40
0.6583333333333316
 40
0.6611111111111093
 40
0.6638888888888871
 40
0.6666666666666649
 40
0.6694444444444426
 40
0.6722222222222204
 40
0.6749999999999982
 40
0.6777777777777759
 40
0.6805555555555537
 40
0.6833333333333315
 40
0.6861111111111092
 40
0.688888888888887
 40
0.6916666666666648
 40
0.6944444444444425
 40
0.6972222222222203
 40
0.6999999999999981
 40
0.7027777777777759
 40
0.7055555555555536
 40
0.7083333333333314
 40
0.7111111111111092
 40
0.7138888888888869
 40
0.7166666666666647
 40
0.7194444444444425
 40
0.7222222222222202
 40
0.724999999999998
 40
0.7277777777777758
 40
0.7305555555555535
 40
0.7333333333333313
 40
0.7361111111111091
 40
0.7388888888888868
 40
0.7416666666666646
 40
0.7444444444444424
 40
0.7472222222222201
 40
0.7499999999999979
 40
0.7527777777777757
 40
0.7555555555555534
 40
0.7583333333333312
 40
0.761111111111109
 40
0.7638888888888867
 40
0.7666666666666645
 40
0.7694444444444423
 40
0.7722222222222201
 40
0.7749999999999978
 40
0.7777777777777756
 40
0.7805555555555534
 40
0.7833333333333311
 40
0.7861111111111089
 40
0.7888888888888867
 40
0.7916666666666644
 40
0.7944444444444422
 40
0.79722222222222
 40
0.7999999999999977
 40
0.8027777777777755
 40
0.8055555555555532
 40
0.808333333333331
 40
0.8111111111111087
 40
0.8138888888888866
 40
0.8166666666666642
 40
0.8194444444444421
 40
0.8222222222222198
 40
0.8249999999999976
 40
0.8277777777777753
 40
0.8305555555555532
 40
0.8333333333333309
 40
0.8361111111111087
 40
0.8388888888888864
 40
0.8416666666666642
 40
0.8444444444444419
 40
0.8472222222222198
 40
0.8499999999999975
 40
0.8527777777777753
 40
0.855555555555553
 40
0.8583333333333309
 40
0.8611111111111085
 40
0.8638888888888864
 40
0.8666666666666641
 40
0.8694444444444419
 40
0.8722222222222196
 40
0.8749999999999975
 40
0.8777777777777751
 40
0.880555555555553
 40
0.8833333333333307
 40
0.8861111111111085
 40
0.8888888888888862
 40
0.8916666666666641
 40
0.8944444444444417
 40
0.8972222222222196
 40
0.8999999999999973
 40
0.9027777777777751
 40
0.9055555555555528
 40
0.9083333333333307
 40
0.9111111111111084
 40
0.9138888888888862
 40
0.9166666666666639
 40
0.9194444444444417
 40
0.9222222222222194
 40
0.9249999999999973
 40
0.927777777777775
 40
0.9305555555555528
 40
0.9333333333333305
 40
0.9361111111111084
 40
0.938888888888886
 40
0.9416666666666639
 40
0.9444444444444416
 40
0.9472222222222194
 40
0.9499999999999971
 40
0.952777777777775
 40
0.9555555555555526
 40
0.9583333333333305
 40
0.9611111111111082
 40
0.963888888888886
 40
0.9666666666666637
 40
0.9694444444444416
 40
0.9722222222222193
 40
0.9749999999999971
 40
0.9777777777777748
 40
0.9805555555555526
 40
0.9833333333333303
 40
0.9861111111111082
 40
0.9888888888888859
 40
0.9916666666666637
 40
0.9944444444444414
 40
0.9972222222222193
 40
1.0
 40
1.0
 40
1.0
 40
1.0
 40
1.0
 40
1.0
 10
-3.500000052154063
 20
-1.500000022351741
 30
0.0
 41
1.0
 10
-3.497918839843245
 20
-1.502099142923393
 30
0.0
 41
1.0
 10
-3.493653944646773
 20
-1.506560285003183
 30
0.0
 41
1.0
 10
-3.486949144694984
 20
-1.514040733241458
 30
0.0
 41
1.0
 10
-3.477394883315668
 20
-1.525591874135244
 30
0.0
 41
1.0
 10
-3.464519579599568
 20
-1.542597186122863
 30
0.0
 41
1.0
 10
-3.450994431838397
 20
-1.561976569930563
 30
0.0
 41
1.0
 10
-3.437371766596223
 20
-1.583354490543815
 30
0.0
 41
1.0
 10
-3.424602570904021
 20
-1.606083347715696
 30
0.0
 41
1.0
 10
-3.413963194619157
 20
-1.629297394644905
 30
0.0
 41
1.0
 10
-3.406840040603226
 20
-1.652063175750305
 30
0.0
 41
1.0
 10
-3.404551280071534
 20
-1.673510683858397
 30
0.0
 41
1.0
 10
-3.408163555513122
 20
-1.692952548807584
 30
0.0
 41
1.0
 10
-3.418285497621558
 20
-1.710057397152889
 30
0.0
 41
1.0
 10
-3.434978863189863
 20
-1.724796472423466
 30
0.0
 41
1.0
 10
-3.457778224339941
 20
-1.737209959772914
 30
0.0
 41
1.0
 10
-3.485669459517656
 20
-1.74720817631238
 30
0.0
 41
1.0
 10
-3.517107387892542
 20
-1.754394629394899
 30
0.0
 41
1.0
 10
-3.549961622024321
 20
-1.75779023666361
 30
0.0
 41
1.0
 10
-3.581729416651216
 20
-1.755983787291323
 30
0.0
 41
1.0
 10
-3.609965307569138
 20
-1.747635944189588
 30
0.0
 41
1.0
 10
-3.632636907001102
 20
-1.731865644970368
 30
0.0
 41
1.0
 10
-3.648536675741334
 20
-1.708719446312422
 30
0.0
 41
1.0
 10
-3.657610184716168
 20
-1.679524990805545
 30
0.0
 41
1.0
 10
-3.661473020440546
 20
-1.647500259535325
 30
0.0
 41
1.0
 10
-3.662922287499233
 20
-1.617011332410807
 30
0.0
 41
1.0
 10
-3.665121321473027
 20
-1.592401352626736
 30
0.0
 41
1.0
 10
-3.670844941461642
 20
-1.576880011420285
 30
0.0
 41
1.0
 10
-3.681803994359417
 20
-1.571567074182492
 30
0.0
 41
1.0
 10
-3.697679056298828
 20
-1.574029250833174
 30
0.0
 41
1.0
 10
-3.716283304168937
 20
-1.578759332452423
 30
0.0
 41
1.0
 10
-3.735007494012215
 20
-1.579867779520141
 30
0.0
 41
1.0
 10
-3.751839507838717
 20
-1.573023511261174
 30
0.0
 41
1.0
 10
-3.766762784921109
 20
-1.558096651718965
 30
0.0
 41
1.0
 10
-3.781217633969156
 20
-1.53808119434918
 30
0.0
 41
1.0
 10
-3.797225734555312
 20
-1.517364251832009
 30
0.0
 41
1.0
 10
-3.816608935450132
 20
-1.500177775993304
 30
0.0
 41
1.0
 10
-3.840214439520891
 20
-1.489064986771342
 30
0.0
 41
1.0
 10
-3.867015819225395
 20
-1.483099512732881
 30
0.0
 41
1.0
 10
-3.894710082488874
 20
-1.479058678493318
 30
0.0
 41
1.0
 10
-3.920491846338584
 20
-1.472935245317798
 30
0.0
 41
1.0
 10
-3.941799682216223
 20
-1.461418991300912
 30
0.0
 41
1.0
 10
-3.95699455284203
 20
-1.443186853411364
 30
0.0
 41
1.0
 10
-3.966261528333935
 20
-1.420773958965234
 30
0.0
 41
1.0
 10
-3.971716967762821
 20
-1.400375171837407
 30
0.0
 41
1.0
 10
-3.976293529967113
 20
-1.388254174393027
 30
0.0
 41
1.0
 10
-3.982977206534449
 20
-1.388396415722416
 30
0.0
 41
1.0
 10
-3.993769020609389
 20
-1.39867531474778
 30
0.0
 41
1.0
 10
-4.009335145267333
 20
-1.411880580405165
 30
0.0
 41
1.0
 10
-4.029116101852041
 20
-1.42027835990455
 30
0.0
 41
1.0
 10
-4.051308891284647
 20
-1.419129638872095
 30
0.0
 41
1.0
 10
-4.072892652029449
 20
-1.410700306215302
 30
0.0
 41
1.0
 10
-4.090587997229272
 20
-1.401153195710094
 30
0.0
 41
1.0
 10
-4.101838398492066
 20
-1.39743802343302
 30
0.0
 41
1.0
 10
-4.105779955224795
 20
-1.404180978424448
 30
0.0
 41
1.0
 10
-4.104221556606325
 20
-1.420569565213038
 30
0.0
 41
1.0
 10
-4.100462058657145
 20
-1.442552755865586
 30
0.0
 41
1.0
 10
-4.09819935015992
 20
-1.464870769060653
 30
0.0
 41
1.0
 10
-4.100228659287192
 20
-1.483468026287087
 30
0.0
 41
1.0
 10
-4.108125570943053
 20
-1.496119729725465
 30
0.0
 41
1.0
 10
-4.122424756811425
 20
-1.502154940216662
 30
0.0
 41
1.0
 10
-4.142624467428397
 20
-1.502505109858223
 30
0.0
 41
1.0
 10
-4.167316636714012
 20
-1.499497453941521
 30
0.0
 41
1.0
 10
-4.194570360971116
 20
-1.49606450599871
 30
0.0
 41
1.0
 10
-4.222285105983248
 20
-1.49502797230715
 30
0.0
 41
1.0
 10
-4.248560934880296
 20
-1.498339898107563
 30
0.0
 41
1.0
 10
-4.272048238017652
 20
-1.506375867372506
 30
0.0
 41
1.0
 10
-4.292342234756719
 20
-1.517113647194741
 30
0.0
 41
1.0
 10
-4.309742981462958
 20
-1.526962464271956
 30
0.0
 41
1.0
 10
-4.324950615075281
 20
-1.531772215883241
 30
0.0
 41
1.0
 10
-4.338803485648302
 20
-1.527705281145626
 30
0.0
 41
1.0
 10
-4.35195059143543
 20
-1.512342958323999
 30
0.0
 41
1.0
 10
-4.364769357258876
 20
-1.484885591499175
 30
0.0
 41
1.0
 10
-4.377441002184493
 20
-1.445766315010616
 30
0.0
 41
1.0
 10
-4.389978985021247
 20
-1.396439683769121
 30
0.0
 41
1.0
 10
-4.40227686279524
 20
-1.33909787215968
 30
0.0
 41
1.0
 10
-4.414147681501963
 20
-1.276418682652117
 30
0.0
 41
1.0
 10
-4.425367326702293
 20
-1.211298239497607
 30
0.0
 41
1.0
 10
-4.435715422349913
 20
-1.146594135453625
 30
0.0
 41
1.0
 10
-4.445019013871272
 20
-1.084855150517443
 30
0.0
 41
1.0
 10
-4.453191019152725
 20
-1.028077578719164
 30
0.0
 41
1.0
 10
-4.460280759641626
 20
-0.9773993436783671
 30
0.0
 41
1.0
 10
-4.466485371471629
 20
-0.9329960110611203
 30
0.0
 41
1.0
 10
-4.472093603566005
 20
-0.8943254901391506
 30
0.0
 41
1.0
 10
-4.477445081378974
 20
-0.8602934703018252
 30
0.0
 41
1.0
 10
-4.482882981311495
 20
-0.8294515401102188
 30
0.0
 41
1.0
 10
-4.488710387540475
 20
-0.8001793447348953
 30
0.0
 41
1.0
 10
-4.495143057192965
 20
-0.7708781638055521
 30
0.0
 41
1.0
 10
-4.502268406017478
 20
-0.740148923445206
 30
0.0
 41
1.0
 10
-4.509990472056542
 20
-0.7070027229412009
 30
0.0
 41
1.0
 10
-4.5180186498466
 20
-0.6709714340801627
 30
0.0
 41
1.0
 10
-4.525947772075457
 20
-0.6320098772314284
 30
0.0
 41
1.0
 10
-4.533319372173093
 20
-0.5904415146947973
 30
0.0
 41
1.0
 10
-4.539689964781008
 20
-0.546886652964062
 30
0.0
 41
1.0
 10
-4.544697455541268
 20
-0.5021984473636132
 30
0.0
 41
1.0
 10
-4.548125744067292
 20
-0.4573948373175958
 30
0.0
 41
1.0
 10
-4.549976189687003
 20
-0.4135939314805331
 30
0.0
 41
1.0
 10
-4.550521881973646
 20
-0.3719439545068304
 30
0.0
 41
1.0
 10
-4.550405559782418
 20
-0.3335656509083503
 30
0.0
 41
1.0
 10
-4.550528143684125
 20
-0.2994346789210946
 30
0.0
 41
1.0
 10
-4.551831573584726
 20
-0.2702298648731658
 30
0.0
 41
1.0
 10
-4.555121395510348
 20
-0.2462006065470894
 30
0.0
 41
1.0
 10
-4.560858604148721
 20
-0.2270077303037214
 30
0.0
 41
1.0
 10
-4.568997652025806
 20
-0.2116187743430215
 30
0.0
 41
1.0
 10
-4.578723732850442
 20
-0.1980742211622903
 30
0.0
 41
1.0
 10
-4.588528722327429
 20
-0.1836968763994514
 30
0.0
 41
1.0
 10
-4.596795213506726
 20
-0.1659833152714484
 30
0.0
 41
1.0
 10
-4.60221558452243
 20
-0.1432554564156964
 30
0.0
 41
1.0
 10
-4.604370120803125
 20
-0.1155741602321763
 30
0.0
 41
1.0
 10
-4.603932832068896
 20
-0.0849968351251569
 30
0.0
 41
1.0
 10
-4.602120681880128
 20
-0.0544756044689006
 30
0.0
 41
1.0
 10
-4.600315959996743
 20
-0.0270705707619757
 30
0.0
 41
1.0
 10
-4.599580962839456
 20
-0.0049614426634223
 30
0.0
 41
1.0
 10
-4.600308030391937
 20
0.0112792029232029
 30
0.0
 41
1.0
 10
-4.601586759689209
 20
0.0239667007676524
 30
0.0
 41
1.0
 10
-4.60178669153454
 20
0.0371869963003971
 30
0.0
 41
1.0
 10
-4.599644857598818
 20
0.0546526911751659
 30
0.0
 41
1.0
 10
-4.595407705298904
 20
0.0775122404119577
 30
0.0
 41
1.0
 10
-4.591297993952121
 20
0.1033098262007566
 30
0.0
 41
1.0
 10
-4.590247710942808
 20
0.1279714135658855
 30
0.0
 41
1.0
 10
-4.594924407168877
 20
0.1472636744140965
 30
0.0
 41
1.0
 10
-4.606765973101463
 20
0.1582722317091413
 30
0.0
 41
1.0
 10
-4.624697752129311
 20
0.1613503232470408
 30
0.0
 41
1.0
 10
-4.645590900593501
 20
0.1594030580101062
 30
0.0
 41
1.0
 10
-4.665713621683598
 20
0.1555992618564671
 30
0.0
 41
1.0
 10
-4.681772747069362
 20
0.1518060623790361
 30
0.0
 41
1.0
 10
-4.69236718854106
 20
0.1461616708748601
 30
0.0
 41
1.0
 10
-4.697718774616525
 20
0.1345505634864399
 30
0.0
 41
1.0
 10
-4.69892827145058
 20
0.1130747142914902
 30
0.0
 41
1.0
 10
-4.697320171858719
 20
0.080560459598718
 30
0.0
 41
1.0
 10
-4.694234275365807
 20
0.0384209521522941
 30
0.0
 41
1.0
 10
-4.69097524471315
 20
-0.0102520012163303
 30
0.0
 41
1.0
 10
-4.688706629456993
 20
-0.0613236588812968
 30
0.0
 41
1.0
 10
-4.68836632200661
 20
-0.1103754572750846
 30
0.0
 41
1.0
 10
-4.690577384095603
 20
-0.1533905099729131
 30
0.0
 41
1.0
 10
-4.695550188128769
 20
-0.1875186154546946
 30
0.0
 41
1.0
 10
-4.703013187041135
 20
-0.2116954003683123
 30
0.0
 41
1.0
 10
-4.71207006376001
 20
-0.227598827811474
 30
0.0
 41
1.0
 10
-4.721318176758442
 20
-0.2394372527330669
 30
0.0
 41
1.0
 10
-4.729342549584528
 20
-0.2521045579037137
 30
0.0
 41
1.0
 10
-4.735070736863102
 20
-0.2698910806014406
 30
0.0
 41
1.0
 10
-4.738288245619183
 20
-0.2946292097300343
 30
0.0
 41
1.0
 10
-4.739644188941004
 20
-0.3255206214695627
 30
0.0
 41
1.0
 10
-4.740272636947898
 20
-0.3602091078172358
 30
0.0
 41
1.0
 10
-4.741526624909364
 20
-0.3954912569542807
 30
0.0
 41
1.0
 10
-4.744659334309946
 20
-0.4281929391581225
 30
0.0
 41
1.0
 10
-4.750543083919286
 20
-0.4559350548049983
 30
0.0
 41
1.0
 10
-4.75933577989154
 20
-0.4780417758088414
 30
0.0
 41
1.0
 10
-4.770278521410056
 20
-0.4961035748364001
 30
0.0
 41
1.0
 10
-4.78210438142768
 20
-0.5129420846012146
 30
0.0
 41
1.0
 10
-4.793376999695579
 20
-0.5317586984100573
 30
0.0
 41
1.0
 10
-4.802836527443218
 20
-0.5552628639607877
 30
0.0
 41
1.0
 10
-4.809789334732426
 20
-0.5846887966832904
 30
0.0
 41
1.0
 10
-4.814331031485085
 20
-0.6192393211983804
 30
0.0
 41
1.0
 10
-4.8170574976545
 20
-0.656843431630016
 30
0.0
 41
1.0
 10
-4.818864468858799
 20
-0.6946858134938183
 30
0.0
 41
1.0
 10
-4.820717124915162
 20
-0.7298152994764309
 30
0.0
 41
1.0
 10
-4.823421130659105
 20
-0.7597450146199857
 30
0.0
 41
1.0
 10
-4.827419483477208
 20
-0.7829970069677069
 30
0.0
 41
1.0
 10
-4.832514220779456
 20
-0.799813890193023
 30
0.0
 41
1.0
 10
-4.837832061953054
 20
-0.8123269034383065
 30
0.0
 41
1.0
 10
-4.842378125759423
 20
-0.8234285608457112
 30
0.0
 41
1.0
 10
-4.845447043272706
 20
-0.8359426087971989
 30
0.0
 41
1.0
 10
-4.847151149505274
 20
-0.8515839539987497
 30
0.0
 41
1.0
 10
-4.848170527777106
 20
-0.8711013994812496
 30
0.0
 41
1.0
 10
-4.849404857318208
 20
-0.8945519891322037
 30
0.0
 41
1.0
 10
-4.851676631840664
 20
-0.9215228620042083
 30
0.0
 41
1.0
 10
-4.855369167348839
 20
-0.9513934413239899
 30
0.0
 41
1.0
 10
-4.860465823779611
 20
-0.98342331541337
 30
0.0
 41
1.0
 10
-4.866667654315918
 20
-1.016809364422982
 30
0.0
 41
1.0
 10
-4.873484354514385
 20
-1.050753409991579
 30
0.0
 41
1.0
 10
-4.880335958174426
 20
-1.084525024813629
 30
0.0
 41
1.0
 10
-4.886650940839158
 20
-1.117527430252085
 30
0.0
 41
1.0
 10
-4.891963439357733
 20
-1.149359692597721
 30
0.0
 41
1.0
 10
-4.896017425609504
 20
-1.179886971836198
 30
0.0
 41
1.0
 10
-4.898741558256396
 20
-1.209181475708778
 30
0.0
 41
1.0
 10
-4.900214601116323
 20
-1.237453519191713
 30
0.0
 41
1.0
 10
-4.900634091801717
 20
-1.264987378620517
 30
0.0
 41
1.0
 10
-4.900284047448638
 20
-1.292072389949093
 30
0.0
 41
1.0
 10
-4.899502146487932
 20
-1.318942486894314
 30
0.0
 41
1.0
 10
-4.89864954867447
 20
-1.345695753277859
 30
0.0
 41
1.0
 10
-4.898065857618639
 20
-1.372316115387942
 30
0.0
 41
1.0
 10
-4.898018141537952
 20
-1.398736054949063
 30
0.0
 41
1.0
 10
-4.898651615964658
 20
-1.424886249998194
 30
0.0
 41
1.0
 10
-4.899940209680407
 20
-1.450750234164926
 30
0.0
 41
1.0
 10
-4.901635793779835
 20
-1.476417915854891
 30
0.0
 41
1.0
 10
-4.903222016068806
 20
-1.502136648105603
 30
0.0
 41
1.0
 10
-4.904100907353176
 20
-1.528196904989457
 30
0.0
 41
1.0
 10
-4.903768183658287
 20
-1.554825642908313
 30
0.0
 41
1.0
 10
-4.902004098209828
 20
-1.582069731509595
 30
0.0
 41
1.0
 10
-4.899031982403397
 20
-1.609699600902792
 30
0.0
 41
1.0
 10
-4.895752942439005
 20
-1.637065449470559
 30
0.0
 41
1.0
 10
-4.893738276356282
 20
-1.663104190515512
 30
0.0
 41
1.0
 10
-4.894773235981718
 20
-1.686624868656295
 30
0.0
 41
1.0
 10
-4.900482627819399
 20
-1.706544026027484
 30
0.0
 41
1.0
 10
-4.911956816492162
 20
-1.722118937739345
 30
0.0
 41
1.0
 10
-4.929298267366441
 20
-1.733234751595368
 30
0.0
 41
1.0
 10
-4.951464634154582
 20
-1.74049306916447
 30
0.0
 41
1.0
 10
-4.97674701189222
 20
-1.744875952888985
 30
0.0
 41
1.0
 10
-5.003126925392406
 20
-1.747491141022725
 30
0.0
 41
1.0
 10
-5.028657384151275
 20
-1.7493007199001
 30
0.0
 41
1.0
 10
-5.051891875076983
 20
-1.750818931906537
 30
0.0
 41
1.0
 10
-5.072098366281532
 20
-1.751948753907792
 30
0.0
 41
1.0
 10
-5.088998417816144
 20
-1.752111775500435
 30
0.0
 41
1.0
 10
-5.102612197033413
 20
-1.750327894858588
 30
0.0
 41
1.0
 10
-5.113049496792964
 20
-1.745289271335465
 30
0.0
 41
1.0
 10
-5.120357446676505
 20
-1.735507608210708
 30
0.0
 41
1.0
 10
-5.12459169899746
 20
-1.719820199535109
 30
0.0
 41
1.0
 10
-5.12587359229118
 20
-1.697958713356322
 30
0.0
 41
1.0
 10
-5.124426607419473
 20
-1.670784316023244
 30
0.0
 41
1.0
 10
-5.120552036947772
 20
-1.639832138353223
 30
0.0
 41
1.0
 10
-5.114618569962706
 20
-1.60700998999132
 30
0.0
 41
1.0
 10
-5.107046307225269
 20
-1.574228144844834
 30
0.0
 41
1.0
 10
-5.098293053693713
 20
-1.543074881712722
 30
0.0
 41
1.0
 10
-5.088839892519058
 20
-1.514433312748161
 30
0.0
 41
1.0
 10
-5.079176264976466
 20
-1.488243093220332
 30
0.0
 41
1.0
 10
-5.069780802719787
 20
-1.463826617376842
 30
0.0
 41
1.0
 10
-5.06110307557146
 20
-1.440127409867617
 30
0.0
 41
1.0
 10
-5.053544504718879
 20
-1.415991475700231
 30
0.0
 41
1.0
 10
-5.047440711607385
 20
-1.390410384386969
 30
0.0
 41
1.0
 10
-5.043040613746883
 20
-1.362829337572293
 30
0.0
 41
1.0
 10
-5.04049610251337
 20
-1.333258106452263
 30
0.0
 41
1.0
 10
-5.039869076099628
 20
-1.302064632656079
 30
0.0
 41
1.0
 10
-5.041134416965665
 20
-1.269840784183808
 30
0.0
 41
1.0
 10
-5.044184702516922
 20
-1.237240899855167
 30
0.0
 41
1.0
 10
-5.048833928386958
 20
-1.204827820459333
 30
0.0
 41
1.0
 10
-5.054822220828979
 20
-1.172925463840248
 30
0.0
 41
1.0
 10
-5.061818617212561
 20
-1.141442769790763
 30
0.0
 41
1.0
 10
-5.069439346266286
 20
-1.109961978850242
 30
0.0
 41
1.0
 10
-5.077268671178262
 20
-1.077871774413135
 30
0.0
 41
1.0
 10
-5.08487890075203
 20
-1.044485831115802
 30
0.0
 41
1.0
 10
-5.091850606549938
 20
-1.009164959746265
 30
0.0
 41
1.0
 10
-5.097793082142963
 20
-0.9714435773782277
 30
0.0
 41
1.0
 10
-5.102363927501299
 20
-0.9311406137043142
 30
0.0
 41
1.0
 10
-5.105290914756603
 20
-0.8885109140391081
 30
0.0
 41
1.0
 10
-5.106385563501252
 20
-0.8442495654460564
 30
0.0
 41
1.0
 10
-5.105547452782947
 20
-0.7993330143412845
 30
0.0
 41
1.0
 10
-5.102771052674755
 20
-0.7549029522867649
 30
0.0
 41
1.0
 10
-5.098151368925766
 20
-0.7121332554347444
 30
0.0
 41
1.0
 10
-5.091890480601525
 20
-0.6721031022857651
 30
0.0
 41
1.0
 10
-5.084302818678787
 20
-0.6356699373737307
 30
0.0
 41
1.0
 10
-5.075823039944499
 20
-0.6033366602015323
 30
0.0
 41
1.0
 10
-5.067007973638857
 20
-0.5751350069307363
 30
0.0
 41
1.0
 10
-5.058553740817871
 20
-0.5504658709558833
 30
0.0
 41
1.0
 10
-5.051193707402026
 20
-0.528286531248884
 30
0.0
 41
1.0
 10
-5.045578904746903
 20
-0.5073557420920403
 30
0.0
 41
1.0
 10
-5.042156585059902
 20
-0.4864694840124
 30
0.0
 41
1.0
 10
-5.04106751933996
 20
-0.464676248371503
 30
0.0
 41
1.0
 10
-5.041990094977563
 20
-0.4415624148545156
 30
0.0
 41
1.0
 10
-5.044228677540864
 20
-0.4172061949401791
 30
0.0
 41
1.0
 10
-5.046931810365932
 20
-0.3919524708635027
 30
0.0
 41
1.0
 10
-5.049278019090584
 20
-0.3662358543840388
 30
0.0
 41
1.0
 10
-5.050657890875383
 20
-0.3403997204417611
 30
0.0
 41
1.0
 10
-5.050899204873346
 20
-0.3144784073980574
 30
0.0
 41
1.0
 10
-5.050330416898449
 20
-0.2881284149797712
 30
0.0
 41
1.0
 10
-5.049554885899129
 20
-0.2608292152011389
 30
0.0
 41
1.0
 10
-5.049293757256099
 20
-0.2320200543661734
 30
0.0
 41
1.0
 10
-5.050194820059238
 20
-0.2012682687410865
 30
0.0
 41
1.0
 10
-5.052670696866056
 20
-0.1684108519835737
 30
0.0
 41
1.0
 10
-5.056688723034728
 20
-0.1337395886202007
 30
0.0
 41
1.0
 10
-5.061697626622864
 20
-0.0980632011887209
 30
0.0
 41
1.0
 10
-5.066874495088336
 20
-0.0624810583682788
 30
0.0
 41
1.0
 10
-5.071312160402033
 20
-0.0282112718301571
 30
0.0
 41
1.0
 10
-5.074223981170646
 20
0.0035987109042819
 30
0.0
 41
1.0
 10
-5.0751555339548
 20
0.032063405791945
 30
0.0
 41
1.0
 10
-5.074159957859564
 20
0.05672797567963
 30
0.0
 41
1.0
 10
-5.072070118856323
 20
0.0777996506718424
 30
0.0
 41
1.0
 10
-5.070452930936411
 20
0.096172624992962
 30
0.0
 41
1.0
 10
-5.07090223128568
 20
0.1130316760291827
 30
0.0
 41
1.0
 10
-5.07451254354104
 20
0.1295612007346188
 30
0.0
 41
1.0
 10
-5.081195249776086
 20
0.1465792903144583
 30
0.0
 41
1.0
 10
-5.089318072209438
 20
0.164302179012652
 30
0.0
 41
1.0
 10
-5.096655004889253
 20
0.1826054538303802
 30
0.0
 41
1.0
 10
-5.101137189975226
 20
0.2012136632416873
 30
0.0
 41
1.0
 10
-5.101714466396088
 20
0.2199238429291221
 30
0.0
 41
1.0
 10
-5.099077976481572
 20
0.2387974713756906
 30
0.0
 41
1.0
 10
-5.094832264126792
 20
0.2580479013876268
 30
0.0
 41
1.0
 10
-5.090716777135896
 20
0.2779424268123192
 30
0.0
 41
1.0
 10
-5.08787290143059
 20
0.298699765760553
 30
0.0
 41
1.0
 10
-5.08592745876748
 20
0.3203873322158273
 30
0.0
 41
1.0
 10
-5.083632882419464
 20
0.3428385022233849
 30
0.0
 41
1.0
 10
-5.079807541935147
 20
0.3655748955811476
 30
0.0
 41
1.0
 10
-5.074171751009436
 20
0.3877258158796782
 30
0.0
 41
1.0
 10
-5.068228376287497
 20
0.4079509790555702
 30
0.0
 41
1.0
 10
-5.066103055856339
 20
0.4243623668120483
 30
0.0
 41
1.0
 10
-5.071321121919662
 20
0.4355887922717744
 30
0.0
 41
1.0
 10
-5.084314377685511
 20
0.4416016943747559
 30
0.0
 41
1.0
 10
-5.098340605833986
 20
0.4450706933798054
 30
0.0
 41
1.0
 10
-5.103307700730558
 20
0.4500793256407278
 30
0.0
 41
1.0
 10
-5.093931217965183
 20
0.4594125808802846
 30
0.0
 41
1.0
 10
-5.074824604275066
 20
0.4728193590408623
 30
0.0
 41
1.0
 10
-5.055280505386253
 20
0.4884157049215303
 30
0.0
 41
1.0
 10
-5.045380803082112
 20
0.5037030364884345
 30
0.0
 41
1.0
 10
-5.051130580879089
 20
0.5168430523500007
 30
0.0
 41
1.0
 10
-5.071427321805785
 20
0.5274893000831793
 30
0.0
 41
1.0
 10
-5.101022534262511
 20
0.5362078850620224
 30
0.0
 41
1.0
 10
-5.132644871097722
 20
0.5440990810535947
 30
0.0
 41
1.0
 10
-5.159293823212349
 20
0.5523674379541668
 30
0.0
 41
1.0
 10
-5.176832376376332
 20
0.5618502348657052
 30
0.0
 41
1.0
 10
-5.185238841917493
 20
0.5727713472484397
 30
0.0
 41
1.0
 10
-5.186457783476063
 20
0.585079282371657
 30
0.0
 41
1.0
 10
-5.182957224749866
 20
0.5986631867721382
 30
0.0
 41
1.0
 10
-5.175931582379859
 20
0.6136307985603083
 30
0.0
 41
1.0
 10
-5.165644057885737
 20
0.6301937573205745
 30
0.0
 41
1.0
 10
-5.151819566149232
 20
0.6485421157845849
 30
0.0
 41
1.0
 10
-5.13401798387195
 20
0.6687248301307185
 30
0.0
 41
1.0
 10
-5.11202744092952
 20
0.6905208673627993
 30
0.0
 41
1.0
 10
-5.085925687638016
 20
0.7134965883035297
 30
0.0
 41
1.0
 10
-5.056124185230575
 20
0.7370720230905027
 30
0.0
 41
1.0
 10
-5.023422185701427
 20
0.7605841794010368
 30
0.0
 41
1.0
 10
-4.989048159247948
 20
0.7833510000006699
 30
0.0
 41
1.0
 10
-4.954726249719279
 20
0.8047364254139401
 30
0.0
 41
1.0
 10
-4.922686357437591
 20
0.8242117494482368
 30
0.0
 41
1.0
 10
-4.89580900272879
 20
0.8414264222845856
 30
0.0
 41
1.0
 10
-4.877347282898883
 20
0.8562484630350844
 30
0.0
 41
1.0
 10
-4.869610181626857
 20
0.8687243103272319
 30
0.0
 41
1.0
 10
-4.87290367101878
 20
0.8790644952099579
 30
0.0
 41
1.0
 10
-4.884259557013232
 20
0.8875983231459779
 30
0.0
 41
1.0
 10
-4.896523338452817
 20
0.8947905126959684
 30
0.0
 41
1.0
 10
-4.902710454683629
 20
0.9015590952490713
 30
0.0
 41
1.0
 10
-4.901367426986118
 20
0.9098641778412726
 30
0.0
 41
1.0
 10
-4.8986808086688
 20
0.9224925289203033
 30
0.0
 41
1.0
 10
-4.902024318489127
 20
0.9410401770181112
 30
0.0
 41
1.0
 10
-4.913623794071891
 20
0.9635757240923116
 30
0.0
 41
1.0
 10
-4.929799973937784
 20
0.9850156679010963
 30
0.0
 41
1.0
 10
-4.944905044731624
 20
0.9996248350558404
 30
0.0
 41
1.0
 10
-4.953615059603012
 20
1.002730852154131
 30
0.0
 41
1.0
 10
-4.954399280247196
 20
0.9931014729404864
 30
0.0
 41
1.0
 10
-4.950894810403076
 20
0.9739565546833123
 30
0.0
 41
1.0
 10
-4.948513662460499
 20
0.9507337025627334
 30
0.0
 41
1.0
 10
-4.951990727897967
 20
0.9294788374238754
 30
0.0
 41
1.0
 10
-4.962396594863906
 20
0.9149300332031197
 30
0.0
 41
1.0
 10
-4.978174636890789
 20
0.9103399962688792
 30
0.0
 41
1.0
 10
-4.996260898677361
 20
0.9173874585375015
 30
0.0
 41
1.0
 10
-5.013309305055118
 20
0.9359680601097362
 30
0.0
 41
1.0
 10
-5.026289926955124
 20
0.9644392506358197
 30
0.0
 41
1.0
 10
-5.032650078605812
 20
1.000159472637795
 30
0.0
 41
1.0
 10
-5.0306070912454
 20
1.039939849789194
 30
0.0
 41
1.0
 10
-5.019386631551142
 20
1.080531792180115
 30
0.0
 41
1.0
 10
-4.999484566703667
 20
1.119099539755575
 30
0.0
 41
1.0
 10
-4.972918386162483
 20
1.153698373207
 30
0.0
 41
1.0
 10
-4.943484821128815
 20
1.183752916590245
 30
0.0
 41
1.0
 10
-4.915855616079036
 20
1.209666339846988
 30
0.0
 41
1.0
 10
-4.894648084612549
 20
1.232418070263589
 30
0.0
 41
1.0
 10
-4.883544754842126
 20
1.253179024792259
 30
0.0
 41
1.0
 10
-4.884302226408
 20
1.272889594640785
 30
0.0
 41
1.0
 10
-4.896017380795872
 20
1.29192323322564
 30
0.0
 41
1.0
 10
-4.913758984935379
 20
1.309539487269886
 30
0.0
 41
1.0
 10
-4.929708441487613
 20
1.324168479518959
 30
0.0
 41
1.0
 10
-4.936800253406408
 20
1.334519975021938
 30
0.0
 41
1.0
 10
-4.931163687141402
 20
1.340301793461044
 30
0.0
 41
1.0
 10
-4.916224769438785
 20
1.343472558656581
 30
0.0
 41
1.0
 10
-4.900500842740132
 20
1.34747682987599
 30
0.0
 41
1.0
 10
-4.892502023569955
 20
1.355564723989451
 30
0.0
 41
1.0
 10
-4.895725982357843
 20
1.369122315837898
 30
0.0
 41
1.0
 10
-4.90898802421232
 20
1.387825094125766
 30
0.0
 41
1.0
 10
-4.928591518349036
 20
1.410414908457444
 30
0.0
 41
1.0
 10
-4.949743008116302
 20
1.435218663497317
 30
0.0
 41
1.0
 10
-4.968568933256773
 20
1.460878248958395
 30
0.0
 41
1.0
 10
-4.982590287128098
 20
1.486525750515906
 30
0.0
 41
1.0
 10
-4.990281191213481
 20
1.511626384123745
 30
0.0
 41
1.0
 10
-4.990771480499145
 20
1.531059904680638
 30
0.0
 41
1.0
 10
-4.987839439412344
 20
1.54523090699921
 30
0.0
 41
1.0
 10
-4.98441851299385
 20
1.554498739262526
 30
0.0
 41
1.0
 10
-4.982341473912953
 20
1.559087773278153
 30
0.0
 41
1.0
  0
SPLINE
  5
88
330
70
100
AcDbEntity
  8
jennie v3_Sketch3
100
AcDbSpline
210
0.0
220
0.0
230
1.0
 70
    12
 71
     5
 72
   351
 73
   345
 74
     0
 42
0.000000001
 43
0.0000000001
 40
0.0
 40
0.0
 40
0.0
 40
0.0
 40
0.0
 40
0.0
 40
0.0029411764705882
 40
0.0058823529411765
 40
0.0088235294117647
 40
0.011764705882353
 40
0.0147058823529412
 40
0.0176470588235294
 40
0.0205882352941177
 40
0.0235294117647059
 40
0.0264705882352941
 40
0.0294117647058824
 40
0.0323529411764706
 40
0.0352941176470588
 40
0.0382352941176471
 40
0.0411764705882353
 40
0.0441176470588236
 40
0.0470588235294118
 40
0.05
 40
0.0529411764705883
 40
0.0558823529411765
 40
0.0588235294117647
 40
0.061764705882353
 40
0.0647058823529412
 40
0.0676470588235295
 40
0.0705882352941177
 40
0.0735294117647059
 40
0.0764705882352942
 40
0.0794117647058824
 40
0.0823529411764707
 40
0.0852941176470589
 40
0.0882352941176471
 40
0.0911764705882354
 40
0.0941176470588236
 40
0.0970588235294119
 40
0.1000000000000001
 40
0.1029411764705883
 40
0.1058823529411766
 40
0.1088235294117648
 40
0.111764705882353
 40
0.1147058823529413
 40
0.1176470588235295
 40
0.1205882352941177
 40
0.123529411764706
 40
0.1264705882352942
 40
0.1294117647058824
 40
0.1323529411764707
 40
0.1352941176470589
 40
0.1382352941176471
 40
0.1411764705882353
 40
0.1441176470588236
 40
0.1470588235294118
 40
0.15
 40
0.1529411764705882
 40
0.1558823529411765
 40
0.1588235294117647
 40
0.1617647058823529
 40
0.1647058823529411
 40
0.1676470588235294
 40
0.1705882352941176
 40
0.1735294117647058
 40
0.176470588235294
 40
0.1794117647058823
 40
0.1823529411764705
 40
0.1852941176470587
 40
0.1882352941176469
 40
0.1911764705882352
 40
0.1941176470588234
 40
0.1970588235294116
 40
0.1999999999999998
 40
0.202941176470588
 40
0.2058823529411763
 40
0.2088235294117645
 40
0.2117647058823527
 40
0.2147058823529409
 40
0.2176470588235292
 40
0.2205882352941174
 40
0.2235294117647056
 40
0.2264705882352938
 40
0.2294117647058821
 40
0.2323529411764703
 40
0.2352941176470585
 40
0.2382352941176467
 40
0.241176470588235
 40
0.2441176470588232
 40
0.2470588235294114
 40
0.2499999999999996
 40
0.2529411764705879
 40
0.2558823529411761
 40
0.2588235294117643
 40
0.2617647058823525
 40
0.2647058823529408
 40
0.267647058823529
 40
0.2705882352941172
 40
0.2735294117647054
 40
0.2764705882352937
 40
0.2794117647058819
 40
0.2823529411764701
 40
0.2852941176470583
 40
0.2882352941176466
 40
0.2911764705882348
 40
0.294117647058823
 40
0.2970588235294112
 40
0.2999999999999995
 40
0.3029411764705877
 40
0.3058823529411759
 40
0.3088235294117641
 40
0.3117647058823524
 40
0.3147058823529406
 40
0.3176470588235288
 40
0.320588235294117
 40
0.3235294117647053
 40
0.3264705882352935
 40
0.3294117647058817
 40
0.3323529411764699
 40
0.3352941176470582
 40
0.3382352941176464
 40
0.3411764705882346
 40
0.3441176470588228
 40
0.3470588235294111
 40
0.3499999999999993
 40
0.3529411764705875
 40
0.3558823529411757
 40
0.358823529411764
 40
0.3617647058823522
 40
0.3647058823529404
 40
0.3676470588235286
 40
0.3705882352941169
 40
0.3735294117647051
 40
0.3764705882352933
 40
0.3794117647058815
 40
0.3823529411764697
 40
0.385294117647058
 40
0.3882352941176462
 40
0.3911764705882344
 40
0.3941176470588226
 40
0.3970588235294109
 40
0.3999999999999991
 40
0.4029411764705874
 40
0.4058823529411756
 40
0.4088235294117638
 40
0.4117647058823521
 40
0.4147058823529403
 40
0.4176470588235285
 40
0.4205882352941167
 40
0.4235294117647049
 40
0.4264705882352932
 40
0.4294117647058814
 40
0.4323529411764696
 40
0.4352941176470578
 40
0.4382352941176461
 40
0.4411764705882343
 40
0.4441176470588225
 40
0.4470588235294107
 40
0.449999999999999
 40
0.4529411764705872
 40
0.4558823529411754
 40
0.4588235294117636
 40
0.4617647058823519
 40
0.4647058823529401
 40
0.4676470588235283
 40
0.4705882352941165
 40
0.4735294117647048
 40
0.476470588235293
 40
0.4794117647058812
 40
0.4823529411764694
 40
0.4852941176470577
 40
0.4882352941176459
 40
0.4911764705882341
 40
0.4941176470588223
 40
0.4970588235294106
 40
0.4999999999999988
 40
0.502941176470587
 40
0.5058823529411752
 40
0.5088235294117635
 40
0.5117647058823517
 40
0.5147058823529399
 40
0.5176470588235281
 40
0.5205882352941164
 40
0.5235294117647046
 40
0.5264705882352928
 40
0.529411764705881
 40
0.5323529411764693
 40
0.5352941176470575
 40
0.5382352941176457
 40
0.5411764705882339
 40
0.5441176470588222
 40
0.5470588235294104
 40
0.5499999999999986
 40
0.5529411764705868
 40
0.5558823529411751
 40
0.5588235294117633
 40
0.5617647058823515
 40
0.5647058823529397
 40
0.567647058823528
 40
0.5705882352941162
 40
0.5735294117647044
 40
0.5764705882352926
 40
0.5794117647058809
 40
0.5823529411764691
 40
0.5852941176470573
 40
0.5882352941176455
 40
0.5911764705882338
 40
0.594117647058822
 40
0.5970588235294102
 40
0.5999999999999984
 40
0.6029411764705867
 40
0.6058823529411749
 40
0.6088235294117631
 40
0.6117647058823513
 40
0.6147058823529396
 40
0.6176470588235278
 40
0.620588235294116
 40
0.6235294117647042
 40
0.6264705882352925
 40
0.6294117647058807
 40
0.6323529411764689
 40
0.6352941176470571
 40
0.6382352941176454
 40
0.6411764705882336
 40
0.6441176470588218
 40
0.64705882352941
 40
0.6499999999999983
 40
0.6529411764705865
 40
0.6558823529411747
 40
0.6588235294117629
 40
0.6617647058823512
 40
0.6647058823529394
 40
0.6676470588235276
 40
0.6705882352941158
 40
0.6735294117647041
 40
0.6764705882352923
 40
0.6794117647058805
 40
0.6823529411764687
 40
0.685294117647057
 40
0.6882352941176452
 40
0.6911764705882334
 40
0.6941176470588216
 40
0.6970588235294099
 40
0.6999999999999981
 40
0.7029411764705863
 40
0.7058823529411745
 40
0.7088235294117628
 40
0.711764705882351
 40
0.7147058823529392
 40
0.7176470588235274
 40
0.7205882352941157
 40
0.7235294117647039
 40
0.7264705882352921
 40
0.7294117647058803
 40
0.7323529411764686
 40
0.7352941176470568
 40
0.738235294117645
 40
0.7411764705882332
 40
0.7441176470588215
 40
0.7470588235294097
 40
0.7499999999999979
 40
0.7529411764705861
 40
0.7558823529411744
 40
0.7588235294117626
 40
0.7617647058823508
 40
0.764705882352939
 40
0.7676470588235273
 40
0.7705882352941155
 40
0.7735294117647037
 40
0.7764705882352919
 40
0.7794117647058802
 40
0.7823529411764684
 40
0.7852941176470566
 40
0.7882352941176448
 40
0.7911764705882331
 40
0.7941176470588213
 40
0.7970588235294095
 40
0.7999999999999977
 40
0.8029411764705859
 40
0.8058823529411741
 40
0.8088235294117623
 40
0.8117647058823505
 40
0.8147058823529388
 40
0.817647058823527
 40
0.8205882352941152
 40
0.8235294117647034
 40
0.8264705882352917
 40
0.8294117647058799
 40
0.8323529411764681
 40
0.8352941176470563
 40
0.8382352941176446
 40
0.8411764705882328
 40
0.844117647058821
 40
0.8470588235294092
 40
0.8499999999999975
 40
0.8529411764705857
 40
0.8558823529411739
 40
0.8588235294117621
 40
0.8617647058823504
 40
0.8647058823529386
 40
0.8676470588235268
 40
0.870588235294115
 40
0.8735294117647033
 40
0.8764705882352915
 40
0.8794117647058797
 40
0.8823529411764679
 40
0.8852941176470562
 40
0.8882352941176444
 40
0.8911764705882326
 40
0.8941176470588208
 40
0.8970588235294091
 40
0.8999999999999973
 40
0.9029411764705855
 40
0.9058823529411737
 40
0.908823529411762
 40
0.9117647058823502
 40
0.9147058823529384
 40
0.9176470588235266
 40
0.9205882352941149
 40
0.9235294117647031
 40
0.9264705882352913
 40
0.9294117647058795
 40
0.9323529411764678
 40
0.935294117647056
 40
0.9382352941176442
 40
0.9411764705882324
 40
0.9441176470588207
 40
0.9470588235294089
 40
0.9499999999999971
 40
0.9529411764705853
 40
0.9558823529411736
 40
0.9588235294117618
 40
0.96176470588235
 40
0.9647058823529382
 40
0.9676470588235265
 40
0.9705882352941147
 40
0.9735294117647029
 40
0.9764705882352911
 40
0.9794117647058794
 40
0.9823529411764676
 40
0.9852941176470558
 40
0.988235294117644
 40
0.9911764705882323
 40
0.9941176470588205
 40
0.9970588235294087
 40
1.0
 40
1.0
 40
1.0
 40
1.0
 40
1.0
 40
1.0
 10
-4.982341473912953
 20
1.559087773278153
 30
0.0
 41
1.0
 10
-4.986115667352982
 20
1.561099577334224
 30
0.0
 41
1.0
 10
-4.993529092016774
 20
1.565100728865869
 30
0.0
 41
1.0
 10
-5.004244329641023
 20
1.571035053022879
 30
0.0
 41
1.0
 10
-5.017721613310277
 20
1.578812966650563
 30
0.0
 41
1.0
 10
-5.033249216746543
 20
1.588371505306088
 30
0.0
 41
1.0
 10
-5.047551487554314
 20
1.597952646283386
 30
0.0
 41
1.0
 10
-5.060812181523441
 20
1.607919684446985
 30
0.0
 41
1.0
 10
-5.073346788426479
 20
1.618902202334305
 30
0.0
 41
1.0
 10
-5.085538760622532
 20
1.631606133438474
 30
0.0
 41
1.0
 10
-5.097747641303518
 20
1.64654660283909
 30
0.0
 41
1.0
 10
-5.110233625396591
 20
1.663830259591185
 30
0.0
 41
1.0
 10
-5.123058035916503
 20
1.682858646609103
 30
0.0
 41
1.0
 10
-5.136141871401353
 20
1.702565985005879
 30
0.0
 41
1.0
 10
-5.149353543337508
 20
1.721756794800462
 30
0.0
 41
1.0
 10
-5.16258936815235
 20
1.739417751826527
 30
0.0
 41
1.0
 10
-5.175850739971788
 20
1.755020770380459
 30
0.0
 41
1.0
 10
-5.189339775943249
 20
1.768881999556271
 30
0.0
 41
1.0
 10
-5.203344866428204
 20
1.781901389430175
 30
0.0
 41
1.0
 10
-5.218084736038854
 20
1.795196907280629
 30
0.0
 41
1.0
 10
-5.233587415296026
 20
1.809803692601874
 30
0.0
 41
1.0
 10
-5.249506603052661
 20
1.826280379424962
 30
0.0
 41
1.0
 10
-5.265139177897703
 20
1.844594380613624
 30
0.0
 41
1.0
 10
-5.279695200112232
 20
1.864358618014788
 30
0.0
 41
1.0
 10
-5.292514414264092
 20
1.884985164762253
 30
0.0
 41
1.0
 10
-5.303284024839573
 20
1.905863201446331
 30
0.0
 41
1.0
 10
-5.312304579855647
 20
1.926548809756496
 30
0.0
 41
1.0
 10
-5.320580171643004
 20
1.946878594884273
 30
0.0
 41
1.0
 10
-5.32943290936076
 20
1.966860377379838
 30
0.0
 41
1.0
 10
-5.340194862479753
 20
1.986603711178906
 30
0.0
 41
1.0
 10
-5.353893176222427
 20
2.006239335328729
 30
0.0
 41
1.0
 10
-5.370881215322568
 20
2.025832065595881
 30
0.0
 41
1.0
 10
-5.390680300596765
 20
2.045333672085011
 30
0.0
 41
1.0
 10
-5.412312628339664
 20
2.064633562666351
 30
0.0
 41
1.0
 10
-5.434529903805583
 20
2.083588948385979
 30
0.0
 41
1.0
 10
-5.456091948372514
 20
2.102063986914078
 30
0.0
 41
1.0
 10
-5.476004660897806
 20
2.119963284050918
 30
0.0
 41
1.0
 10
-5.493822045688488
 20
2.137272188402881
 30
0.0
 41
1.0
 10
-5.509768765302404
 20
2.154079822107612
 30
0.0
 41
1.0
 10
-5.524455138291053
 20
2.170562314642546
 30
0.0
 41
1.0
 10
-5.538667536098724
 20
2.186974977773241
 30
0.0
 41
1.0
 10
-5.553139583686943
 20
2.20363858589588
 30
0.0
 41
1.0
 10
-5.568306096725783
 20
2.220933737551311
 30
0.0
 41
1.0
 10
-5.584143127053624
 20
2.239274329001874
 30
0.0
 41
1.0
 10
-5.600351717189524
 20
2.259000806604691
 30
0.0
 41
1.0
 10
-5.616483552199946
 20
2.280290996411551
 30
0.0
 41
1.0
 10
-5.632096456922221
 20
2.303053586352929
 30
0.0
 41
1.0
 10
-5.646880947892824
 20
2.326853057271738
 30
0.0
 41
1.0
 10
-5.660840301026025
 20
2.350760199910795
 30
0.0
 41
1.0
 10
-5.674234351980173
 20
2.373548616873719
 30
0.0
 41
1.0
 10
-5.6874130627734
 20
2.394048606552164
 30
0.0
 41
1.0
 10
-5.700679631196739
 20
2.411468873496464
 30
0.0
 41
1.0
 10
-5.71415264272294
 20
2.425693103549328
 30
0.0
 41
1.0
 10
-5.727601537446054
 20
2.437679684597965
 30
0.0
 41
1.0
 10
-5.74038025938379
 20
2.449519623702388
 30
0.0
 41
1.0
 10
-5.751649778498435
 20
2.463475003923144
 30
0.0
 41
1.0
 10
-5.760541553652293
 20
2.481255531228175
 30
0.0
 41
1.0
 10
-5.766357582986275
 20
2.503089050955032
 30
0.0
 41
1.0
 10
-5.768715309417753
 20
2.527211159579694
 30
0.0
 41
1.0
 10
-5.767493653350617
 20
2.550955877552306
 30
0.0
 41
1.0
 10
-5.762806810574113
 20
2.571683055147077
 30
0.0
 41
1.0
 10
-5.754965877593685
 20
2.587645564554566
 30
0.0
 41
1.0
 10
-5.744449129856224
 20
2.59918138548569
 30
0.0
 41
1.0
 10
-5.731855592482467
 20
2.608613875758397
 30
0.0
 41
1.0
 10
-5.717843614503499
 20
2.618562263366422
 30
0.0
 41
1.0
 10
-5.703071803245931
 20
2.630801380646461
 30
0.0
 41
1.0
 10
-5.688142637065322
 20
2.644577336672479
 30
0.0
 41
1.0
 10
-5.673512652124109
 20
2.657320246053572
 30
0.0
 41
1.0
 10
-5.659377889110981
 20
2.666106047975101
 30
0.0
 41
1.0
 10
-5.645592610644341
 20
2.6687432384695
 30
0.0
 41
1.0
 10
-5.631512983098442
 20
2.665328762872928
 30
0.0
 41
1.0
 10
-5.616216458712299
 20
2.657836708317523
 30
0.0
 41
1.0
 10
-5.598864954796245
 20
2.648961892464456
 30
0.0
 41
1.0
 10
-5.579035417165071
 20
2.641169870904126
 30
0.0
 41
1.0
 10
-5.557025877389209
 20
2.635751022982192
 30
0.0
 41
1.0
 10
-5.53367901350039
 20
2.63304537292562
 30
0.0
 41
1.0
 10
-5.510248751900672
 20
2.632551605337142
 30
0.0
 41
1.0
 10
-5.488243969962889
 20
2.633103355427932
 30
0.0
 41
1.0
 10
-5.469296833306217
 20
2.632964457197565
 30
0.0
 41
1.0
 10
-5.454975346673307
 20
2.630121264820599
 30
0.0
 41
1.0
 10
-5.446405847023891
 20
2.623329671605444
 30
0.0
 41
1.0
 10
-5.443916320621616
 20
2.613016218077086
 30
0.0
 41
1.0
 10
-5.446677404227684
 20
2.602322951945366
 30
0.0
 41
1.0
 10
-5.453648868610179
 20
2.595104997330544
 30
0.0
 41
1.0
 10
-5.465200300648733
 20
2.593189501168123
 30
0.0
 41
1.0
 10
-5.482349491714114
 20
2.595939285795628
 30
0.0
 41
1.0
 10
-5.504803002464586
 20
2.601233503289161
 30
0.0
 41
1.0
 10
-5.52888233083293
 20
2.605986914991691
 30
0.0
 41
1.0
 10
-5.546901012639284
 20
2.606983576905609
 30
0.0
 41
1.0
 10
-5.552910356340102
 20
2.602308279839036
 30
0.0
 41
1.0
 10
-5.546976795012418
 20
2.592561362268226
 30
0.0
 41
1.0
 10
-5.541155359369186
 20
2.582519446701808
 30
0.0
 41
1.0
 10
-5.548015047241525
 20
2.577385620941863
 30
0.0
 41
1.0
 10
-5.561026046859653
 20
2.57662009366422
 30
0.0
 41
1.0
 10
-5.562118872761024
 20
2.575237856501799
 30
0.0
 41
1.0
 10
-5.548256271726081
 20
2.56934593382275
 30
0.0
 41
1.0
 10
-5.530004374405814
 20
2.557435635371819
 30
0.0
 41
1.0
 10
-5.520465918038955
 20
2.540218765934453
 30
0.0
 41
1.0
 10
-5.524738617146629
 20
2.521265900403294
 30
0.0
 41
1.0
 10
-5.537575042615788
 20
2.505816505875946
 30
0.0
 41
1.0
 10
-5.55114079805034
 20
2.497988825605655
 30
0.0
 41
1.0
 10
-5.560089598599709
 20
2.498325160609226
 30
0.0
 41
1.0
 10
-5.567452664748364
 20
2.501393306899866
 30
0.0
 41
1.0
 10
-5.578191251835426
 20
2.500514773782908
 30
0.0
 41
1.0
 10
-5.591306804041955
 20
2.493603282101365
 30
0.0
 41
1.0
 10
-5.601413241059312
 20
2.482423231967147
 30
0.0
 41
1.0
 10
-5.60328384199399
 20
2.469764090601006
 30
0.0
 41
1.0
 10
-5.595975649387591
 20
2.457020064367134
 30
0.0
 41
1.0
 10
-5.581781596545633
 20
2.444329231757315
 30
0.0
 41
1.0
 10
-5.564226781768607
 20
2.431265481105463
 30
0.0
 41
1.0
 10
-5.546139827626111
 20
2.417404345265873
 30
0.0
 41
1.0
 10
-5.528614876725027
 20
2.402680127118268
 30
0.0
 41
1.0
 10
-5.511790766824362
 20
2.387205504838804
 30
0.0
 41
1.0
 10
-5.495215378694814
 20
2.371220244410089
 30
0.0
 41
1.0
 10
-5.478341630709778
 20
2.354992299117632
 30
0.0
 41
1.0
 10
-5.461053707945094
 20
2.338727748213448
 30
0.0
 41
1.0
 10
-5.443887116882112
 20
2.322516201172803
 30
0.0
 41
1.0
 10
-5.427620188587319
 20
2.306364701579002
 30
0.0
 41
1.0
 10
-5.412991538766504
 20
2.290210989522945
 30
0.0
 41
1.0
 10
-5.400399104789468
 20
2.273945716530472
 30
0.0
 41
1.0
 10
-5.389529716501708
 20
2.257429333637021
 30
0.0
 41
1.0
 10
-5.379282299273204
 20
2.240516208610441
 30
0.0
 41
1.0
 10
-5.368224915387743
 20
2.223086357816718
 30
0.0
 41
1.0
 10
-5.354946384410316
 20
2.205077901826133
 30
0.0
 41
1.0
 10
-5.338418483212472
 20
2.186514306365157
 30
0.0
 41
1.0
 10
-5.318434356749393
 20
2.167546353067727
 30
0.0
 41
1.0
 10
-5.2955164601372
 20
2.148410385850553
 30
0.0
 41
1.0
 10
-5.270629050127777
 20
2.129356039231528
 30
0.0
 41
1.0
 10
-5.244958736020082
 20
2.110585712927127
 30
0.0
 41
1.0
 10
-5.219659176136288
 20
2.092185364372142
 30
0.0
 41
1.0
 10
-5.195628395773042
 20
2.074067772117667
 30
0.0
 41
1.0
 10
-5.173230463701371
 20
2.055889303493546
 30
0.0
 41
1.0
 10
-5.152175896754137
 20
2.037046430943355
 30
0.0
 41
1.0
 10
-5.131785335317053
 20
2.016865559733561
 30
0.0
 41
1.0
 10
-5.111181617470331
 20
1.994758131647321
 30
0.0
 41
1.0
 10
-5.08950525226324
 20
1.970383925490132
 30
0.0
 41
1.0
 10
-5.066131357742515
 20
1.943823668202283
 30
0.0
 41
1.0
 10
-5.040859230125766
 20
1.915717782652021
 30
0.0
 41
1.0
 10
-5.014180144774363
 20
1.887493959703059
 30
0.0
 41
1.0
 10
-4.98723744886568
 20
1.861250042329278
 30
0.0
 41
1.0
 10
-4.961512178215703
 20
1.839328748651395
 30
0.0
 41
1.0
 10
-4.938589058855675
 20
1.823984814123254
 30
0.0
 41
1.0
 10
-4.919882126835572
 20
1.817001078096777
 30
0.0
 41
1.0
 10
-4.906394789322568
 20
1.819356799238285
 30
0.0
 41
1.0
 10
-4.898423826851619
 20
1.830800428855773
 30
0.0
 41
1.0
 10
-4.895417040657875
 20
1.849692998258228
 30
0.0
 41
1.0
 10
-4.896305256050055
 20
1.873693273268617
 30
0.0
 41
1.0
 10
-4.899752699593788
 20
1.900297376579733
 30
0.0
 41
1.0
 10
-4.904440911824008
 20
1.92743930417018
 30
0.0
 41
1.0
 10
-4.909334453655914
 20
1.954055509855701
 30
0.0
 41
1.0
 10
-4.913645257951094
 20
1.979845079807626
 30
0.0
 41
1.0
 10
-4.916799059146261
 20
2.005039943563212
 30
0.0
 41
1.0
 10
-4.918400975437532
 20
2.030166474926955
 30
0.0
 41
1.0
 10
-4.918201981545348
 20
2.055822479158634
 30
0.0
 41
1.0
 10
-4.916063738049758
 20
2.082419316803906
 30
0.0
 41
1.0
 10
-4.911928272877975
 20
2.110031081418127
 30
0.0
 41
1.0
 10
-4.905799172052404
 20
2.138500368114068
 30
0.0
 41
1.0
 10
-4.897720532766351
 20
2.167493697463618
 30
0.0
 41
1.0
 10
-4.887756784615952
 20
2.196577021455866
 30
0.0
 41
1.0
 10
-4.87597219630229
 20
2.225282456997036
 30
0.0
 41
1.0
 10
-4.862410389018172
 20
2.25317923933896
 30
0.0
 41
1.0
 10
-4.847074205503458
 20
2.279941630772721
 30
0.0
 41
1.0
 10
-4.829940759058878
 20
2.305308592577051
 30
0.0
 41
1.0
 10
-4.810976058759961
 20
2.329043698444494
 30
0.0
 41
1.0
 10
-4.790149785471987
 20
2.350896443989756
 30
0.0
 41
1.0
 10
-4.767450019373674
 20
2.370559645227237
 30
0.0
 41
1.0
 10
-4.742897953195935
 20
2.387636245267022
 30
0.0
 41
1.0
 10
-4.716562700870177
 20
2.401583021890511
 30
0.0
 41
1.0
 10
-4.688575761376903
 20
2.41173738175706
 30
0.0
 41
1.0
 10
-4.659145282150528
 20
2.417436779754114
 30
0.0
 41
1.0
 10
-4.628570114728578
 20
2.418113183382657
 30
0.0
 41
1.0
 10
-4.597254532290433
 20
2.413398967990194
 30
0.0
 41
1.0
 10
-4.565721352414099
 20
2.403225029152745
 30
0.0
 41
1.0
 10
-4.534628883511341
 20
2.387929149892511
 30
0.0
 41
1.0
 10
-4.504777243006532
 20
2.368340174493474
 30
0.0
 41
1.0
 10
-4.476997538631633
 20
2.345603415918243
 30
0.0
 41
1.0
 10
-4.452049218826449
 20
2.321024447153581
 30
0.0
 41
1.0
 10
-4.430514959343639
 20
2.295906447042393
 30
0.0
 41
1.0
 10
-4.412695124496422
 20
2.271389095419485
 30
0.0
 41
1.0
 10
-4.398505792877331
 20
2.248289561308358
 30
0.0
 41
1.0
 10
-4.387367170406253
 20
2.226936008551829
 30
0.0
 41
1.0
 10
-4.378118770393887
 20
2.207022844260817
 30
0.0
 41
1.0
 10
-4.36939669165689
 20
2.187853878258037
 30
0.0
 41
1.0
 10
-4.359994243850384
 20
2.16856878916952
 30
0.0
 41
1.0
 10
-4.349217510664476
 20
2.148371688875097
 30
0.0
 41
1.0
 10
-4.337269457142385
 20
2.126768510287688
 30
0.0
 41
1.0
 10
-4.325545299593761
 20
2.103772693406337
 30
0.0
 41
1.0
 10
-4.315942648337258
 20
2.079767341596419
 30
0.0
 41
1.0
 10
-4.310265891213153
 20
2.055393761526257
 30
0.0
 41
1.0
 10
-4.309556917541736
 20
2.031430061743182
 30
0.0
 41
1.0
 10
-4.313543881388114
 20
2.008673743459024
 30
0.0
 41
1.0
 10
-4.319813808467528
 20
1.987823580032014
 30
0.0
 41
1.0
 10
-4.324668150635461
 20
1.969340709141897
 30
0.0
 41
1.0
 10
-4.324580182117255
 20
1.953278242609968
 30
0.0
 41
1.0
 10
-4.317286728821605
 20
1.939164947524067
 30
0.0
 41
1.0
 10
-4.303425131559212
 20
1.925762593744387
 30
0.0
 41
1.0
 10
-4.28629674194684
 20
1.911309732029359
 30
0.0
 41
1.0
 10
-4.270152218940641
 20
1.894152998715652
 30
0.0
 41
1.0
 10
-4.258862376503575
 20
1.873285359838092
 30
0.0
 41
1.0
 10
-4.254505061447253
 20
1.848884371904351
 30
0.0
 41
1.0
 10
-4.255790561640651
 20
1.822952244511846
 30
0.0
 41
1.0
 10
-4.259131960770135
 20
1.798573401839501
 30
0.0
 41
1.0
 10
-4.260076989137735
 20
1.778980558874979
 30
0.0
 41
1.0
 10
-4.254552892515527
 20
1.766732376367861
 30
0.0
 41
1.0
 10
-4.240322861190223
 20
1.762744054304438
 30
0.0
 41
1.0
 10
-4.217949451728889
 20
1.765684225082559
 30
0.0
 41
1.0
 10
-4.189719110157684
 20
1.772914284827385
 30
0.0
 41
1.0
 10
-4.158864432086172
 20
1.781199398061152
 30
0.0
 41
1.0
 10
-4.128650104197952
 20
1.787528863958607
 30
0.0
 41
1.0
 10
-4.101564308852668
 20
1.789842519060506
 30
0.0
 41
1.0
 10
-4.07833903719478
 20
1.787923348358759
 30
0.0
 41
1.0
 10
-4.058409433087754
 20
1.78284952235354
 30
0.0
 41
1.0
 10
-4.040593921902194
 20
1.776221590686385
 30
0.0
 41
1.0
 10
-4.023676159399392
 20
1.769494170240614
 30
0.0
 41
1.0
 10
-4.007076103992738
 20
1.763204703902352
 30
0.0
 41
1.0
 10
-3.991340220982106
 20
1.756422547496512
 30
0.0
 41
1.0
 10
-3.977499598732588
 20
1.747610400716483
 30
0.0
 41
1.0
 10
-3.966597424320485
 20
1.735266795833532
 30
0.0
 41
1.0
 10
-3.959053545789533
 20
1.718790175505653
 30
0.0
 41
1.0
 10
-3.954427009347205
 20
1.698787142489767
 30
0.0
 41
1.0
 10
-3.951830889392526
 20
1.676464677056507
 30
0.0
 41
1.0
 10
-3.950209379705608
 20
1.653214425646119
 30
0.0
 41
1.0
 10
-3.948655305728723
 20
1.630144267879446
 30
0.0
 41
1.0
 10
-3.946749007734129
 20
1.607568982754844
 30
0.0
 41
1.0
 10
-3.94448097821562
 20
1.585184528075569
 30
0.0
 41
1.0
 10
-3.942106626990998
 20
1.562350553736362
 30
0.0
 41
1.0
 10
-3.94002208961658
 20
1.538342865015017
 30
0.0
 41
1.0
 10
-3.938638428574806
 20
1.512599192343642
 30
0.0
 41
1.0
 10
-3.93823788686999
 20
1.485017581936297
 30
0.0
 41
1.0
 10
-3.938957668695938
 20
1.455911671153347
 30
0.0
 41
1.0
 10
-3.940816621486945
 20
1.425850608352166
 30
0.0
 41
1.0
 10
-3.943727762495969
 20
1.395539562333163
 30
0.0
 41
1.0
 10
-3.947516352059801
 20
1.365678437749372
 30
0.0
 41
1.0
 10
-3.951936433302856
 20
1.336841171271009
 30
0.0
 41
1.0
 10
-3.956685929401811
 20
1.309318606542831
 30
0.0
 41
1.0
 10
-3.961430260957326
 20
1.283079998438324
 30
0.0
 41
1.0
 10
-3.965837740393949
 20
1.257878898386884
 30
0.0
 41
1.0
 10
-3.969611231414569
 20
1.233321340479452
 30
0.0
 41
1.0
 10
-3.972522826958403
 20
1.208951391404971
 30
0.0
 41
1.0
 10
-3.974443762240706
 20
1.18432447036567
 30
0.0
 41
1.0
 10
-3.975385325561292
 20
1.159098258399101
 30
0.0
 41
1.0
 10
-3.975479180025523
 20
1.133039094205664
 30
0.0
 41
1.0
 10
-3.974936751618649
 20
1.106000110503057
 30
0.0
 41
1.0
 10
-3.974015818750125
 20
1.077908830422543
 30
0.0
 41
1.0
 10
-3.972983435671033
 20
1.048750403341438
 30
0.0
 41
1.0
 10
-3.972081981029092
 20
1.018553692757271
 30
0.0
 41
1.0
 10
-3.971489754252856
 20
0.9873735561033043
 30
0.0
 41
1.0
 10
-3.97132684970285
 20
0.9553015785563459
 30
0.0
 41
1.0
 10
-3.971667825786036
 20
0.922480811679679
 30
0.0
 41
1.0
 10
-3.972552129819906
 20
0.8891195233015285
 30
0.0
 41
1.0
 10
-3.973995155450401
 20
0.8555044590331812
 30
0.0
 41
1.0
 10
-3.975999742693055
 20
0.8220164192680437
 30
0.0
 41
1.0
 10
-3.978565801710593
 20
0.7891399010501327
 30
0.0
 41
1.0
 10
-3.981705182130015
 20
0.7574883186428431
 30
0.0
 41
1.0
 10
-3.985415439662694
 20
0.727708875422528
 30
0.0
 41
1.0
 10
-3.989644421665284
 20
0.7003609312551431
 30
0.0
 41
1.0
 10
-3.994259395376049
 20
0.6758069518345688
 30
0.0
 41
1.0
 10
-3.999011193088522
 20
0.6540904908167206
 30
0.0
 41
1.0
 10
-4.003507675957203
 20
0.6348376742799087
 30
0.0
 41
1.0
 10
-4.00716444440563
 20
0.6171017950099359
 30
0.0
 41
1.0
 10
-4.009299754390108
 20
0.5995656948313416
 30
0.0
 41
1.0
 10
-4.009277640916351
 20
0.5808604130579825
 30
0.0
 41
1.0
 10
-4.006622286200337
 20
0.5598194967415216
 30
0.0
 41
1.0
 10
-4.001174540629457
 20
0.535820827116318
 30
0.0
 41
1.0
 10
-3.99309747739365
 20
0.5088235313675697
 30
0.0
 41
1.0
 10
-3.982777281016663
 20
0.4791947724911424
 30
0.0
 41
1.0
 10
-3.970754671408809
 20
0.4475978152679333
 30
0.0
 41
1.0
 10
-3.957643973827505
 20
0.4148552026605359
 30
0.0
 41
1.0
 10
-3.944057000388019
 20
0.3818218631267101
 30
0.0
 41
1.0
 10
-3.930526018336919
 20
0.3492557174268764
 30
0.0
 41
1.0
 10
-3.917423951355094
 20
0.3176845314649376
 30
0.0
 41
1.0
 10
-3.904982342840593
 20
0.2874215532948475
 30
0.0
 41
1.0
 10
-3.893313712059504
 20
0.2585878148169499
 30
0.0
 41
1.0
 10
-3.882432270155076
 20
0.2311321681937055
 30
0.0
 41
1.0
 10
-3.872275361649713
 20
0.2048518102924085
 30
0.0
 41
1.0
 10
-3.862724501755149
 20
0.1794136562036888
 30
0.0
 41
1.0
 10
-3.853626792661796
 20
0.1543727859307753
 30
0.0
 41
1.0
 10
-3.844815548915107
 20
0.1291997633850115
 30
0.0
 41
1.0
 10
-3.836126941838134
 20
0.1033558795709304
 30
0.0
 41
1.0
 10
-3.82741716792648
 20
0.0763625984176974
 30
0.0
 41
1.0
 10
-3.818579337731886
 20
0.0478729448476628
 30
0.0
 41
1.0
 10
-3.809560663386603
 20
0.0177427697990125
 30
0.0
 41
1.0
 10
-3.800379101212566
 20
-0.01389956621402
 30
0.0
 41
1.0
 10
-3.791141382601605
 20
-0.0465783033654853
 30
0.0
 41
1.0
 10
-3.78201081110559
 20
-0.0795923556020737
 30
0.0
 41
1.0
 10
-3.773173600891797
 20
-0.1121431511783444
 30
0.0
 41
1.0
 10
-3.764805725902502
 20
-0.1434604479777101
 30
0.0
 41
1.0
 10
-3.757039611774455
 20
-0.1729287786965589
 30
0.0
 41
1.0
 10
-3.749930756894209
 20
-0.20021415749635
 30
0.0
 41
1.0
 10
-3.743424701691225
 20
-0.2253894504428234
 30
0.0
 41
1.0
 10
-3.737322977005766
 20
-0.2490636654728767
 30
0.0
 41
1.0
 10
-3.731333722071419
 20
-0.2721901987784839
 30
0.0
 41
1.0
 10
-3.725122381366868
 20
-0.2958750695816806
 30
0.0
 41
1.0
 10
-3.718363985536462
 20
-0.3211784808686708
 30
0.0
 41
1.0
 10
-3.710791092312748
 20
-0.348934391663497
 30
0.0
 41
1.0
 10
-3.702252513241385
 20
-0.3795254270389818
 30
0.0
 41
1.0
 10
-3.692736145282718
 20
-0.4128064003152666
 30
0.0
 41
1.0
 10
-3.6823342242714
 20
-0.4482665227496331
 30
0.0
 41
1.0
 10
-3.671222007409746
 20
-0.4851355492453584
 30
0.0
 41
1.0
 10
-3.659631008405923
 20
-0.5225135199805906
 30
0.0
 41
1.0
 10
-3.647824662453095
 20
-0.5594880515023954
 30
0.0
 41
1.0
 10
-3.636072723918395
 20
-0.59526243702567
 30
0.0
 41
1.0
 10
-3.624626734885007
 20
-0.6292663399559216
 30
0.0
 41
1.0
 10
-3.613693725068599
 20
-0.6613057225068807
 30
0.0
 41
1.0
 10
-3.603416211832657
 20
-0.6915631380162557
 30
0.0
 41
1.0
 10
-3.59385771362303
 20
-0.7204733847117981
 30
0.0
 41
1.0
 10
-3.584986202485169
 20
-0.7486338839307766
 30
0.0
 41
1.0
 10
-3.576659483856369
 20
-0.7767021192077042
 30
0.0
 41
1.0
 10
-3.568607240768558
 20
-0.8052956204103702
 30
0.0
 41
1.0
 10
-3.560420380395738
 20
-0.8348979018944726
 30
0.0
 41
1.0
 10
-3.551522057495752
 20
-0.8657436240341208
 30
0.0
 41
1.0
 10
-3.541245641632646
 20
-0.8978315601269441
 30
0.0
 41
1.0
 10
-3.528946629936211
 20
-0.9309784888500425
 30
0.0
 41
1.0
 10
-3.514103224746134
 20
-0.9648594361598931
 30
0.0
 41
1.0
 10
-3.496421753830107
 20
-0.9990536277021622
 30
0.0
 41
1.0
 10
-3.475939797239171
 20
-1.033087956427707
 30
0.0
 41
1.0
 10
-3.453130846242517
 20
-1.066481577828781
 30
0.0
 41
1.0
 10
-3.429007074833769
 20
-1.098789871622583
 30
0.0
 41
1.0
 10
-3.405226535734367
 20
-1.129649082665306
 30
0.0
 41
1.0
 10
-3.383736655043592
 20
-1.158776463586374
 30
0.0
 41
1.0
 10
-3.366408237189208
 20
-1.185969967297595
 30
0.0
 41
1.0
 10
-3.354681442320446
 20
-1.211108096507808
 30
0.0
 41
1.0
 10
-3.349187543757812
 20
-1.234149718040534
 30
0.0
 41
1.0
 10
-3.349425500481915
 20
-1.255133836640931
 30
0.0
 41
1.0
 10
-3.353307846919772
 20
-1.27417952342105
 30
0.0
 41
1.0
 10
-3.357101284748035
 20
-1.291485667323523
 30
0.0
 41
1.0
 10
-3.356913089484393
 20
-1.307336417682831
 30
0.0
 41
1.0
 10
-3.349803971004419
 20
-1.322100262790695
 30
0.0
 41
1.0
 10
-3.335320898965437
 20
-1.336243428198758
 30
0.0
 41
1.0
 10
-3.315937654125042
 20
-1.350298027704635
 30
0.0
 41
1.0
 10
-3.295634149233695
 20
-1.364753280795665
 30
0.0
 41
1.0
 10
-3.278833655936282
 20
-1.379957298282602
 30
0.0
 41
1.0
 10
-3.269304366215463
 20
-1.396028410159446
 30
0.0
 41
1.0
 10
-3.2688095357933
 20
-1.412728230399724
 30
0.0
 41
1.0
 10
-3.277087461797974
 20
-1.42950838894204
 30
0.0
 41
1.0
 10
-3.292777089685113
 20
-1.445680198211145
 30
0.0
 41
1.0
 10
-3.31401445772182
 20
-1.460537888522911
 30
0.0
 41
1.0
 10
-3.339274316265677
 20
-1.473524341358707
 30
0.0
 41
1.0
 10
-3.367499651499019
 20
-1.48424897202777
 30
0.0
 41
1.0
 10
-3.397973174476703
 20
-1.492448683891312
 30
0.0
 41
1.0
 10
-3.430269539185696
 20
-1.497966851145769
 30
0.0
 41
1.0
 10
-3.457393136510072
 20
-1.500173214298593
 30
0.0
 41
1.0
 10
-3.478427609071282
 20
-1.500574202056633
 30
0.0
 41
1.0
 10
-3.492758001165793
 20
-1.500284288378743
 30
0.0
 41
1.0
 10
-3.500000052154063
 20
-1.500000022351741
 30
0.0
 41
1.0
  0
LINE
  5
89
330
70
100
AcDbEntity
  8
jennie v3_Sketch3
100
AcDbLine
 10
-7.684912223401616
 20
2.788663232522992
 30
0.0
 11
-5.619439450391426
 21
3.022081830151622
 31
0.0
  0
LINE
  5
8A
330
70
100
AcDbEntity
  8
jennie v3_Sketch3
100
AcDbLine
 10
-5.619439450391426
 20
3.022081830151622
 30
0.0
 11
-5.700999708523133
 21
3.743791643517625
 31
0.0
  0
LINE
  5
8B
330
70
100
AcDbEntity
  8
jennie v3_Sketch3
100
AcDbLine
 10
-7.766472481533322
 20
3.510373045888995
 30
0.0
 11
-7.684912223401616
 21
2.788663232522992
 31
0.0
  0
POINT
  5
8D
330
70
100
AcDbEntity
  8
jennie v3_Sketch4
100
AcDbPoint
 10
0.0
 20
0.0
 30
0.0
  0
SPLINE
  5
8E
330
70
100
AcDbEntity
  8
jennie v3_Sketch4
100
AcDbSpline
210
0.0
220
0.0
230
1.0
 70
    15
 71
     5
 72
   116
 73
   110
 74
     0
 42
0.000000001
 43
0.0000000001
 40
0.0
 40
0.0
 40
0.0
 40
0.0
 40
0.0
 40
0.0
 40
0.0095238095238095
 40
0.0190476190476191
 40
0.0285714285714286
 40
0.0380952380952381
 40
0.0476190476190476
 40
0.0571428571428572
 40
0.0666666666666667
 40
0.0761904761904762
 40
0.0857142857142858
 40
0.0952380952380953
 40
0.1047619047619047
 40
0.1142857142857143
 40
0.1238095238095238
 40
0.1333333333333333
 40
0.1428571428571428
 40
0.1523809523809523
 40
0.1619047619047619
 40
0.1714285714285714
 40
0.1809523809523809
 40
0.1904761904761904
 40
0.1999999999999999
 40
0.2095238095238094
 40
0.219047619047619
 40
0.2285714285714285
 40
0.238095238095238
 40
0.2476190476190475
 40
0.2571428571428571
 40
0.2666666666666666
 40
0.2761904761904761
 40
0.2857142857142857
 40
0.2952380952380952
 40
0.3047619047619048
 40
0.3142857142857143
 40
0.3238095238095239
 40
0.3333333333333334
 40
0.342857142857143
 40
0.3523809523809525
 40
0.361904761904762
 40
0.3714285714285716
 40
0.3809523809523811
 40
0.3904761904761907
 40
0.4000000000000003
 40
0.4095238095238098
 40
0.4190476190476194
 40
0.428571428571429
 40
0.4380952380952384
 40
0.447619047619048
 40
0.4571428571428575
 40
0.4666666666666671
 40
0.4761904761904767
 40
0.4857142857142862
 40
0.4952380952380957
 40
0.5047619047619052
 40
0.5142857142857147
 40
0.5238095238095242
 40
0.5333333333333337
 40
0.5428571428571432
 40
0.5523809523809527
 40
0.5619047619047622
 40
0.5714285714285717
 40
0.5809523809523811
 40
0.5904761904761906
 40
0.6000000000000001
 40
0.6095238095238096
 40
0.6190476190476191
 40
0.6285714285714286
 40
0.6380952380952381
 40
0.6476190476190476
 40
0.6571428571428571
 40
0.6666666666666666
 40
0.676190476190476
 40
0.6857142857142855
 40
0.695238095238095
 40
0.7047619047619045
 40
0.714285714285714
 40
0.7238095238095235
 40
0.733333333333333
 40
0.7428571428571425
 40
0.752380952380952
 40
0.7619047619047615
 40
0.7714285714285709
 40
0.7809523809523804
 40
0.7904761904761899
 40
0.7999999999999994
 40
0.8095238095238087
 40
0.8190476190476182
 40
0.8285714285714277
 40
0.8380952380952372
 40
0.8476190476190467
 40
0.8571428571428562
 40
0.8666666666666657
 40
0.8761904761904752
 40
0.8857142857142846
 40
0.8952380952380941
 40
0.9047619047619036
 40
0.9142857142857131
 40
0.9238095238095226
 40
0.9333333333333321
 40
0.9428571428571416
 40
0.9523809523809511
 40
0.9619047619047606
 40
0.9714285714285701
 40
0.9809523809523795
 40
0.990476190476189
 40
1.0
 40
1.0
 40
1.0
 40
1.0
 40
1.0
 40
1.0
 10
-4.915865163901043
 20
1.815004683043552
 30
0.0
 41
1.0
 10
-4.916639549959172
 20
1.813522231303777
 30
0.0
 41
1.0
 10
-4.917009679182453
 20
1.809846186431008
 30
0.0
 41
1.0
 10
-4.91414143931401
 20
1.802230679649066
 30
0.0
 41
1.0
 10
-4.904921304045242
 20
1.788531385969527
 30
0.0
 41
1.0
 10
-4.890772965663756
 20
1.76868833393612
 30
0.0
 41
1.0
 10
-4.880769788083838
 20
1.74972461618246
 30
0.0
 41
1.0
 10
-4.879947633185945
 20
1.734603498706499
 30
0.0
 41
1.0
 10
-4.888957725455402
 20
1.724379379378512
 30
0.0
 41
1.0
 10
-4.903035231074366
 20
1.7176399953344
 30
0.0
 41
1.0
 10
-4.915420053985072
 20
1.711901239039787
 30
0.0
 41
1.0
 10
-4.919676511748607
 20
1.704532858625268
 30
0.0
 41
1.0
 10
-4.913034301124226
 20
1.694094844399342
 30
0.0
 41
1.0
 10
-4.896569075937271
 20
1.680450738021498
 30
0.0
 41
1.0
 10
-4.873622773361363
 20
1.664207726930789
 30
0.0
 41
1.0
 10
-4.848739892341664
 20
1.646352853832358
 30
0.0
 41
1.0
 10
-4.826419183943079
 20
1.627820636059623
 30
0.0
 41
1.0
 10
-4.809879791885307
 20
1.609061671332747
 30
0.0
 41
1.0
 10
-4.800010158489664
 20
1.589694027853886
 30
0.0
 41
1.0
 10
-4.796095105257453
 20
1.568949233102948
 30
0.0
 41
1.0
 10
-4.796360868585913
 20
1.546030715747978
 30
0.0
 41
1.0
 10
-4.798602650249837
 20
1.520525356966683
 30
0.0
 41
1.0
 10
-4.800746697358679
 20
1.492748153251062
 30
0.0
 41
1.0
 10
-4.801512530400207
 20
1.464222838901688
 30
0.0
 41
1.0
 10
-4.800803699706866
 20
1.437767041908711
 30
0.0
 41
1.0
 10
-4.799330643969072
 20
1.416467908926379
 30
0.0
 41
1.0
 10
-4.798372287987408
 20
1.402832353450449
 30
0.0
 41
1.0
 10
-4.79948033222131
 20
1.397918294938264
 30
0.0
 41
1.0
 10
-4.804215110854975
 20
1.400355482876822
 30
0.0
 41
1.0
 10
-4.81384750018573
 20
1.40575873175288
 30
0.0
 41
1.0
 10
-4.828894478094217
 20
1.408921874007857
 30
0.0
 41
1.0
 10
-4.848675069783756
 20
1.405706132945454
 30
0.0
 41
1.0
 10
-4.870847342992696
 20
1.395068701740654
 30
0.0
 41
1.0
 10
-4.892090063860824
 20
1.378228041095149
 30
0.0
 41
1.0
 10
-4.908775962470079
 20
1.35784305367758
 30
0.0
 41
1.0
 10
-4.917679867110968
 20
1.337156371909777
 30
0.0
 41
1.0
 10
-4.916599471523755
 20
1.31922277781266
 30
0.0
 41
1.0
 10
-4.905193284383693
 20
1.305930309988865
 30
0.0
 41
1.0
 10
-4.885022162736709
 20
1.297781185759827
 30
0.0
 41
1.0
 10
-4.858774480583655
 20
1.294450874452359
 30
0.0
 41
1.0
 10
-4.829714892548038
 20
1.29513455260881
 30
0.0
 41
1.0
 10
-4.801035848430736
 20
1.298985414968089
 30
0.0
 41
1.0
 10
-4.775265799868666
 20
1.305500927219678
 30
0.0
 41
1.0
 10
-4.753612144998323
 20
1.314965820949995
 30
0.0
 41
1.0
 10
-4.736207077867692
 20
1.328129241132812
 30
0.0
 41
1.0
 10
-4.722407405164974
 20
1.345835035836367
 30
0.0
 41
1.0
 10
-4.711073241569036
 20
1.368672397811456
 30
0.0
 41
1.0
 10
-4.700858048623304
 20
1.396610034632665
 30
0.0
 41
1.0
 10
-4.690487021206267
 20
1.428655392874453
 30
0.0
 41
1.0
 10
-4.67905826691641
 20
1.462453027724326
 30
0.0
 41
1.0
 10
-4.666015676177711
 20
1.494804406871198
 30
0.0
 41
1.0
 10
-4.651096257100263
 20
1.522263981348448
 30
0.0
 41
1.0
 10
-4.63428713790334
 20
1.541699343517599
 30
0.0
 41
1.0
 10
-4.61577800152691
 20
1.550885056308808
 30
0.0
 41
1.0
 10
-4.595917143852839
 20
1.549039752253961
 30
0.0
 41
1.0
 10
-4.575162430654749
 20
1.537491007060886
 30
0.0
 41
1.0
 10
-4.554045881223152
 20
1.519970516558385
 30
0.0
 41
1.0
 10
-4.533193308304219
 20
1.501435973168621
 30
0.0
 41
1.0
 10
-4.513333013559491
 20
1.487141147534242
 30
0.0
 41
1.0
 10
-4.495314399532836
 20
1.481558259778279
 30
0.0
 41
1.0
 10
-4.480109631933508
 20
1.487480000091377
 30
0.0
 41
1.0
 10
-4.468854130487393
 20
1.504755878952473
 30
0.0
 41
1.0
 10
-4.462750057402992
 20
1.530280013315055
 30
0.0
 41
1.0
 10
-4.462808790573961
 20
1.559413478964076
 30
0.0
 41
1.0
 10
-4.46964161344411
 20
1.587013921539037
 30
0.0
 41
1.0
 10
-4.483216861985153
 20
1.608663833873517
 30
0.0
 41
1.0
 10
-4.50266292590983
 20
1.621722509552047
 30
0.0
 41
1.0
 10
-4.525967666267566
 20
1.62669447826373
 30
0.0
 41
1.0
 10
-4.550433532995766
 20
1.62640028295477
 30
0.0
 41
1.0
 10
-4.573267303815223
 20
1.624742121621458
 30
0.0
 41
1.0
 10
-4.592152330726598
 20
1.625559644698652
 30
0.0
 41
1.0
 10
-4.605762795367925
 20
1.631561240229292
 30
0.0
 41
1.0
 10
-4.614462419797067
 20
1.642947848627215
 30
0.0
 41
1.0
 10
-4.620369233454034
 20
1.657125580038472
 30
0.0
 41
1.0
 10
-4.626265377891725
 20
1.670399631595177
 30
0.0
 41
1.0
 10
-4.634842447585342
 20
1.679106798792648
 30
0.0
 41
1.0
 10
-4.647648687795215
 20
1.681221003145639
 30
0.0
 41
1.0
 10
-4.664755876385353
 20
1.676858965703255
 30
0.0
 41
1.0
 10
-4.685274517636233
 20
1.667502220490651
 30
0.0
 41
1.0
 10
-4.707668957953588
 20
1.655523608418541
 30
0.0
 41
1.0
 10
-4.730131476574156
 20
1.643618435639954
 30
0.0
 41
1.0
 10
-4.750984051244064
 20
1.634209657940162
 30
0.0
 41
1.0
 10
-4.768834685847674
 20
1.629157511643423
 30
0.0
 41
1.0
 10
-4.782534268792864
 20
1.629715624318236
 30
0.0
 41
1.0
 10
-4.791195040346933
 20
1.636419500012632
 30
0.0
 41
1.0
 10
-4.794178792931287
 20
1.648988681815329
 30
0.0
 41
1.0
 10
-4.791112692737709
 20
1.666262366565914
 30
0.0
 41
1.0
 10
-4.782057329625642
 20
1.686560860380001
 30
0.0
 41
1.0
 10
-4.767661034078655
 20
1.708006457926979
 30
0.0
 41
1.0
 10
-4.749324426126287
 20
1.728862978127588
 30
0.0
 41
1.0
 10
-4.729350085979458
 20
1.747859943654865
 30
0.0
 41
1.0
 10
-4.711129911390836
 20
1.764544120974657
 30
0.0
 41
1.0
 10
-4.698311220477639
 20
1.778992524897418
 30
0.0
 41
1.0
 10
-4.693882486051506
 20
1.791485790880405
 30
0.0
 41
1.0
 10
-4.699352380488777
 20
1.802217091067939
 30
0.0
 41
1.0
 10
-4.713739664855613
 20
1.810937514752583
 30
0.0
 41
1.0
 10
-4.733082638770292
 20
1.816771358061401
 30
0.0
 41
1.0
 10
-4.752420601697881
 20
1.818821379602932
 30
0.0
 41
1.0
 10
-4.76757122407515
 20
1.816718744353597
 30
0.0
 41
1.0
 10
-4.776753510222696
 20
1.811100030800546
 30
0.0
 41
1.0
 10
-4.782869003657059
 20
1.804354736811293
 30
0.0
 41
1.0
 10
-4.791303197894086
 20
1.799581039250722
 30
0.0
 41
1.0
 10
-4.806957083606985
 20
1.799264704820946
 30
0.0
 41
1.0
 10
-4.830851364666353
 20
1.803719165631067
 30
0.0
 41
1.0
 10
-4.859550798652463
 20
1.810900072170802
 30
0.0
 41
1.0
 10
-4.887558666523288
 20
1.817647342280111
 30
0.0
 41
1.0
 10
-4.904623816653359
 20
1.819956131108175
 30
0.0
 41
1.0
 10
-4.912363362833681
 20
1.818740896869654
 30
0.0
 41
1.0
 10
-4.915090777842914
 20
1.816487134783326
 30
0.0
 41
1.0
 10
-4.915865163901043
 20
1.815004683043552
 30
0.0
 41
1.0
  0
SPLINE
  5
8F
330
70
100
AcDbEntity
  8
jennie v3_Sketch4
100
AcDbSpline
210
0.0
220
0.0
230
1.0
 70
    15
 71
     5
 72
    66
 73
    60
 74
     0
 42
0.000000001
 43
0.0000000001
 40
0.0
 40
0.0
 40
0.0
 40
0.0
 40
0.0
 40
0.0
 40
0.0181818181818182
 40
0.0363636363636364
 40
0.0545454545454546
 40
0.0727272727272727
 40
0.0909090909090909
 40
0.1090909090909091
 40
0.1272727272727273
 40
0.1454545454545455
 40
0.1636363636363637
 40
0.1818181818181819
 40
0.2
 40
0.2181818181818182
 40
0.2363636363636364
 40
0.2545454545454546
 40
0.2727272727272727
 40
0.290909090909091
 40
0.3090909090909091
 40
0.3272727272727273
 40
0.3454545454545455
 40
0.3636363636363637
 40
0.3818181818181819
 40
0.4000000000000001
 40
0.4181818181818183
 40
0.4363636363636365
 40
0.4545454545454547
 40
0.4727272727272729
 40
0.490909090909091
 40
0.5090909090909092
 40
0.5272727272727274
 40
0.5454545454545455
 40
0.5636363636363637
 40
0.581818181818182
 40
0.6000000000000001
 40
0.6181818181818183
 40
0.6363636363636365
 40
0.6545454545454547
 40
0.6727272727272729
 40
0.690909090909091
 40
0.7090909090909092
 40
0.7272727272727275
 40
0.7454545454545456
 40
0.7636363636363638
 40
0.7818181818181821
 40
0.8000000000000001
 40
0.8181818181818183
 40
0.8363636363636365
 40
0.8545454545454546
 40
0.8727272727272728
 40
0.890909090909091
 40
0.9090909090909093
 40
0.9272727272727275
 40
0.9454545454545456
 40
0.9636363636363638
 40
0.981818181818182
 40
1.0
 40
1.0
 40
1.0
 40
1.0
 40
1.0
 40
1.0
 10
-4.710325225577943
 20
2.263766881715655
 30
0.0
 41
1.0
 10
-4.715473430310018
 20
2.2640937108839
 30
0.0
 41
1.0
 10
-4.725683738983309
 20
2.264008750188292
 30
0.0
 41
1.0
 10
-4.74060788114451
 20
2.261657875112461
 30
0.0
 41
1.0
 10
-4.75912466422485
 20
2.254298964599465
 30
0.0
 41
1.0
 10
-4.778445526139583
 20
2.239465006932734
 30
0.0
 41
1.0
 10
-4.792709954200193
 20
2.220837122372342
 30
0.0
 41
1.0
 10
-4.801291436656942
 20
2.200279858734084
 30
0.0
 41
1.0
 10
-4.804482593607852
 20
2.179269481701014
 30
0.0
 41
1.0
 10
-4.803814667350654
 20
2.158478114699778
 30
0.0
 41
1.0
 10
-4.801446351991912
 20
2.137975691015404
 30
0.0
 41
1.0
 10
-4.799531496305031
 20
2.1174376446777
 30
0.0
 41
1.0
 10
-4.799625613810191
 20
2.096344842459944
 30
0.0
 41
1.0
 10
-4.802003776380209
 20
2.074197004727416
 30
0.0
 41
1.0
 10
-4.805228686410163
 20
2.050687924168518
 30
0.0
 41
1.0
 10
-4.806949464253846
 20
2.02570101730171
 30
0.0
 41
1.0
 10
-4.804518548671472
 20
1.999327449046474
 30
0.0
 41
1.0
 10
-4.795711587990051
 20
1.971879411335788
 30
0.0
 41
1.0
 10
-4.779327330301927
 20
1.943898082486785
 30
0.0
 41
1.0
 10
-4.756035195028467
 20
1.916184428225817
 30
0.0
 41
1.0
 10
-4.728121448026999
 20
1.889717912393263
 30
0.0
 41
1.0
 10
-4.698693762983403
 20
1.865519288647155
 30
0.0
 41
1.0
 10
-4.671052589985583
 20
1.844529923149242
 30
0.0
 41
1.0
 10
-4.648005377533407
 20
1.827486728363492
 30
0.0
 41
1.0
 10
-4.631178799061427
 20
1.814792500791282
 30
0.0
 41
1.0
 10
-4.620390256927393
 20
1.806401670326417
 30
0.0
 41
1.0
 10
-4.612830691870028
 20
1.801661341974092
 30
0.0
 41
1.0
 10
-4.604648607778551
 20
1.799693819340502
 30
0.0
 41
1.0
 10
-4.592539222322929
 20
1.799770883529183
 30
0.0
 41
1.0
 10
-4.575731361052372
 20
1.801800356128722
 30
0.0
 41
1.0
 10
-4.555788304268263
 20
1.806210306834817
 30
0.0
 41
1.0
 10
-4.535270772939884
 20
1.813513617743774
 30
0.0
 41
1.0
 10
-4.516823584705982
 20
1.824002947244442
 30
0.0
 41
1.0
 10
-4.501946572239541
 20
1.837324511644844
 30
0.0
 41
1.0
 10
-4.490335385237106
 20
1.852309061162722
 30
0.0
 41
1.0
 10
-4.480796801480241
 20
1.867544754683313
 30
0.0
 41
1.0
 10
-4.471923963075561
 20
1.881843949191255
 30
0.0
 41
1.0
 10
-4.462818710809698
 20
1.894712987983043
 30
0.0
 41
1.0
 10
-4.45391450369094
 20
1.906923358708187
 30
0.0
 41
1.0
 10
-4.446540036200729
 20
1.920007059868371
 30
0.0
 41
1.0
 10
-4.44225311584554
 20
1.935554938871436
 30
0.0
 41
1.0
 10
-4.442281638432479
 20
1.954615546270872
 30
0.0
 41
1.0
 10
-4.446854333379234
 20
1.976971894138093
 30
0.0
 41
1.0
 10
-4.455427935550001
 20
2.00149926067517
 30
0.0
 41
1.0
 10
-4.467000752974849
 20
2.026625759339655
 30
0.0
 41
1.0
 10
-4.480405531996433
 20
2.050776635014021
 30
0.0
 41
1.0
 10
-4.494585737242623
 20
2.072776997308266
 30
0.0
 41
1.0
 10
-4.508939599529526
 20
2.092391288078745
 30
0.0
 41
1.0
 10
-4.523398332672233
 20
2.110342963611905
 30
0.0
 41
1.0
 10
-4.538227128838764
 20
2.127796508775129
 30
0.0
 41
1.0
 10
-4.553900973864463
 20
2.145981319983903
 30
0.0
 41
1.0
 10
-4.570951800843092
 20
2.165766722368254
 30
0.0
 41
1.0
 10
-4.58982497161043
 20
2.18723697878253
 30
0.0
 41
1.0
 10
-4.610740709418223
 20
2.209323237614571
 30
0.0
 41
1.0
 10
-4.633682873135538
 20
2.23024440467173
 30
0.0
 41
1.0
 10
-4.658377544178071
 20
2.24788866349953
 30
0.0
 41
1.0
 10
-4.679095461310963
 20
2.257751078965315
 30
0.0
 41
1.0
 10
-4.694794510590862
 20
2.262047775178825
 30
0.0
 41
1.0
 10
-4.705177020845869
 20
2.263440052547411
 30
0.0
 41
1.0
 10
-4.710325225577943
 20
2.263766881715655
 30
0.0
 41
1.0
  0
SPLINE
  5
90
330
70
100
AcDbEntity
  8
jennie v3_Sketch4
100
AcDbSpline
210
0.0
220
0.0
230
1.0
 70
    15
 71
     5
 72
   136
 73
   130
 74
     0
 42
0.000000001
 43
0.0000000001
 40
0.0
 40
0.0
 40
0.0
 40
0.0
 40
0.0
 40
0.0
 40
0.008
 40
0.016
 40
0.024
 40
0.032
 40
0.04
 40
0.048
 40
0.056
 40
0.064
 40
0.072
 40
0.08
 40
0.088
 40
0.0960000000000001
 40
0.104
 40
0.112
 40
0.1200000000000001
 40
0.1280000000000001
 40
0.1360000000000001
 40
0.1440000000000001
 40
0.1520000000000001
 40
0.1600000000000001
 40
0.1680000000000001
 40
0.1760000000000001
 40
0.1840000000000001
 40
0.1920000000000001
 40
0.2000000000000001
 40
0.2080000000000001
 40
0.2160000000000001
 40
0.2240000000000001
 40
0.2320000000000002
 40
0.2400000000000002
 40
0.2480000000000002
 40
0.2560000000000002
 40
0.2640000000000002
 40
0.2720000000000002
 40
0.2800000000000002
 40
0.2880000000000002
 40
0.2960000000000002
 40
0.3040000000000002
 40
0.3120000000000002
 40
0.3200000000000002
 40
0.3280000000000002
 40
0.3360000000000002
 40
0.3440000000000003
 40
0.3520000000000003
 40
0.3600000000000003
 40
0.3680000000000003
 40
0.3760000000000003
 40
0.3840000000000003
 40
0.3920000000000003
 40
0.4000000000000003
 40
0.4080000000000003
 40
0.4160000000000003
 40
0.4240000000000003
 40
0.4320000000000003
 40
0.4400000000000003
 40
0.4480000000000003
 40
0.4560000000000004
 40
0.4640000000000004
 40
0.4720000000000004
 40
0.4800000000000004
 40
0.4880000000000004
 40
0.4960000000000004
 40
0.5040000000000004
 40
0.5120000000000004
 40
0.5200000000000004
 40
0.5280000000000004
 40
0.5360000000000004
 40
0.5440000000000004
 40
0.5520000000000004
 40
0.5600000000000004
 40
0.5680000000000005
 40
0.5760000000000005
 40
0.5840000000000005
 40
0.5920000000000005
 40
0.6000000000000005
 40
0.6080000000000005
 40
0.6160000000000005
 40
0.6240000000000005
 40
0.6320000000000005
 40
0.6400000000000005
 40
0.6480000000000005
 40
0.6560000000000005
 40
0.6640000000000005
 40
0.6720000000000005
 40
0.6800000000000006
 40
0.6880000000000006
 40
0.6960000000000006
 40
0.7040000000000006
 40
0.7120000000000006
 40
0.7200000000000006
 40
0.7280000000000006
 40
0.7360000000000006
 40
0.7440000000000006
 40
0.7520000000000006
 40
0.7600000000000006
 40
0.7680000000000006
 40
0.7760000000000006
 40
0.7840000000000006
 40
0.7920000000000007
 40
0.8000000000000005
 40
0.8080000000000005
 40
0.8160000000000005
 40
0.8240000000000005
 40
0.8320000000000005
 40
0.8400000000000005
 40
0.8480000000000005
 40
0.8560000000000005
 40
0.8640000000000005
 40
0.8720000000000005
 40
0.8800000000000006
 40
0.8880000000000006
 40
0.8960000000000006
 40
0.9040000000000006
 40
0.9120000000000006
 40
0.9200000000000006
 40
0.9280000000000006
 40
0.9360000000000006
 40
0.9440000000000006
 40
0.9520000000000006
 40
0.9600000000000006
 40
0.9680000000000006
 40
0.9760000000000006
 40
0.9840000000000006
 40
0.9920000000000007
 40
1.0
 40
1.0
 40
1.0
 40
1.0
 40
1.0
 40
1.0
 10
-4.26156302690584
 20
1.386796478203759
 30
0.0
 41
1.0
 10
-4.253884482351065
 20
1.38637809105834
 30
0.0
 41
1.0
 10
-4.238795046728617
 20
1.386852250126287
 30
0.0
 41
1.0
 10
-4.217010657728828
 20
1.391455734579222
 30
0.0
 41
1.0
 10
-4.189689346929878
 20
1.404241393693335
 30
0.0
 41
1.0
 10
-4.158075912287531
 20
1.425387562306986
 30
0.0
 41
1.0
 10
-4.128670966171118
 20
1.444495170458131
 30
0.0
 41
1.0
 10
-4.101574368919534
 20
1.454893728172038
 30
0.0
 41
1.0
 10
-4.077695332269997
 20
1.452183084232481
 30
0.0
 41
1.0
 10
-4.059244950250735
 20
1.436186167310782
 30
0.0
 41
1.0
 10
-4.048661691094518
 20
1.40957322748754
 30
0.0
 41
1.0
 10
-4.047544332455379
 20
1.376340112547505
 30
0.0
 41
1.0
 10
-4.055344401788921
 20
1.340157823497541
 30
0.0
 41
1.0
 10
-4.068926425357679
 20
1.303364872215117
 30
0.0
 41
1.0
 10
-4.08398830324926
 20
1.26739631261241
 30
0.0
 41
1.0
 10
-4.096090505886645
 20
1.232908920529556
 30
0.0
 41
1.0
 10
-4.101843036974618
 20
1.200027901001031
 30
0.0
 41
1.0
 10
-4.100021381410715
 20
1.168540622397083
 30
0.0
 41
1.0
 10
-4.092726462507531
 20
1.138114963722115
 30
0.0
 41
1.0
 10
-4.084001297357204
 20
1.108359524632528
 30
0.0
 41
1.0
 10
-4.078362575953108
 20
1.078891204905646
 30
0.0
 41
1.0
 10
-4.079488862757996
 20
1.049390360764075
 30
0.0
 41
1.0
 10
-4.088545097241667
 20
1.019683652611598
 30
0.0
 41
1.0
 10
-4.103714784006183
 20
0.9897363744347174
 30
0.0
 41
1.0
 10
-4.121500840316492
 20
0.9595179894613179
 30
0.0
 41
1.0
 10
-4.137637280343711
 20
0.928888354181509
 30
0.0
 41
1.0
 10
-4.148083643394849
 20
0.8974962742343926
 30
0.0
 41
1.0
 10
-4.150165383084265
 20
0.8646218631048391
 30
0.0
 41
1.0
 10
-4.142904181447649
 20
0.8292531585291776
 30
0.0
 41
1.0
 10
-4.126598089314109
 20
0.7903739804104008
 30
0.0
 41
1.0
 10
-4.102615152941982
 20
0.7471875097951657
 30
0.0
 41
1.0
 10
-4.073098949298129
 20
0.6993768385786341
 30
0.0
 41
1.0
 10
-4.040714391406404
 20
0.6473255502035289
 30
0.0
 41
1.0
 10
-4.008371332437187
 20
0.5924142690726394
 30
0.0
 41
1.0
 10
-3.978974416759442
 20
0.5371000407698423
 30
0.0
 41
1.0
 10
-3.955230847532236
 20
0.4843708931748008
 30
0.0
 41
1.0
 10
-3.939444405053316
 20
0.4373044367906599
 30
0.0
 41
1.0
 10
-3.933323393165744
 20
0.3985997090134419
 30
0.0
 41
1.0
 10
-3.937762516024347
 20
0.370087840145618
 30
0.0
 41
1.0
 10
-3.952682026199626
 20
0.3523273004088938
 30
0.0
 41
1.0
 10
-3.976727015387691
 20
0.3439747151345878
 30
0.0
 41
1.0
 10
-4.007483122280943
 20
0.3419972777350038
 30
0.0
 41
1.0
 10
-4.042206944131761
 20
0.3427242919812151
 30
0.0
 41
1.0
 10
-4.078408995058834
 20
0.3426611127121621
 30
0.0
 41
1.0
 10
-4.114513170612831
 20
0.3394200777225619
 30
0.0
 41
1.0
 10
-4.150438094555272
 20
0.3325458693256364
 30
0.0
 41
1.0
 10
-4.187028720321936
 20
0.3229694484217169
 30
0.0
 41
1.0
 10
-4.225543296134308
 20
0.3125195292806069
 30
0.0
 41
1.0
 10
-4.267100262358178
 20
0.3034032090186458
 30
0.0
 41
1.0
 10
-4.31218699112423
 20
0.2977227376708599
 30
0.0
 41
1.0
 10
-4.360033840485259
 20
0.2969218603705594
 30
0.0
 41
1.0
 10
-4.408392142431119
 20
0.3014380571933673
 30
0.0
 41
1.0
 10
-4.454407641926137
 20
0.3109019983213654
 30
0.0
 41
1.0
 10
-4.495278695648091
 20
0.3242376907029699
 30
0.0
 41
1.0
 10
-4.52902451221627
 20
0.3397966615017356
 30
0.0
 41
1.0
 10
-4.555149633072678
 20
0.355488703189645
 30
0.0
 41
1.0
 10
-4.575490581596016
 20
0.3688864135126055
 30
0.0
 41
1.0
 10
-4.594558062054856
 20
0.377430771748664
 30
0.0
 41
1.0
 10
-4.617108470529136
 20
0.3793394060037261
 30
0.0
 41
1.0
 10
-4.646381561597101
 20
0.3742709781478057
 30
0.0
 41
1.0
 10
-4.681431927917392
 20
0.3644126798648964
 30
0.0
 41
1.0
 10
-4.717469425350254
 20
0.3540591550991736
 30
0.0
 41
1.0
 10
-4.74871246747061
 20
0.3479139410521275
 30
0.0
 41
1.0
 10
-4.770563986536728
 20
0.3497333741357109
 30
0.0
 41
1.0
 10
-4.782007245264079
 20
0.3608656321189345
 30
0.0
 41
1.0
 10
-4.788063305303546
 20
0.3787384403513094
 30
0.0
 41
1.0
 10
-4.796497053851672
 20
0.3988988624626317
 30
0.0
 41
1.0
 10
-4.814433954026331
 20
0.4171051015782714
 30
0.0
 41
1.0
 10
-4.844759245827801
 20
0.4315548755059534
 30
0.0
 41
1.0
 10
-4.886808493327512
 20
0.4424432209364041
 30
0.0
 41
1.0
 10
-4.937438346708019
 20
0.4512827311850419
 30
0.0
 41
1.0
 10
-4.991943667298974
 20
0.4603219357329423
 30
0.0
 41
1.0
 10
-5.045071559709148
 20
0.4718970136784745
 30
0.0
 41
1.0
 10
-5.091916843077564
 20
0.4878719998952788
 30
0.0
 41
1.0
 10
-5.129060338578879
 20
0.5088911712975692
 30
0.0
 41
1.0
 10
-5.154734932906879
 20
0.5343883809498303
 30
0.0
 41
1.0
 10
-5.168348655560215
 20
0.5630947685839863
 30
0.0
 41
1.0
 10
-5.170189037243369
 20
0.5934108474977237
 30
0.0
 41
1.0
 10
-5.16107574662787
 20
0.6238060698298317
 30
0.0
 41
1.0
 10
-5.141978185645411
 20
0.6532783841794809
 30
0.0
 41
1.0
 10
-5.113980819035727
 20
0.6813746134002719
 30
0.0
 41
1.0
 10
-5.078402687814421
 20
0.708025818660948
 30
0.0
 41
1.0
 10
-5.036860636376332
 20
0.7334442591597924
 30
0.0
 41
1.0
 10
-4.991368928606497
 20
0.7579926579437908
 30
0.0
 41
1.0
 10
-4.944393704269663
 20
0.782070403571022
 30
0.0
 41
1.0
 10
-4.899002026125039
 20
0.8059799944503062
 30
0.0
 41
1.0
 10
-4.858604067977952
 20
0.8298623712023205
 30
0.0
 41
1.0
 10
-4.826469008524503
 20
0.8536665996630937
 30
0.0
 41
1.0
 10
-4.805309519022244
 20
0.8771127766037265
 30
0.0
 41
1.0
 10
-4.796839695687733
 20
0.8996493601535973
 30
0.0
 41
1.0
 10
-4.801339354041016
 20
0.920431998619157
 30
0.0
 41
1.0
 10
-4.817223439170883
 20
0.9382451615957167
 30
0.0
 41
1.0
 10
-4.841117948250306
 20
0.9522954190764702
 30
0.0
 41
1.0
 10
-4.86811138831838
 20
0.9628553900510887
 30
0.0
 41
1.0
 10
-4.891620535659386
 20
0.9723249557637434
 30
0.0
 41
1.0
 10
-4.904462140370045
 20
0.9849224564686219
 30
0.0
 41
1.0
 10
-4.901527436458935
 20
1.004379101751432
 30
0.0
 41
1.0
 10
-4.882590707246759
 20
1.031725556983473
 30
0.0
 41
1.0
 10
-4.853593630183113
 20
1.064116794808443
 30
0.0
 41
1.0
 10
-4.823454730137302
 20
1.096955898650871
 30
0.0
 41
1.0
 10
-4.801663951733678
 20
1.125436874167979
 30
0.0
 41
1.0
 10
-4.795716487776849
 20
1.146195926644786
 30
0.0
 41
1.0
 10
-4.808258054756795
 20
1.159206961716599
 30
0.0
 41
1.0
 10
-4.835458118702224
 20
1.168673374916059
 30
0.0
 41
1.0
 10
-4.869947149147182
 20
1.180197243185687
 30
0.0
 41
1.0
 10
-4.902998348801797
 20
1.198571937403861
 30
0.0
 41
1.0
 10
-4.927029041951191
 20
1.225292988600071
 30
0.0
 41
1.0
 10
-4.937900976966175
 20
1.256290749845671
 30
0.0
 41
1.0
 10
-4.934233965367375
 20
1.284842662655662
 30
0.0
 41
1.0
 10
-4.916773189309313
 20
1.304318920832466
 30
0.0
 41
1.0
 10
-4.887732264114927
 20
1.311109634445644
 30
0.0
 41
1.0
 10
-4.850165073072873
 20
1.307136968962541
 30
0.0
 41
1.0
 10
-4.807547069212784
 20
1.2977540967356
 30
0.0
 41
1.0
 10
-4.76335283081298
 20
1.290011917806874
 30
0.0
 41
1.0
 10
-4.720615106373233
 20
1.290707328214312
 30
0.0
 41
1.0
 10
-4.681537057935813
 20
1.304706501025057
 30
0.0
 41
1.0
 10
-4.646969787495057
 20
1.332702696429845
 30
0.0
 41
1.0
 10
-4.616367691357266
 20
1.370899327027116
 30
0.0
 41
1.0
 10
-4.588314873385046
 20
1.412975941844999
 30
0.0
 41
1.0
 10
-4.560900079796862
 20
1.451448966981391
 30
0.0
 41
1.0
 10
-4.532161279370587
 20
1.47931304190768
 30
0.0
 41
1.0
 10
-4.500481196442165
 20
1.491481128629332
 30
0.0
 41
1.0
 10
-4.465049910957022
 20
1.486506109039109
 30
0.0
 41
1.0
 10
-4.426158924096344
 20
1.467589827512801
 30
0.0
 41
1.0
 10
-4.384819615304436
 20
1.440730098196788
 30
0.0
 41
1.0
 10
-4.34248017175472
 20
1.413285040337521
 30
0.0
 41
1.0
 10
-4.309059584433646
 20
1.396557488772545
 30
0.0
 41
1.0
 10
-4.28486631405727
 20
1.389362572998802
 30
0.0
 41
1.0
 10
-4.269241571460615
 20
1.387214865349178
 30
0.0
 41
1.0
 10
-4.26156302690584
 20
1.386796478203759
 30
0.0
 41
1.0
  0
POINT
  5
92
330
70
100
AcDbEntity
  8
jennie v3_Sketch5
100
AcDbPoint
 10
0.0
 20
0.0
 30
0.0
  0
ENDSEC
  0
SECTION
  2
OBJECTS
  0
DICTIONARY
  5
C
330
0
100
AcDbDictionary
281
     1
  3
ACAD_COLOR
350
63
  3
ACAD_DETAILVIEWSTYLE
350
6A
  3
ACAD_GROUP
350
D
  3
ACAD_LAYOUT
350
62
  3
ACAD_MATERIAL
350
10
  3
ACAD_MLEADERSTYLE
350
66
  3
ACAD_MLINESTYLE
350
5F
  3
ACAD_PLOTSETTINGS
350
61
  3
ACAD_PLOTSTYLENAME
350
E
  3
ACAD_SCALELIST
350
42
  3
ACAD_SECTIONVIEWSTYLE
350
68
  3
ACAD_TABLESTYLE
350
64
  3
ACAD_VISUALSTYLE
350
29
  3
ACDB_RECOMPOSE_DATA
350
9B
  3
AcDbVariableDictionary
350
93
  0
DICTIONARY
  5
63
102
{ACAD_REACTORS
330
C
102
}
330
C
100
AcDbDictionary
281
     1
  0
DICTIONARY
  5
6A
102
{ACAD_REACTORS
330
C
102
}
330
C
100
AcDbDictionary
281
     1
  3
Imperial24
350
6B
  0
DICTIONARY
  5
D
102
{ACAD_REACTORS
330
C
102
}
330
C
100
AcDbDictionary
281
     1
  0
DICTIONARY
  5
62
102
{ACAD_REACTORS
330
C
102
}
330
C
100
AcDbDictionary
281
     1
  3
Layout1
350
6F
  3
Layout2
350
77
  3
Model
350
73
  0
DICTIONARY
  5
10
102
{ACAD_REACTORS
330
C
102
}
330
C
100
AcDbDictionary
281
     1
  3
ByBlock
350
19
  3
ByLayer
350
11
  3
Global
350
21
  0
DICTIONARY
  5
66
102
{ACAD_REACTORS
330
C
102
}
330
C
100
AcDbDictionary
281
     1
  3
Standard
350
67
  0
DICTIONARY
  5
5F
102
{ACAD_REACTORS
330
C
102
}
330
C
100
AcDbDictionary
281
     1
  3
Standard
350
60
  0
DICTIONARY
  5
61
102
{ACAD_REACTORS
330
C
102
}
330
C
100
AcDbDictionary
281
     1
  0
ACDBDICTIONARYWDFLT
  5
E
102
{ACAD_REACTORS
330
C
102
}
330
C
100
AcDbDictionary
281
     1
  3
Normal
350
F
100
AcDbDictionaryWithDefault
340
F
  0
DICTIONARY
  5
42
102
{ACAD_REACTORS
330
C
102
}
330
C
100
AcDbDictionary
281
     1
  3
A0
350
43
  3
A1
350
44
  3
A2
350
45
  3
A3
350
46
  3
A4
350
47
  3
A5
350
48
  3
A6
350
49
  3
A7
350
4A
  3
A8
350
4B
  3
A9
350
4C
  3
B0
350
4D
  3
B1
350
4E
  3
B2
350
4F
  3
B3
350
50
  3
B4
350
51
  3
B5
350
52
  3
B6
350
53
  0
DICTIONARY
  5
68
102
{ACAD_REACTORS
330
C
102
}
330
C
100
AcDbDictionary
281
     1
  3
Imperial24
350
69
  0
DICTIONARY
  5
64
102
{ACAD_REACTORS
330
C
102
}
330
C
100
AcDbDictionary
281
     1
  3
Standard
350
65
  0
DICTIONARY
  5
29
102
{ACAD_REACTORS
330
C
102
}
330
C
100
AcDbDictionary
281
     1
  3
2dWireframe
350
2F
  3
Basic
350
2E
  3
Brighten
350
35
  3
ColorChange
350
39
  3
Conceptual
350
32
  3
Dim
350
34
  3
EdgeColorOff
350
41
  3
Facepattern
350
38
  3
Flat
350
2A
  3
FlatWithEdges
350
2B
  3
Gouraud
350
2C
  3
GouraudWithEdges
350
2D
  3
Hidden
350
31
  3
JitterOff
350
3F
  3
Linepattern
350
37
  3
OverhangOff
350
40
  3
Realistic
350
33
  3
Shaded
350
3E
  3
Shaded with edges
350
3D
  3
Shades of Gray
350
3A
  3
Sketchy
350
3B
  3
Thicken
350
36
  3
Wireframe
350
30
  3
X-Ray
350
3C
  0
XRECORD
  5
9B
102
{ACAD_REACTORS
330
C
102
}
330
C
100
AcDbXrecord
280
     1
 90
        1
330
65
  0
DICTIONARY
  5
93
102
{ACAD_REACTORS
330
C
102
}
330
C
100
AcDbDictionary
281
     1
  3
CANNOSCALE
350
98
  3
CMLEADERSTYLE
350
95
  3
CTABLESTYLE
350
94
  3
CVIEWDETAILSTYLE
350
96
  3
CVIEWSECTIONSTYLE
350
97
  0
ACDBDETAILVIEWSTYLE
  5
6B
102
{ACAD_XDICTIONARY
360
9E
102
}
102
{ACAD_REACTORS
330
6A
102
}
330
6A
100
AcDbModelDocViewStyle
 70
     0
  3
Imperial24
290
     0
100
AcDbDetailViewStyle
 70
     0
 71
     0
 90
        3
 71
     1
340
55
 62
   256
 40
0.24
340
0
 62
   256
 40
0.24
300

 40
0.36
280
     3
 71
     2
340
5D
 90
       25
 62
   256
 71
     3
340
55
 62
   256
 40
0.24
 90
        1
 40
0.75
 90
        1
300
%<\AcVar ViewType \f "%tc1">% %<\AcVar ViewDetailId>%\PSCALE %<\AcVar ViewScale \f "%sn">%
 71
     4
340
5D
 90
       25
 62
   256
340
5D
 90
       25
 62
   256
280
     0
  0
LAYOUT
  5
6F
102
{ACAD_REACTORS
330
62
102
}
330
62
100
AcDbPlotSettings
  1

  2

  4

  6

 40
0.0
 41
0.0
 42
0.0
 43
0.0
 44
0.0
 45
0.0
 46
0.0
 47
0.0
 48
0.0
 49
0.0
140
0.0
141
0.0
142
1.0
143
1.0
 70
   688
 72
     0
 73
     0
 74
     5
  7

 75
    16
147
1.0
 76
     0
 77
     2
 78
   300
148
0.0
149
0.0
100
AcDbLayout
  1
Layout1
 70
     1
 71
     1
 10
0.0
 20
0.0
 11
12.0
 21
9.0
 12
0.0
 22
0.0
 32
0.0
 14
0.0
 24
0.0
 34
0.0
 15
0.0
 25
0.0
 35
0.0
146
0.0
 13
0.0
 23
0.0
 33
0.0
 16
1.0
 26
0.0
 36
0.0
 17
0.0
 27
1.0
 37
0.0
 76
     0
330
6C
  0
LAYOUT
  5
77
102
{ACAD_REACTORS
330
62
102
}
330
62
100
AcDbPlotSettings
  1

  2

  4

  6

 40
0.0
 41
0.0
 42
0.0
 43
0.0
 44
0.0
 45
0.0
 46
0.0
 47
0.0
 48
0.0
 49
0.0
140
0.0
141
0.0
142
1.0
143
1.0
 70
   688
 72
     0
 73
     0
 74
     5
  7

 75
    16
147
1.0
 76
     0
 77
     2
 78
   300
148
0.0
149
0.0
100
AcDbLayout
  1
Layout2
 70
     1
 71
     2
 10
0.0
 20
0.0
 11
12.0
 21
9.0
 12
0.0
 22
0.0
 32
0.0
 14
0.0
 24
0.0
 34
0.0
 15
0.0
 25
0.0
 35
0.0
146
0.0
 13
0.0
 23
0.0
 33
0.0
 16
1.0
 26
0.0
 36
0.0
 17
0.0
 27
1.0
 37
0.0
 76
     0
330
74
  0
LAYOUT
  5
73
102
{ACAD_REACTORS
330
62
102
}
330
62
100
AcDbPlotSettings
  1

  2

  4

  6

 40
0.0
 41
0.0
 42
0.0
 43
0.0
 44
0.0
 45
0.0
 46
0.0
 47
0.0
 48
0.0
 49
0.0
140
0.0
141
0.0
142
1.0
143
1.0
 70
  1712
 72
     0
 73
     0
 74
     0
  7

 75
     0
147
1.0
 76
     0
 77
     2
 78
   300
148
0.0
149
0.0
100
AcDbLayout
  1
Model
 70
     1
 71
     0
 10
0.0
 20
0.0
 11
12.0
 21
9.0
 12
0.0
 22
0.0
 32
0.0
 14
0.0
 24
0.0
 34
0.0
 15
0.0
 25
0.0
 35
0.0
146
0.0
 13
0.0
 23
0.0
 33
0.0
 16
1.0
 26
0.0
 36
0.0
 17
0.0
 27
1.0
 37
0.0
 76
     0
330
70
  0
MATERIAL
  5
19
102
{ACAD_XDICTIONARY
360
1A
102
}
102
{ACAD_REACTORS
330
10
102
}
330
10
100
AcDbMaterial
  1
ByBlock
 72
     0
 43
0.0208333333333333
 43
0.0
 43
0.0
 43
0.0
 43
0.0
 43
0.0208333333333333
 43
0.0
 43
0.0
 43
0.0
 43
0.0
 43
1.0
 43
0.0
 43
0.0
 43
0.0
 43
0.0
 43
1.0
 77
     0
 47
0.0208333333333333
 47
0.0
 47
0.0
 47
0.0
 47
0.0
 47
0.0208333333333333
 47
0.0
 47
0.0
 47
0.0
 47
0.0
 47
1.0
 47
0.0
 47
0.0
 47
0.0
 47
0.0
 47
1.0
171
     0
 49
0.0208333333333333
 49
0.0
 49
0.0
 49
0.0
 49
0.0
 49
0.0208333333333333
 49
0.0
 49
0.0
 49
0.0
 49
0.0
 49
1.0
 49
0.0
 49
0.0
 49
0.0
 49
0.0
 49
1.0
175
     0
142
0.0208333333333333
142
0.0
142
0.0
142
0.0
142
0.0
142
0.0208333333333333
142
0.0
142
0.0
142
0.0
142
0.0
142
1.0
142
0.0
142
0.0
142
0.0
142
0.0
142
1.0
179
     0
144
0.0208333333333333
144
0.0
144
0.0
144
0.0
144
0.0
144
0.0208333333333333
144
0.0
144
0.0
144
0.0
144
0.0
144
1.0
144
0.0
144
0.0
144
0.0
144
0.0
144
1.0
147
0.0208333333333333
147
0.0
147
0.0
147
0.0
147
0.0
147
0.0208333333333333
147
0.0
147
0.0
147
0.0
147
0.0
147
1.0
147
0.0
147
0.0
147
0.0
147
0.0
147
1.0
  0
MATERIAL
  5
11
102
{ACAD_XDICTIONARY
360
12
102
}
102
{ACAD_REACTORS
330
10
102
}
330
10
100
AcDbMaterial
  1
ByLayer
 72
     0
 43
0.0208333333333333
 43
0.0
 43
0.0
 43
0.0
 43
0.0
 43
0.0208333333333333
 43
0.0
 43
0.0
 43
0.0
 43
0.0
 43
1.0
 43
0.0
 43
0.0
 43
0.0
 43
0.0
 43
1.0
 77
     0
 47
0.0208333333333333
 47
0.0
 47
0.0
 47
0.0
 47
0.0
 47
0.0208333333333333
 47
0.0
 47
0.0
 47
0.0
 47
0.0
 47
1.0
 47
0.0
 47
0.0
 47
0.0
 47
0.0
 47
1.0
171
     0
 49
0.0208333333333333
 49
0.0
 49
0.0
 49
0.0
 49
0.0
 49
0.0208333333333333
 49
0.0
 49
0.0
 49
0.0
 49
0.0
 49
1.0
 49
0.0
 49
0.0
 49
0.0
 49
0.0
 49
1.0
175
     0
142
0.0208333333333333
142
0.0
142
0.0
142
0.0
142
0.0
142
0.0208333333333333
142
0.0
142
0.0
142
0.0
142
0.0
142
1.0
142
0.0
142
0.0
142
0.0
142
0.0
142
1.0
179
     0
144
0.0208333333333333
144
0.0
144
0.0
144
0.0
144
0.0
144
0.0208333333333333
144
0.0
144
0.0
144
0.0
144
0.0
144
1.0
144
0.0
144
0.0
144
0.0
144
0.0
144
1.0
147
0.0208333333333333
147
0.0
147
0.0
147
0.0
147
0.0
147
0.0208333333333333
147
0.0
147
0.0
147
0.0
147
0.0
147
1.0
147
0.0
147
0.0
147
0.0
147
0.0
147
1.0
  0
MATERIAL
  5
21
102
{ACAD_XDICTIONARY
360
22
102
}
102
{ACAD_REACTORS
330
10
102
}
330
10
100
AcDbMaterial
  1
Global
 72
     0
 43
0.0208333333333333
 43
0.0
 43
0.0
 43
0.0
 43
0.0
 43
0.0208333333333333
 43
0.0
 43
0.0
 43
0.0
 43
0.0
 43
1.0
 43
0.0
 43
0.0
 43
0.0
 43
0.0
 43
1.0
 77
     0
 47
0.0208333333333333
 47
0.0
 47
0.0
 47
0.0
 47
0.0
 47
0.0208333333333333
 47
0.0
 47
0.0
 47
0.0
 47
0.0
 47
1.0
 47
0.0
 47
0.0
 47
0.0
 47
0.0
 47
1.0
171
     0
 49
0.0208333333333333
 49
0.0
 49
0.0
 49
0.0
 49
0.0
 49
0.0208333333333333
 49
0.0
 49
0.0
 49
0.0
 49
0.0
 49
1.0
 49
0.0
 49
0.0
 49
0.0
 49
0.0
 49
1.0
175
     0
142
0.0208333333333333
142
0.0
142
0.0
142
0.0
142
0.0
142
0.0208333333333333
142
0.0
142
0.0
142
0.0
142
0.0
142
1.0
142
0.0
142
0.0
142
0.0
142
0.0
142
1.0
179
     0
144
0.0208333333333333
144
0.0
144
0.0
144
0.0
144
0.0
144
0.0208333333333333
144
0.0
144
0.0
144
0.0
144
0.0
144
1.0
144
0.0
144
0.0
144
0.0
144
0.0
144
1.0
147
0.0208333333333333
147
0.0
147
0.0
147
0.0
147
0.0
147
0.0208333333333333
147
0.0
147
0.0
147
0.0
147
0.0
147
1.0
147
0.0
147
0.0
147
0.0
147
0.0
147
1.0
  0
MLEADERSTYLE
  5
67
102
{ACAD_REACTORS
330
66
102
}
330
66
100
AcDbMLeaderStyle
179
     2
170
     2
171
     1
172
     0
 90
        2
 40
0.0
 41
0.0
173
     1
 91
-1056964608
340
5B
 92
       -2
290
     1
 42
0.09
291
     1
 43
0.36
  3
Standard
 44
0.18
300

342
55
174
     1
178
     6
175
     1
176
     0
 93
-1056964608
 45
0.18
292
     0
297
     0
 46
0.18
 94
-1056964608
 47
1.0
 49
1.0
140
1.0
293
     1
141
0.0
294
     1
177
     0
142
1.0
295
     0
296
     0
143
0.125
271
     0
272
     9
273
     9
298
     1
  0
MLINESTYLE
  5
60
102
{ACAD_REACTORS
330
5F
102
}
330
5F
100
AcDbMlineStyle
  2
STANDARD
 70
     0
  3

 62
   256
 51
90.0
 52
90.0
 71
     2
 49
0.5
 62
   256
  6
BYLAYER
 49
-0.5
 62
   256
  6
BYLAYER
  0
ACDBPLACEHOLDER
  5
F
102
{ACAD_REACTORS
330
E
102
}
330
E
  0
SCALE
  5
43
102
{ACAD_REACTORS
330
42
102
}
330
42
100
AcDbScale
 70
     0
300
1:1
140
1.0
141
1.0
290
     1
  0
SCALE
  5
44
102
{ACAD_REACTORS
330
42
102
}
330
42
100
AcDbScale
 70
     0
300
1/128" = 1'-0"
140
0.0078125
141
12.0
290
     0
  0
SCALE
  5
45
102
{ACAD_REACTORS
330
42
102
}
330
42
100
AcDbScale
 70
     0
300
1/64" = 1'-0"
140
0.015625
141
12.0
290
     0
  0
SCALE
  5
46
102
{ACAD_REACTORS
330
42
102
}
330
42
100
AcDbScale
 70
     0
300
1/32" = 1'-0"
140
0.03125
141
12.0
290
     0
  0
SCALE
  5
47
102
{ACAD_REACTORS
330
42
102
}
330
42
100
AcDbScale
 70
     0
300
1/16" = 1'-0"
140
0.0625
141
12.0
290
     0
  0
SCALE
  5
48
102
{ACAD_REACTORS
330
42
102
}
330
42
100
AcDbScale
 70
     0
300
3/32" = 1'-0"
140
0.09375
141
12.0
290
     0
  0
SCALE
  5
49
102
{ACAD_REACTORS
330
42
102
}
330
42
100
AcDbScale
 70
     0
300
1/8" = 1'-0"
140
0.125
141
12.0
290
     0
  0
SCALE
  5
4A
102
{ACAD_REACTORS
330
42
102
}
330
42
100
AcDbScale
 70
     0
300
3/16" = 1'-0"
140
0.1875
141
12.0
290
     0
  0
SCALE
  5
4B
102
{ACAD_REACTORS
330
42
102
}
330
42
100
AcDbScale
 70
     0
300
1/4" = 1'-0"
140
0.25
141
12.0
290
     0
  0
SCALE
  5
4C
102
{ACAD_REACTORS
330
42
102
}
330
42
100
AcDbScale
 70
     0
300
3/8" = 1'-0"
140
0.375
141
12.0
290
     0
  0
SCALE
  5
4D
102
{ACAD_REACTORS
330
42
102
}
330
42
100
AcDbScale
 70
     0
300
1/2" = 1'-0"
140
0.5
141
12.0
290
     0
  0
SCALE
  5
4E
102
{ACAD_REACTORS
330
42
102
}
330
42
100
AcDbScale
 70
     0
300
3/4" = 1'-0"
140
0.75
141
12.0
290
     0
  0
SCALE
  5
4F
102
{ACAD_REACTORS
330
42
102
}
330
42
100
AcDbScale
 70
     0
300
1" = 1'-0"
140
1.0
141
12.0
290
     0
  0
SCALE
  5
50
102
{ACAD_REACTORS
330
42
102
}
330
42
100
AcDbScale
 70
     0
300
1-1/2" = 1'-0"
140
1.5
141
12.0
290
     0
  0
SCALE
  5
51
102
{ACAD_REACTORS
330
42
102
}
330
42
100
AcDbScale
 70
     0
300
3" = 1'-0"
140
3.0
141
12.0
290
     0
  0
SCALE
  5
52
102
{ACAD_REACTORS
330
42
102
}
330
42
100
AcDbScale
 70
     0
300
6" = 1'-0"
140
6.0
141
12.0
290
     0
  0
SCALE
  5
53
102
{ACAD_REACTORS
330
42
102
}
330
42
100
AcDbScale
 70
     0
300
1'-0" = 1'-0"
140
12.0
141
12.0
290
     0
  0
ACDBSECTIONVIEWSTYLE
  5
69
102
{ACAD_XDICTIONARY
360
9C
102
}
102
{ACAD_REACTORS
330
68
102
}
330
68
100
AcDbModelDocViewStyle
 70
     0
  3
Imperial24
290
     0
100
AcDbSectionViewStyle
 70
     0
 71
     0
 90
       78
 71
     1
340
55
 62
   256
 40
0.24
340
0
340
0
 62
   256
 40
0.24
300
I, O, Q, S, X, Z
 40
0.48
 90
        3
 40
0.18
 90
        1
 71
     2
340
5D
 90
       25
 62
   256
340
5D
 90
       50
 62
   256
 40
0.24
 40
0.0
 40
0.24
 71
     3
340
55
 62
   256
 40
0.24
 90
        1
 40
0.75
 90
        1
300
%<\AcVar ViewType \f "%tc1">% %<\AcVar ViewSectionStartId>%-%<\AcVar ViewSectionEndId>%\PSCALE %<\AcVar ViewScale \f "%sn">%
 71
     4
 62
   256
 62
   257
300
ANSI31
 40
1.0
 90
        0
290
     0
290
     0
 90
        6
 40
0.0
 40
1.570796326794896
 40
0.2617993877991494
 40
1.308996938995747
 40
-0.2617993877991494
 40
1.832595714594046
  0
TABLESTYLE
  5
65
102
{ACAD_XDICTIONARY
360
99
102
}
102
{ACAD_REACTORS
330
64
102
}
330
64
100
AcDbTableStyle
280
     0
  3
Standard
 70
     0
 71
     0
 40
0.06
 41
0.06
280
     0
281
     0
  7
Standard
140
0.18
170
     2
 62
     0
 63
     7
283
     0
 90
      512
 91
        0
  1

274
    -2
284
     1
 64
     0
275
    -2
285
     1
 65
     0
276
    -2
286
     1
 66
     0
277
    -2
287
     1
 67
     0
278
    -2
288
     1
 68
     0
279
    -2
289
     1
 69
     0
  7
Standard
140
0.25
170
     5
 62
     0
 63
     7
283
     0
 90
      512
 91
        0
  1

274
    -2
284
     1
 64
     0
275
    -2
285
     1
 65
     0
276
    -2
286
     1
 66
     0
277
    -2
287
     1
 67
     0
278
    -2
288
     1
 68
     0
279
    -2
289
     1
 69
     0
  7
Standard
140
0.18
170
     5
 62
     0
 63
     7
283
     0
 90
      512
 91
        0
  1

274
    -2
284
     1
 64
     0
275
    -2
285
     1
 65
     0
276
    -2
286
     1
 66
     0
277
    -2
287
     1
 67
     0
278
    -2
288
     1
 68
     0
279
    -2
289
     1
 69
     0
  0
VISUALSTYLE
  5
2F
102
{ACAD_REACTORS
330
29
102
}
330
29
100
AcDbVisualStyle
  2
2dWireframe
 70
     4
177
     3
291
     0
 70
    58
 90
        0
176
     1
 90
        2
176
     1
 90
        0
176
     1
 90
        0
176
     1
 40
0.6
176
     1
 40
30.0
176
     1
 62
     7
420
 16777215
176
     1
 90
        1
176
     1
 90
        4
176
     1
 62
     7
176
     1
 62
   257
176
     1
 90
        1
176
     1
 90
        1
176
     1
 40
1.0
176
     1
 90
        0
176
     1
 62
   257
176
     1
 40
1.0
176
     1
 90
        1
176
     1
 90
        6
176
     1
 90
        2
176
     1
 62
     7
176
     1
 90
        5
176
     1
 90
        0
176
     1
 90
        0
176
     1
290
     0
176
     1
 90
        1
176
     1
 40
0.0
176
     1
 90
        0
176
     1
290
     1
176
     1
290
     1
176
     1
290
     0
176
     1
290
     0
176
     1
290
     0
176
     1
290
     0
176
     1
290
     0
176
     1
290
     0
176
     1
290
     0
176
     1
 90
       50
176
     1
 40
0.0
176
     1
 40
1.0
176
     1
 90
        0
176
     1
 62
    18
420
        0
176
     1
 90
       50
176
     1
 90
        3
176
     1
 62
     5
420
      255
176
     1
290
     0
176
     1
 90
       50
176
     1
 90
       50
176
     1
 90
       50
176
     1
290
     0
176
     1
 90
       50
176
     1
 62
   256
176
     0
 40
1.0
176
     0
 90
        2
176
     1
  1
strokes_ogs.tif
176
     1
290
     0
176
     1
 40
1.0
176
     1
 40
1.0
176
     1
1001
ACAD
1000
AcDbSavedByObjectVersion
1070
     0
  0
VISUALSTYLE
  5
2E
102
{ACAD_REACTORS
330
29
102
}
330
29
100
AcDbVisualStyle
  2
Basic
 70
     7
177
     3
291
     1
 70
    58
 90
        1
176
     1
 90
        0
176
     1
 90
        1
176
     1
 90
        0
176
     1
 40
0.6
176
     1
 40
30.0
176
     1
 62
     7
420
 16777215
176
     1
 90
        0
176
     1
 90
        4
176
     1
 62
     7
176
     1
 62
   257
176
     1
 90
        1
176
     1
 90
        1
176
     1
 40
1.0
176
     1
 90
        8
176
     1
 62
     7
176
     1
 40
1.0
176
     1
 90
        1
176
     1
 90
        6
176
     1
 90
        2
176
     1
 62
     7
176
     1
 90
        5
176
     1
 90
        0
176
     1
 90
        0
176
     1
290
     0
176
     1
 90
        1
176
     1
 40
0.0
176
     1
 90
        0
176
     1
290
     0
176
     1
290
     1
176
     1
290
     1
176
     1
290
     0
176
     1
290
     0
176
     1
290
     0
176
     1
290
     0
176
     1
290
     0
176
     1
290
     0
176
     1
 90
       50
176
     1
 40
0.0
176
     1
 40
1.0
176
     1
 90
        0
176
     1
 62
    18
420
        0
176
     1
 90
       50
176
     1
 90
        3
176
     1
 62
     5
420
      255
176
     1
290
     0
176
     1
 90
       50
176
     1
 90
       50
176
     1
 90
       50
176
     1
290
     0
176
     1
 90
       50
176
     1
 62
   256
176
     0
 40
1.0
176
     0
 90
        2
176
     1
  1
strokes_ogs.tif
176
     1
290
     0
176
     1
 40
1.0
176
     1
 40
1.0
176
     1
1001
ACAD
1000
AcDbSavedByObjectVersion
1070
     0
  0
VISUALSTYLE
  5
35
102
{ACAD_REACTORS
330
29
102
}
330
29
100
AcDbVisualStyle
  2
Brighten
 70
    12
177
     3
291
     1
 70
    58
 90
        2
176
     1
 90
        2
176
     1
 90
        0
176
     1
 90
        0
176
     1
 40
0.6
176
     1
 40
30.0
176
     1
 62
     7
420
 16777215
176
     1
 90
        1
176
     1
 90
        4
176
     1
 62
     7
176
     1
 62
   257
176
     1
 90
        1
176
     1
 90
        1
176
     1
 40
1.0
176
     1
 90
        8
176
     1
 62
     7
176
     1
 40
1.0
176
     1
 90
        1
176
     1
 90
        6
176
     1
 90
        2
176
     1
 62
     7
176
     1
 90
        5
176
     1
 90
        0
176
     1
 90
        0
176
     1
290
     0
176
     1
 90
        1
176
     1
 40
50.0
176
     1
 90
        0
176
     1
290
     0
176
     1
290
     1
176
     1
290
     1
176
     1
290
     0
176
     1
290
     0
176
     1
290
     0
176
     1
290
     0
176
     1
290
     0
176
     1
290
     0
176
     1
 90
       50
176
     1
 40
0.0
176
     1
 40
1.0
176
     1
 90
        0
176
     1
 62
    18
420
        0
176
     1
 90
       50
176
     1
 90
        3
176
     1
 62
     5
420
      255
176
     1
290
     0
176
     1
 90
       50
176
     1
 90
       50
176
     1
 90
       50
176
     1
290
     0
176
     1
 90
       50
176
     1
 62
   256
176
     0
 40
1.0
176
     0
 90
        2
176
     1
  1
strokes_ogs.tif
176
     1
290
     0
176
     1
 40
1.0
176
     1
 40
1.0
176
     1
1001
ACAD
1000
AcDbSavedByObjectVersion
1070
     0
  0
VISUALSTYLE
  5
39
102
{ACAD_REACTORS
330
29
102
}
330
29
100
AcDbVisualStyle
  2
ColorChange
 70
    16
177
     3
291
     1
 70
    58
 90
        2
176
     1
 90
        2
176
     1
 90
        3
176
     1
 90
        0
176
     1
 40
0.6
176
     1
 40
30.0
176
     1
 62
     8
420
  8421504
176
     1
 90
        1
176
     1
 90
        4
176
     1
 62
     7
176
     1
 62
   257
176
     1
 90
        1
176
     1
 90
        1
176
     1
 40
1.0
176
     1
 90
        8
176
     1
 62
     8
420
  8421504
176
     1
 40
1.0
176
     1
 90
        1
176
     1
 90
        6
176
     1
 90
        2
176
     1
 62
     7
176
     1
 90
        5
176
     1
 90
        0
176
     1
 90
        0
176
     1
290
     0
176
     1
 90
        1
176
     1
 40
0.0
176
     1
 90
        0
176
     1
290
     0
176
     1
290
     1
176
     1
290
     1
176
     1
290
     0
176
     1
290
     0
176
     1
290
     0
176
     1
290
     0
176
     1
290
     0
176
     1
290
     0
176
     1
 90
       50
176
     1
 40
0.0
176
     1
 40
1.0
176
     1
 90
        0
176
     1
 62
    18
420
        0
176
     1
 90
       50
176
     1
 90
        3
176
     1
 62
     5
420
      255
176
     1
290
     0
176
     1
 90
       50
176
     1
 90
       50
176
     1
 90
       50
176
     1
290
     0
176
     1
 90
       50
176
     1
 62
   256
176
     0
 40
1.0
176
     0
 90
        2
176
     1
  1
strokes_ogs.tif
176
     1
290
     0
176
     1
 40
1.0
176
     1
 40
1.0
176
     1
1001
ACAD
1000
AcDbSavedByObjectVersion
1070
     0
  0
VISUALSTYLE
  5
32
102
{ACAD_REACTORS
330
29
102
}
330
29
100
AcDbVisualStyle
  2
Conceptual
 70
     9
177
     3
291
     0
 70
    58
 90
        3
176
     1
 90
        2
176
     1
 90
        0
176
     1
 90
        0
176
     1
 40
0.6
176
     1
 40
30.0
176
     1
 62
     7
420
 16777215
176
     1
 90
        2
176
     1
 90
        2
176
     1
 62
     7
176
     1
 62
   257
176
     1
 90
        1
176
     1
 90
        1
176
     1
 40
179.0
176
     1
 90
        8
176
     1
 62
     7
176
     1
 40
1.0
176
     1
 90
        1
176
     1
 90
        6
176
     1
 90
        2
176
     1
 62
     7
176
     1
 90
        3
176
     1
 90
        0
176
     1
 90
        0
176
     1
290
     0
176
     1
 90
        1
176
     1
 40
0.0
176
     1
 90
        0
176
     1
290
     0
176
     1
290
     1
176
     1
290
     1
176
     1
290
     0
176
     1
290
     0
176
     1
290
     0
176
     1
290
     0
176
     1
290
     0
176
     1
290
     0
176
     1
 90
       50
176
     1
 40
0.0
176
     1
 40
1.0
176
     1
 90
        0
176
     1
 62
    18
420
        0
176
     1
 90
       50
176
     1
 90
        3
176
     1
 62
     5
420
      255
176
     1
290
     0
176
     1
 90
       50
176
     1
 90
       50
176
     1
 90
       50
176
     1
290
     0
176
     1
 90
       50
176
     1
 62
   256
176
     0
 40
1.0
176
     0
 90
        2
176
     1
  1
strokes_ogs.tif
176
     1
290
     0
176
     1
 40
1.0
176
     1
 40
1.0
176
     1
1001
ACAD
1000
AcDbSavedByObjectVersion
1070
     0
  0
VISUALSTYLE
  5
34
102
{ACAD_REACTORS
330
29
102
}
330
29
100
AcDbVisualStyle
  2
Dim
 70
    11
177
     3
291
     1
 70
    58
 90
        2
176
     1
 90
        2
176
     1
 90
        0
176
     1
 90
        0
176
     1
 40
0.6
176
     1
 40
30.0
176
     1
 62
     7
420
 16777215
176
     1
 90
        1
176
     1
 90
        4
176
     1
 62
     7
176
     1
 62
   257
176
     1
 90
        1
176
     1
 90
        1
176
     1
 40
1.0
176
     1
 90
        8
176
     1
 62
     7
176
     1
 40
1.0
176
     1
 90
        1
176
     1
 90
        6
176
     1
 90
        2
176
     1
 62
     7
176
     1
 90
        5
176
     1
 90
        0
176
     1
 90
        0
176
     1
290
     0
176
     1
 90
        1
176
     1
 40
-50.0
176
     1
 90
        0
176
     1
290
     0
176
     1
290
     1
176
     1
290
     1
176
     1
290
     0
176
     1
290
     0
176
     1
290
     0
176
     1
290
     0
176
     1
290
     0
176
     1
290
     0
176
     1
 90
       50
176
     1
 40
0.0
176
     1
 40
1.0
176
     1
 90
        0
176
     1
 62
    18
420
        0
176
     1
 90
       50
176
     1
 90
        3
176
     1
 62
     5
420
      255
176
     1
290
     0
176
     1
 90
       50
176
     1
 90
       50
176
     1
 90
       50
176
     1
290
     0
176
     1
 90
       50
176
     1
 62
   256
176
     0
 40
1.0
176
     0
 90
        2
176
     1
  1
strokes_ogs.tif
176
     1
290
     0
176
     1
 40
1.0
176
     1
 40
1.0
176
     1
1001
ACAD
1000
AcDbSavedByObjectVersion
1070
     0
  0
VISUALSTYLE
  5
41
102
{ACAD_REACTORS
330
29
102
}
330
29
100
AcDbVisualStyle
  2
EdgeColorOff
 70
    22
177
     3
291
     1
 70
    58
 90
        2
176
     0
 90
        2
176
     0
 90
        0
176
     0
 90
        0
176
     0
 40
0.6
176
     0
 40
30.0
176
     0
 62
     7
420
 16777215
176
     0
 90
        1
176
     0
 90
        4
176
     0
 62
     7
176
     0
 62
   257
176
     0
 90
        1
176
     0
 90
        1
176
     0
 40
1.0
176
     0
 90
        8
176
     2
 62
     7
176
     0
 40
1.0
176
     0
 90
        1
176
     0
 90
        6
176
     0
 90
        2
176
     0
 62
     7
176
     0
 90
        5
176
     0
 90
        0
176
     0
 90
        0
176
     0
290
     0
176
     0
 90
        1
176
     0
 40
0.0
176
     0
 90
        0
176
     0
290
     0
176
     0
290
     1
176
     0
290
     1
176
     0
290
     0
176
     0
290
     0
176
     0
290
     0
176
     0
290
     0
176
     0
290
     0
176
     0
290
     0
176
     0
 90
       50
176
     0
 40
0.0
176
     0
 40
1.0
176
     0
 90
        0
176
     0
 62
    18
420
        0
176
     0
 90
       50
176
     0
 90
        3
176
     0
 62
     5
420
      255
176
     0
290
     0
176
     0
 90
       50
176
     0
 90
       50
176
     0
 90
       50
176
     0
290
     0
176
     0
 90
       50
176
     0
 62
   256
176
     0
 40
1.0
176
     0
 90
        2
176
     0
  1
strokes_ogs.tif
176
     0
290
     0
176
     0
 40
1.0
176
     0
 40
1.0
176
     0
1001
ACAD
1000
AcDbSavedByObjectVersion
1070
     0
  0
VISUALSTYLE
  5
38
102
{ACAD_REACTORS
330
29
102
}
330
29
100
AcDbVisualStyle
  2
Facepattern
 70
    15
177
     3
291
     1
 70
    58
 90
        2
176
     1
 90
        2
176
     1
 90
        0
176
     1
 90
        0
176
     1
 40
0.6
176
     1
 40
30.0
176
     1
 62
     7
420
 16777215
176
     1
 90
        1
176
     1
 90
        4
176
     1
 62
     7
176
     1
 62
   257
176
     1
 90
        1
176
     1
 90
        1
176
     1
 40
1.0
176
     1
 90
        8
176
     1
 62
     7
176
     1
 40
1.0
176
     1
 90
        1
176
     1
 90
        6
176
     1
 90
        2
176
     1
 62
     7
176
     1
 90
        5
176
     1
 90
        0
176
     1
 90
        0
176
     1
290
     0
176
     1
 90
        1
176
     1
 40
0.0
176
     1
 90
        0
176
     1
290
     0
176
     1
290
     1
176
     1
290
     1
176
     1
290
     0
176
     1
290
     0
176
     1
290
     0
176
     1
290
     0
176
     1
290
     0
176
     1
290
     0
176
     1
 90
       50
176
     1
 40
0.0
176
     1
 40
1.0
176
     1
 90
        0
176
     1
 62
    18
420
        0
176
     1
 90
       50
176
     1
 90
        3
176
     1
 62
     5
420
      255
176
     1
290
     0
176
     1
 90
       50
176
     1
 90
       50
176
     1
 90
       50
176
     1
290
     0
176
     1
 90
       50
176
     1
 62
   256
176
     0
 40
1.0
176
     0
 90
        2
176
     1
  1
strokes_ogs.tif
176
     1
290
     0
176
     1
 40
1.0
176
     1
 40
1.0
176
     1
1001
ACAD
1000
AcDbSavedByObjectVersion
1070
     0
  0
VISUALSTYLE
  5
2A
102
{ACAD_REACTORS
330
29
102
}
330
29
100
AcDbVisualStyle
  2
Flat
 70
     0
177
     3
291
     1
 70
    58
 90
        2
176
     1
 90
        1
176
     1
 90
        1
176
     1
 90
        2
176
     1
 40
0.6
176
     1
 40
30.0
176
     1
 62
     7
420
 16777215
176
     1
 90
        0
176
     1
 90
        0
176
     1
 62
     7
176
     1
 62
   257
176
     1
 90
        1
176
     1
 90
        1
176
     1
 40
1.0
176
     1
 90
        8
176
     1
 62
     7
176
     1
 40
1.0
176
     1
 90
        1
176
     1
 90
        6
176
     1
 90
        2
176
     1
 62
     7
176
     1
 90
        5
176
     1
 90
        0
176
     1
 90
        0
176
     1
290
     0
176
     1
 90
       13
176
     1
 40
0.0
176
     1
 90
        0
176
     1
290
     0
176
     1
290
     1
176
     1
290
     1
176
     1
290
     0
176
     1
290
     0
176
     1
290
     0
176
     1
290
     0
176
     1
290
     0
176
     1
290
     0
176
     1
 90
       50
176
     1
 40
0.0
176
     1
 40
1.0
176
     1
 90
        0
176
     1
 62
    18
420
        0
176
     1
 90
       50
176
     1
 90
        3
176
     1
 62
     5
420
      255
176
     1
290
     0
176
     1
 90
       50
176
     1
 90
       50
176
     1
 90
       50
176
     1
290
     0
176
     1
 90
       50
176
     1
 62
   256
176
     0
 40
1.0
176
     0
 90
        2
176
     1
  1
strokes_ogs.tif
176
     1
290
     0
176
     1
 40
1.0
176
     1
 40
1.0
176
     1
1001
ACAD
1000
AcDbSavedByObjectVersion
1070
     0
  0
VISUALSTYLE
  5
2B
102
{ACAD_REACTORS
330
29
102
}
330
29
100
AcDbVisualStyle
  2
FlatWithEdges
 70
     1
177
     3
291
     1
 70
    58
 90
        2
176
     1
 90
        1
176
     1
 90
        1
176
     1
 90
        2
176
     1
 40
0.6
176
     1
 40
30.0
176
     1
 62
     7
420
 16777215
176
     1
 90
        1
176
     1
 90
        0
176
     1
 62
     7
176
     1
 62
   257
176
     1
 90
        1
176
     1
 90
        1
176
     1
 40
1.0
176
     1
 90
        0
176
     1
 62
   257
176
     1
 40
1.0
176
     1
 90
        1
176
     1
 90
        6
176
     1
 90
        2
176
     1
 62
     7
176
     1
 90
        5
176
     1
 90
        0
176
     1
 90
        0
176
     1
290
     0
176
     1
 90
       13
176
     1
 40
0.0
176
     1
 90
        0
176
     1
290
     0
176
     1
290
     1
176
     1
290
     1
176
     1
290
     0
176
     1
290
     0
176
     1
290
     0
176
     1
290
     0
176
     1
290
     0
176
     1
290
     0
176
     1
 90
       50
176
     1
 40
0.0
176
     1
 40
1.0
176
     1
 90
        0
176
     1
 62
    18
420
        0
176
     1
 90
       50
176
     1
 90
        3
176
     1
 62
     5
420
      255
176
     1
290
     0
176
     1
 90
       50
176
     1
 90
       50
176
     1
 90
       50
176
     1
290
     0
176
     1
 90
       50
176
     1
 62
   256
176
     0
 40
1.0
176
     0
 90
        2
176
     1
  1
strokes_ogs.tif
176
     1
290
     0
176
     1
 40
1.0
176
     1
 40
1.0
176
     1
1001
ACAD
1000
AcDbSavedByObjectVersion
1070
     0
  0
VISUALSTYLE
  5
2C
102
{ACAD_REACTORS
330
29
102
}
330
29
100
AcDbVisualStyle
  2
Gouraud
 70
     2
177
     3
291
     1
 70
    58
 90
        2
176
     1
 90
        2
176
     1
 90
        1
176
     1
 90
        2
176
     1
 40
0.6
176
     1
 40
30.0
176
     1
 62
     7
420
 16777215
176
     1
 90
        0
176
     1
 90
        0
176
     1
 62
     7
176
     1
 62
   257
176
     1
 90
        1
176
     1
 90
        1
176
     1
 40
1.0
176
     1
 90
        0
176
     1
 62
     7
176
     1
 40
1.0
176
     1
 90
        1
176
     1
 90
        6
176
     1
 90
        2
176
     1
 62
     7
176
     1
 90
        5
176
     1
 90
        0
176
     1
 90
        0
176
     1
290
     0
176
     1
 90
       13
176
     1
 40
0.0
176
     1
 90
        0
176
     1
290
     0
176
     1
290
     1
176
     1
290
     1
176
     1
290
     0
176
     1
290
     0
176
     1
290
     0
176
     1
290
     0
176
     1
290
     0
176
     1
290
     0
176
     1
 90
       50
176
     1
 40
0.0
176
     1
 40
1.0
176
     1
 90
        0
176
     1
 62
    18
420
        0
176
     1
 90
       50
176
     1
 90
        3
176
     1
 62
     5
420
      255
176
     1
290
     0
176
     1
 90
       50
176
     1
 90
       50
176
     1
 90
       50
176
     1
290
     0
176
     1
 90
       50
176
     1
 62
   256
176
     0
 40
1.0
176
     0
 90
        2
176
     1
  1
strokes_ogs.tif
176
     1
290
     0
176
     1
 40
1.0
176
     1
 40
1.0
176
     1
1001
ACAD
1000
AcDbSavedByObjectVersion
1070
     0
  0
VISUALSTYLE
  5
2D
102
{ACAD_REACTORS
330
29
102
}
330
29
100
AcDbVisualStyle
  2
GouraudWithEdges
 70
     3
177
     3
291
     1
 70
    58
 90
        2
176
     1
 90
        2
176
     1
 90
        1
176
     1
 90
        2
176
     1
 40
0.6
176
     1
 40
30.0
176
     1
 62
     7
420
 16777215
176
     1
 90
        1
176
     1
 90
        0
176
     1
 62
     7
176
     1
 62
   257
176
     1
 90
        1
176
     1
 90
        1
176
     1
 40
1.0
176
     1
 90
        0
176
     1
 62
   257
176
     1
 40
1.0
176
     1
 90
        1
176
     1
 90
        6
176
     1
 90
        2
176
     1
 62
     7
176
     1
 90
        5
176
     1
 90
        0
176
     1
 90
        0
176
     1
290
     0
176
     1
 90
       13
176
     1
 40
0.0
176
     1
 90
        0
176
     1
290
     0
176
     1
290
     1
176
     1
290
     1
176
     1
290
     0
176
     1
290
     0
176
     1
290
     0
176
     1
290
     0
176
     1
290
     0
176
     1
290
     0
176
     1
 90
       50
176
     1
 40
0.0
176
     1
 40
1.0
176
     1
 90
        0
176
     1
 62
    18
420
        0
176
     1
 90
       50
176
     1
 90
        3
176
     1
 62
     5
420
      255
176
     1
290
     0
176
     1
 90
       50
176
     1
 90
       50
176
     1
 90
       50
176
     1
290
     0
176
     1
 90
       50
176
     1
 62
   256
176
     0
 40
1.0
176
     0
 90
        2
176
     1
  1
strokes_ogs.tif
176
     1
290
     0
176
     1
 40
1.0
176
     1
 40
1.0
176
     1
1001
ACAD
1000
AcDbSavedByObjectVersion
1070
     0
  0
VISUALSTYLE
  5
31
102
{ACAD_REACTORS
330
29
102
}
330
29
100
AcDbVisualStyle
  2
Hidden
 70
     6
177
     3
291
     0
 70
    58
 90
        1
176
     1
 90
        2
176
     1
 90
        2
176
     1
 90
        0
176
     1
 40
0.6
176
     1
 40
30.0
176
     1
 62
     7
420
 16777215
176
     1
 90
        2
176
     1
 90
        2
176
     1
 62
     7
176
     1
 62
   257
176
     1
 90
        2
176
     1
 90
        1
176
     1
 40
40.0
176
     1
 90
        0
176
     1
 62
   257
176
     1
 40
1.0
176
     1
 90
        1
176
     1
 90
        6
176
     1
 90
        2
176
     1
 62
     7
176
     1
 90
        3
176
     1
 90
        0
176
     1
 90
        0
176
     1
290
     0
176
     1
 90
        1
176
     1
 40
0.0
176
     1
 90
        0
176
     1
290
     0
176
     1
290
     1
176
     1
290
     1
176
     1
290
     0
176
     1
290
     0
176
     1
290
     0
176
     1
290
     0
176
     1
290
     0
176
     1
290
     0
176
     1
 90
       50
176
     1
 40
0.0
176
     1
 40
1.0
176
     1
 90
        0
176
     1
 62
    18
420
        0
176
     1
 90
       50
176
     1
 90
        3
176
     1
 62
     5
420
      255
176
     1
290
     0
176
     1
 90
       50
176
     1
 90
       50
176
     1
 90
       50
176
     1
290
     0
176
     1
 90
       50
176
     1
 62
   256
176
     0
 40
1.0
176
     0
 90
        2
176
     1
  1
strokes_ogs.tif
176
     1
290
     0
176
     1
 40
1.0
176
     1
 40
1.0
176
     1
1001
ACAD
1000
AcDbSavedByObjectVersion
1070
     0
  0
VISUALSTYLE
  5
3F
102
{ACAD_REACTORS
330
29
102
}
330
29
100
AcDbVisualStyle
  2
JitterOff
 70
    20
177
     3
291
     1
 70
    58
 90
        2
176
     0
 90
        2
176
     0
 90
        0
176
     0
 90
        0
176
     0
 40
0.6
176
     0
 40
30.0
176
     0
 62
     7
420
 16777215
176
     0
 90
        1
176
     0
 90
        4
176
     0
 62
     7
176
     0
 62
   257
176
     0
 90
        1
176
     0
 90
        1
176
     0
 40
1.0
176
     0
 90
       10
176
     2
 62
     7
176
     0
 40
1.0
176
     0
 90
        1
176
     0
 90
        6
176
     0
 90
        2
176
     0
 62
     7
176
     0
 90
        5
176
     0
 90
        0
176
     0
 90
        0
176
     0
290
     0
176
     0
 90
        1
176
     0
 40
0.0
176
     0
 90
        0
176
     0
290
     0
176
     0
290
     1
176
     0
290
     1
176
     0
290
     0
176
     0
290
     0
176
     0
290
     0
176
     0
290
     0
176
     0
290
     0
176
     0
290
     0
176
     0
 90
       50
176
     0
 40
0.0
176
     0
 40
1.0
176
     0
 90
        0
176
     0
 62
    18
420
        0
176
     0
 90
       50
176
     0
 90
        3
176
     0
 62
     5
420
      255
176
     0
290
     0
176
     0
 90
       50
176
     0
 90
       50
176
     0
 90
       50
176
     0
290
     0
176
     0
 90
       50
176
     0
 62
   256
176
     0
 40
1.0
176
     0
 90
        2
176
     0
  1
strokes_ogs.tif
176
     0
290
     0
176
     0
 40
1.0
176
     0
 40
1.0
176
     0
1001
ACAD
1000
AcDbSavedByObjectVersion
1070
     0
  0
VISUALSTYLE
  5
37
102
{ACAD_REACTORS
330
29
102
}
330
29
100
AcDbVisualStyle
  2
Linepattern
 70
    14
177
     3
291
     1
 70
    58
 90
        2
176
     1
 90
        2
176
     1
 90
        0
176
     1
 90
        0
176
     1
 40
0.6
176
     1
 40
30.0
176
     1
 62
     7
420
 16777215
176
     1
 90
        1
176
     1
 90
        4
176
     1
 62
     7
176
     1
 62
   257
176
     1
 90
        7
176
     1
 90
        7
176
     1
 40
1.0
176
     1
 90
        8
176
     1
 62
     7
176
     1
 40
1.0
176
     1
 90
        1
176
     1
 90
        6
176
     1
 90
        2
176
     1
 62
     7
176
     1
 90
        5
176
     1
 90
        0
176
     1
 90
        0
176
     1
290
     0
176
     1
 90
        1
176
     1
 40
0.0
176
     1
 90
        0
176
     1
290
     0
176
     1
290
     1
176
     1
290
     1
176
     1
290
     0
176
     1
290
     0
176
     1
290
     0
176
     1
290
     0
176
     1
290
     0
176
     1
290
     0
176
     1
 90
       50
176
     1
 40
0.0
176
     1
 40
1.0
176
     1
 90
        0
176
     1
 62
    18
420
        0
176
     1
 90
       50
176
     1
 90
        3
176
     1
 62
     5
420
      255
176
     1
290
     0
176
     1
 90
       50
176
     1
 90
       50
176
     1
 90
       50
176
     1
290
     0
176
     1
 90
       50
176
     1
 62
   256
176
     0
 40
1.0
176
     0
 90
        2
176
     1
  1
strokes_ogs.tif
176
     1
290
     0
176
     1
 40
1.0
176
     1
 40
1.0
176
     1
1001
ACAD
1000
AcDbSavedByObjectVersion
1070
     0
  0
VISUALSTYLE
  5
40
102
{ACAD_REACTORS
330
29
102
}
330
29
100
AcDbVisualStyle
  2
OverhangOff
 70
    21
177
     3
291
     1
 70
    58
 90
        2
176
     0
 90
        2
176
     0
 90
        0
176
     0
 90
        0
176
     0
 40
0.6
176
     0
 40
30.0
176
     0
 62
     7
420
 16777215
176
     0
 90
        1
176
     0
 90
        4
176
     0
 62
     7
176
     0
 62
   257
176
     0
 90
        1
176
     0
 90
        1
176
     0
 40
1.0
176
     0
 90
        9
176
     2
 62
     7
176
     0
 40
1.0
176
     0
 90
        1
176
     0
 90
        6
176
     0
 90
        2
176
     0
 62
     7
176
     0
 90
        5
176
     0
 90
        0
176
     0
 90
        0
176
     0
290
     0
176
     0
 90
        1
176
     0
 40
0.0
176
     0
 90
        0
176
     0
290
     0
176
     0
290
     1
176
     0
290
     1
176
     0
290
     0
176
     0
290
     0
176
     0
290
     0
176
     0
290
     0
176
     0
290
     0
176
     0
290
     0
176
     0
 90
       50
176
     0
 40
0.0
176
     0
 40
1.0
176
     0
 90
        0
176
     0
 62
    18
420
        0
176
     0
 90
       50
176
     0
 90
        3
176
     0
 62
     5
420
      255
176
     0
290
     0
176
     0
 90
       50
176
     0
 90
       50
176
     0
 90
       50
176
     0
290
     0
176
     0
 90
       50
176
     0
 62
   256
176
     0
 40
1.0
176
     0
 90
        2
176
     0
  1
strokes_ogs.tif
176
     0
290
     0
176
     0
 40
1.0
176
     0
 40
1.0
176
     0
1001
ACAD
1000
AcDbSavedByObjectVersion
1070
     0
  0
VISUALSTYLE
  5
33
102
{ACAD_REACTORS
330
29
102
}
330
29
100
AcDbVisualStyle
  2
Realistic
 70
     8
177
     3
291
     0
 70
    58
 90
        2
176
     1
 90
        3
176
     1
 90
        0
176
     1
 90
        2
176
     1
 40
0.6
176
     1
 40
30.0
176
     1
 62
     7
420
 16777215
176
     1
 90
        0
176
     1
 90
        0
176
     1
 62
     7
176
     1
 62
   257
176
     1
 90
        1
176
     1
 90
        1
176
     1
 40
1.0
176
     1
 90
        8
176
     1
 62
   257
176
     1
 40
1.0
176
     1
 90
        1
176
     1
 90
        6
176
     1
 90
        2
176
     1
 62
     7
176
     1
 90
        3
176
     1
 90
        0
176
     1
 90
        0
176
     1
290
     0
176
     1
 90
       13
176
     1
 40
0.0
176
     1
 90
        0
176
     1
290
     0
176
     1
290
     1
176
     1
290
     1
176
     1
290
     0
176
     1
290
     0
176
     1
290
     0
176
     1
290
     0
176
     1
290
     0
176
     1
290
     0
176
     1
 90
       50
176
     1
 40
0.0
176
     1
 40
1.0
176
     1
 90
        0
176
     1
 62
    18
420
        0
176
     1
 90
       50
176
     1
 90
        3
176
     1
 62
     5
420
      255
176
     1
290
     0
176
     1
 90
       50
176
     1
 90
       50
176
     1
 90
       50
176
     1
290
     0
176
     1
 90
       50
176
     1
 62
   256
176
     0
 40
1.0
176
     0
 90
        2
176
     1
  1
strokes_ogs.tif
176
     1
290
     0
176
     1
 40
1.0
176
     1
 40
1.0
176
     1
1001
ACAD
1000
AcDbSavedByObjectVersion
1070
     0
  0
VISUALSTYLE
  5
3E
102
{ACAD_REACTORS
330
29
102
}
330
29
100
AcDbVisualStyle
  2
Shaded
 70
    27
177
     3
291
     0
 70
    58
 90
        2
176
     1
 90
        2
176
     1
 90
        1
176
     1
 90
        2
176
     1
 40
0.6
176
     1
 40
30.0
176
     1
 62
     7
420
 16777215
176
     1
 90
        0
176
     1
 90
        4
176
     1
 62
     7
176
     1
 62
   257
176
     1
 90
        1
176
     1
 90
        1
176
     1
 40
1.0
176
     1
 90
        8
176
     1
 62
   257
176
     1
 40
1.0
176
     1
 90
        1
176
     1
 90
        6
176
     1
 90
        2
176
     1
 62
     8
420
  7895160
176
     1
 90
        3
176
     1
 90
        0
176
     1
 90
        0
176
     1
290
     0
176
     1
 90
        5
176
     1
 40
0.0
176
     1
 90
        0
176
     1
290
     0
176
     1
290
     1
176
     1
290
     1
176
     1
290
     0
176
     1
290
     0
176
     1
290
     0
176
     1
290
     0
176
     1
290
     0
176
     1
290
     0
176
     1
 90
       50
176
     1
 40
0.0
176
     1
 40
1.0
176
     1
 90
        0
176
     1
 62
    18
420
        0
176
     1
 90
       50
176
     1
 90
        3
176
     1
 62
     5
420
      255
176
     1
290
     0
176
     1
 90
       50
176
     1
 90
       50
176
     1
 90
       50
176
     1
290
     0
176
     1
 90
       50
176
     1
 62
   256
176
     0
 40
1.0
176
     0
 90
        2
176
     1
  1
strokes_ogs.tif
176
     1
290
     0
176
     1
 40
1.0
176
     1
 40
1.0
176
     1
1001
ACAD
1000
AcDbSavedByObjectVersion
1070
     0
  0
VISUALSTYLE
  5
3D
102
{ACAD_REACTORS
330
29
102
}
330
29
100
AcDbVisualStyle
  2
Shaded with edges
 70
    26
177
     3
291
     0
 70
    58
 90
        2
176
     1
 90
        2
176
     1
 90
        1
176
     1
 90
        2
176
     1
 40
0.6
176
     1
 40
30.0
176
     1
 62
     7
420
 16777215
176
     1
 90
        1
176
     1
 90
        2
176
     1
 62
     7
176
     1
 62
   257
176
     1
 90
        2
176
     1
 90
        1
176
     1
 40
1.0
176
     1
 90
        8
176
     1
 62
   257
176
     1
 40
1.0
176
     1
 90
        1
176
     1
 90
        6
176
     1
 90
        2
176
     1
 62
     7
176
     1
 90
        3
176
     1
 90
        0
176
     1
 90
        0
176
     1
290
     0
176
     1
 90
        5
176
     1
 40
0.0
176
     1
 90
        0
176
     1
290
     0
176
     1
290
     1
176
     1
290
     1
176
     1
290
     0
176
     1
290
     0
176
     1
290
     0
176
     1
290
     0
176
     1
290
     0
176
     1
290
     0
176
     1
 90
       50
176
     1
 40
0.0
176
     1
 40
1.0
176
     1
 90
        0
176
     1
 62
    18
420
        0
176
     1
 90
       50
176
     1
 90
        3
176
     1
 62
     5
420
      255
176
     1
290
     0
176
     1
 90
       50
176
     1
 90
       50
176
     1
 90
       50
176
     1
290
     0
176
     1
 90
       50
176
     1
 62
   256
176
     0
 40
1.0
176
     0
 90
        2
176
     1
  1
strokes_ogs.tif
176
     1
290
     0
176
     1
 40
1.0
176
     1
 40
1.0
176
     1
1001
ACAD
1000
AcDbSavedByObjectVersion
1070
     0
  0
VISUALSTYLE
  5
3A
102
{ACAD_REACTORS
330
29
102
}
330
29
100
AcDbVisualStyle
  2
Shades of Gray
 70
    23
177
     3
291
     0
 70
    58
 90
        2
176
     1
 90
        2
176
     1
 90
        3
176
     1
 90
        0
176
     1
 40
0.6
176
     1
 40
30.0
176
     1
 62
     7
420
 16777215
176
     1
 90
        2
176
     1
 90
        2
176
     1
 62
     7
176
     1
 62
     7
176
     1
 90
        1
176
     1
 90
        1
176
     1
 40
40.0
176
     1
 90
        8
176
     1
 62
     7
176
     1
 40
1.0
176
     1
 90
        1
176
     1
 90
        6
176
     1
 90
        2
176
     1
 62
     7
176
     1
 90
        3
176
     1
 90
        0
176
     1
 90
        0
176
     1
290
     0
176
     1
 90
        1
176
     1
 40
0.0
176
     1
 90
        0
176
     1
290
     0
176
     1
290
     1
176
     1
290
     1
176
     1
290
     0
176
     1
290
     0
176
     1
290
     0
176
     1
290
     0
176
     1
290
     0
176
     1
290
     0
176
     1
 90
       50
176
     1
 40
0.0
176
     1
 40
1.0
176
     1
 90
        0
176
     1
 62
    18
420
        0
176
     1
 90
       50
176
     1
 90
        3
176
     1
 62
     5
420
      255
176
     1
290
     0
176
     1
 90
       50
176
     1
 90
       50
176
     1
 90
       50
176
     1
290
     0
176
     1
 90
       50
176
     1
 62
   256
176
     0
 40
1.0
176
     0
 90
        2
176
     1
  1
strokes_ogs.tif
176
     1
290
     0
176
     1
 40
1.0
176
     1
 40
1.0
176
     1
1001
ACAD
1000
AcDbSavedByObjectVersion
1070
     0
  0
VISUALSTYLE
  5
3B
102
{ACAD_REACTORS
330
29
102
}
330
29
100
AcDbVisualStyle
  2
Sketchy
 70
    24
177
     3
291
     0
 70
    58
 90
        1
176
     1
 90
        2
176
     1
 90
        2
176
     1
 90
        0
176
     1
 40
0.6
176
     1
 40
30.0
176
     1
 62
     7
420
 16777215
176
     1
 90
        2
176
     1
 90
        2
176
     1
 62
     7
176
     1
 62
     7
176
     1
 90
        1
176
     1
 90
        1
176
     1
 40
40.0
176
     1
 90
       11
176
     1
 62
     7
176
     1
 40
1.0
176
     1
 90
        1
176
     1
 90
        6
176
     1
 90
        2
176
     1
 62
     7
176
     1
 90
        6
176
     1
 90
        0
176
     1
 90
        0
176
     1
290
     0
176
     1
 90
        1
176
     1
 40
0.0
176
     1
 90
        0
176
     1
290
     0
176
     1
290
     1
176
     1
290
     1
176
     1
290
     0
176
     1
290
     0
176
     1
290
     0
176
     1
290
     0
176
     1
290
     0
176
     1
290
     0
176
     1
 90
       50
176
     1
 40
0.0
176
     1
 40
1.0
176
     1
 90
        0
176
     1
 62
    18
420
        0
176
     1
 90
       50
176
     1
 90
        3
176
     1
 62
     5
420
      255
176
     1
290
     0
176
     1
 90
       50
176
     1
 90
       50
176
     1
 90
       50
176
     1
290
     0
176
     1
 90
       50
176
     1
 62
   256
176
     0
 40
1.0
176
     0
 90
        2
176
     1
  1
strokes_ogs.tif
176
     1
290
     0
176
     1
 40
1.0
176
     1
 40
1.0
176
     1
1001
ACAD
1000
AcDbSavedByObjectVersion
1070
     0
  0
VISUALSTYLE
  5
36
102
{ACAD_REACTORS
330
29
102
}
330
29
100
AcDbVisualStyle
  2
Thicken
 70
    13
177
     3
291
     1
 70
    58
 90
        2
176
     1
 90
        2
176
     1
 90
        0
176
     1
 90
        0
176
     1
 40
0.6
176
     1
 40
30.0
176
     1
 62
     7
420
 16777215
176
     1
 90
        1
176
     1
 90
        4
176
     1
 62
     7
176
     1
 62
   257
176
     1
 90
        1
176
     1
 90
        1
176
     1
 40
1.0
176
     1
 90
       12
176
     1
 62
     7
176
     1
 40
1.0
176
     1
 90
        1
176
     1
 90
        6
176
     1
 90
        2
176
     1
 62
     7
176
     1
 90
        5
176
     1
 90
        0
176
     1
 90
        0
176
     1
290
     0
176
     1
 90
        1
176
     1
 40
0.0
176
     1
 90
        0
176
     1
290
     0
176
     1
290
     1
176
     1
290
     1
176
     1
290
     0
176
     1
290
     0
176
     1
290
     0
176
     1
290
     0
176
     1
290
     0
176
     1
290
     0
176
     1
 90
       50
176
     1
 40
0.0
176
     1
 40
1.0
176
     1
 90
        0
176
     1
 62
    18
420
        0
176
     1
 90
       50
176
     1
 90
        3
176
     1
 62
     5
420
      255
176
     1
290
     0
176
     1
 90
       50
176
     1
 90
       50
176
     1
 90
       50
176
     1
290
     0
176
     1
 90
       50
176
     1
 62
   256
176
     0
 40
1.0
176
     0
 90
        2
176
     1
  1
strokes_ogs.tif
176
     1
290
     0
176
     1
 40
1.0
176
     1
 40
1.0
176
     1
1001
ACAD
1000
AcDbSavedByObjectVersion
1070
     0
  0
VISUALSTYLE
  5
30
102
{ACAD_REACTORS
330
29
102
}
330
29
100
AcDbVisualStyle
  2
Wireframe
 70
     5
177
     3
291
     0
 70
    58
 90
        0
176
     1
 90
        2
176
     1
 90
        0
176
     1
 90
        0
176
     1
 40
0.6
176
     1
 40
30.0
176
     1
 62
     7
420
 16777215
176
     1
 90
        1
176
     1
 90
        4
176
     1
 62
     7
176
     1
 62
   257
176
     1
 90
        1
176
     1
 90
        1
176
     1
 40
1.0
176
     1
 90
        0
176
     1
 62
   257
176
     1
 40
1.0
176
     1
 90
        1
176
     1
 90
        6
176
     1
 90
        2
176
     1
 62
     7
176
     1
 90
        3
176
     1
 90
        0
176
     1
 90
        0
176
     1
290
     0
176
     1
 90
        1
176
     1
 40
0.0
176
     1
 90
        0
176
     1
290
     0
176
     1
290
     1
176
     1
290
     1
176
     1
290
     0
176
     1
290
     0
176
     1
290
     0
176
     1
290
     0
176
     1
290
     0
176
     1
290
     0
176
     1
 90
       50
176
     1
 40
0.0
176
     1
 40
1.0
176
     1
 90
        0
176
     1
 62
    18
420
        0
176
     1
 90
       50
176
     1
 90
        3
176
     1
 62
     5
420
      255
176
     1
290
     0
176
     1
 90
       50
176
     1
 90
       50
176
     1
 90
       50
176
     1
290
     0
176
     1
 90
       50
176
     1
 62
   256
176
     0
 40
1.0
176
     0
 90
        2
176
     1
  1
strokes_ogs.tif
176
     1
290
     0
176
     1
 40
1.0
176
     1
 40
1.0
176
     1
1001
ACAD
1000
AcDbSavedByObjectVersion
1070
     0
  0
VISUALSTYLE
  5
3C
102
{ACAD_REACTORS
330
29
102
}
330
29
100
AcDbVisualStyle
  2
X-Ray
 70
    25
177
     3
291
     0
 70
    58
 90
        2
176
     1
 90
        2
176
     1
 90
        1
176
     1
 90
        1
176
     1
 40
0.5
176
     1
 40
30.0
176
     1
 62
     7
420
 16777215
176
     1
 90
        1
176
     1
 90
        0
176
     1
 62
     7
176
     1
 62
   257
176
     1
 90
        1
176
     1
 90
        1
176
     1
 40
1.0
176
     1
 90
        8
176
     1
 62
     7
176
     1
 40
1.0
176
     1
 90
        1
176
     1
 90
        6
176
     1
 90
        2
176
     1
 62
     7
176
     1
 90
        3
176
     1
 90
        0
176
     1
 90
        0
176
     1
290
     0
176
     1
 90
       13
176
     1
 40
0.0
176
     1
 90
        0
176
     1
290
     0
176
     1
290
     1
176
     1
290
     1
176
     1
290
     0
176
     1
290
     0
176
     1
290
     0
176
     1
290
     0
176
     1
290
     0
176
     1
290
     0
176
     1
 90
       50
176
     1
 40
0.0
176
     1
 40
1.0
176
     1
 90
        0
176
     1
 62
    18
420
        0
176
     1
 90
       50
176
     1
 90
        3
176
     1
 62
     5
420
      255
176
     1
290
     0
176
     1
 90
       50
176
     1
 90
       50
176
     1
 90
       50
176
     1
290
     0
176
     1
 90
       50
176
     1
 62
   256
176
     0
 40
1.0
176
     0
 90
        2
176
     1
  1
strokes_ogs.tif
176
     1
290
     0
176
     1
 40
1.0
176
     1
 40
1.0
176
     1
1001
ACAD
1000
AcDbSavedByObjectVersion
1070
     0
  0
DICTIONARYVAR
  5
98
102
{ACAD_REACTORS
330
93
102
}
330
93
100
DictionaryVariables
280
     0
  1
1:1
  0
DICTIONARYVAR
  5
95
102
{ACAD_REACTORS
330
93
102
}
330
93
100
DictionaryVariables
280
     0
  1
STANDARD
  0
DICTIONARYVAR
  5
94
102
{ACAD_REACTORS
330
93
102
}
330
93
100
DictionaryVariables
280
     0
  1
STANDARD
  0
DICTIONARYVAR
  5
96
102
{ACAD_REACTORS
330
93
102
}
330
93
100
DictionaryVariables
280
     0
  1
Imperial24
  0
DICTIONARYVAR
  5
97
102
{ACAD_REACTORS
330
93
102
}
330
93
100
DictionaryVariables
280
     0
  1
Imperial24
  0
DICTIONARY
  5
9E
330
6B
100
AcDbDictionary
280
     1
281
     1
  3
ACAD_XREC_ROUNDTRIP
360
9F
  0
DICTIONARY
  5
1A
330
19
100
AcDbDictionary
280
     1
281
     1
  3
BUMPTILE
360
1C
  3
DIFFUSETILE
360
1B
  3
OPACITYTILE
360
1F
  3
REFLECTIONTILE
360
1E
  3
REFRACTIONTILE
360
20
  3
SPECULARTILE
360
1D
  0
DICTIONARY
  5
12
330
11
100
AcDbDictionary
280
     1
281
     1
  3
BUMPTILE
360
14
  3
DIFFUSETILE
360
13
  3
OPACITYTILE
360
17
  3
REFLECTIONTILE
360
16
  3
REFRACTIONTILE
360
18
  3
SPECULARTILE
360
15
  0
DICTIONARY
  5
22
330
21
100
AcDbDictionary
280
     1
281
     1
  3
BUMPTILE
360
24
  3
DIFFUSETILE
360
23
  3
OPACITYTILE
360
27
  3
REFLECTIONTILE
360
26
  3
REFRACTIONTILE
360
28
  3
SPECULARTILE
360
25
  0
DICTIONARY
  5
9C
330
69
100
AcDbDictionary
280
     1
281
     1
  3
ACAD_XREC_ROUNDTRIP
360
9D
  0
DICTIONARY
  5
99
330
65
100
AcDbDictionary
280
     1
281
     1
  3
ACAD_ROUNDTRIP_2008_TABLESTYLE_CELLSTYLEMAP
360
9A
  0
XRECORD
  5
9F
102
{ACAD_REACTORS
330
9E
102
}
330
9E
100
AcDbXrecord
280
     1
102
DISPLAYNAME
  1
Imperial24
102
FLAGS
 90
        0
  0
XRECORD
  5
1C
102
{ACAD_REACTORS
330
1A
102
}
330
1A
100
AcDbXrecord
280
     1
270
     1
271
     1
  0
XRECORD
  5
1B
102
{ACAD_REACTORS
330
1A
102
}
330
1A
100
AcDbXrecord
280
     1
270
     1
271
     1
  0
XRECORD
  5
1F
102
{ACAD_REACTORS
330
1A
102
}
330
1A
100
AcDbXrecord
280
     1
270
     1
271
     1
  0
XRECORD
  5
1E
102
{ACAD_REACTORS
330
1A
102
}
330
1A
100
AcDbXrecord
280
     1
270
     1
271
     1
  0
XRECORD
  5
20
102
{ACAD_REACTORS
330
1A
102
}
330
1A
100
AcDbXrecord
280
     1
270
     1
271
     1
  0
XRECORD
  5
1D
102
{ACAD_REACTORS
330
1A
102
}
330
1A
100
AcDbXrecord
280
     1
270
     1
271
     1
  0
XRECORD
  5
14
102
{ACAD_REACTORS
330
12
102
}
330
12
100
AcDbXrecord
280
     1
270
     1
271
     1
  0
XRECORD
  5
13
102
{ACAD_REACTORS
330
12
102
}
330
12
100
AcDbXrecord
280
     1
270
     1
271
     1
  0
XRECORD
  5
17
102
{ACAD_REACTORS
330
12
102
}
330
12
100
AcDbXrecord
280
     1
270
     1
271
     1
  0
XRECORD
  5
16
102
{ACAD_REACTORS
330
12
102
}
330
12
100
AcDbXrecord
280
     1
270
     1
271
     1
  0
XRECORD
  5
18
102
{ACAD_REACTORS
330
12
102
}
330
12
100
AcDbXrecord
280
     1
270
     1
271
     1
  0
XRECORD
  5
15
102
{ACAD_REACTORS
330
12
102
}
330
12
100
AcDbXrecord
280
     1
270
     1
271
     1
  0
XRECORD
  5
24
102
{ACAD_REACTORS
330
22
102
}
330
22
100
AcDbXrecord
280
     1
270
     1
271
     1
  0
XRECORD
  5
23
102
{ACAD_REACTORS
330
22
102
}
330
22
100
AcDbXrecord
280
     1
270
     1
271
     1
  0
XRECORD
  5
27
102
{ACAD_REACTORS
330
22
102
}
330
22
100
AcDbXrecord
280
     1
270
     1
271
     1
  0
XRECORD
  5
26
102
{ACAD_REACTORS
330
22
102
}
330
22
100
AcDbXrecord
280
     1
270
     1
271
     1
  0
XRECORD
  5
28
102
{ACAD_REACTORS
330
22
102
}
330
22
100
AcDbXrecord
280
     1
270
     1
271
     1
  0
XRECORD
  5
25
102
{ACAD_REACTORS
330
22
102
}
330
22
100
AcDbXrecord
280
     1
270
     1
271
     1
  0
XRECORD
  5
9D
102
{ACAD_REACTORS
330
9C
102
}
330
9C
100
AcDbXrecord
280
     1
102
DISPLAYNAME
  1
Imperial24
102
FLAGS
 90
        0
  0
CELLSTYLEMAP
  5
9A
102
{ACAD_REACTORS
330
99
102
}
330
99
100
AcDbCellStyleMap
 90
        3
300
CELLSTYLE
  1
TABLEFORMAT_BEGIN
 90
        5
170
     1
 91
        0
 92
    32768
 62
   257
 93
        1
300
CONTENTFORMAT
  1
CONTENTFORMAT_BEGIN
 90
        0
 91
        0
 92
      512
 93
        0
300

 40
0.0
140
1.0
 94
        5
 62
     0
340
55
144
0.25
309
CONTENTFORMAT_END
171
     0
 94
        0
309
TABLEFORMAT_END
  1
CELLSTYLE_BEGIN
 90
        1
 91
        1
300
_TITLE
309
CELLSTYLE_END
300
CELLSTYLE
  1
TABLEFORMAT_BEGIN
 90
        5
170
     1
 91
        0
 92
        0
 62
   257
 93
        1
300
CONTENTFORMAT
  1
CONTENTFORMAT_BEGIN
 90
        0
 91
        0
 92
      512
 93
        0
300

 40
0.0
140
1.0
 94
        5
 62
     0
340
55
144
0.18
309
CONTENTFORMAT_END
171
     0
 94
        0
309
TABLEFORMAT_END
  1
CELLSTYLE_BEGIN
 90
        2
 91
        1
300
_HEADER
309
CELLSTYLE_END
300
CELLSTYLE
  1
TABLEFORMAT_BEGIN
 90
        5
170
     1
 91
        0
 92
        0
 62
   257
 93
        1
300
CONTENTFORMAT
  1
CONTENTFORMAT_BEGIN
 90
        0
 91
        0
 92
      512
 93
        0
300

 40
0.0
140
1.0
 94
        2
 62
     0
340
55
144
0.18
309
CONTENTFORMAT_END
171
     0
 94
        0
309
TABLEFORMAT_END
  1
CELLSTYLE_BEGIN
 90
        3
 91
        2
300
_DATA
309
CELLSTYLE_END
  0
ENDSEC
  0
EOF
